<?xml version="1.0" standalone="no"?>
<!DOCTYPE svg PUBLIC "-//W3C//DTD SVG 1.1//EN" "http://www.w3.org/Graphics/SVG/1.1/DTD/svg11.dtd" >
<svg xmlns="http://www.w3.org/2000/svg" xmlns:xlink="http://www.w3.org/1999/xlink" version="1.1">
<metadata></metadata>
<defs>
<font id="kobzar_ksregular" horiz-adv-x="950" >
<font-face units-per-em="2048" ascent="1638" descent="-410" />
<missing-glyph horiz-adv-x="716" />
<glyph horiz-adv-x="0" />
<glyph horiz-adv-x="682" />
<glyph horiz-adv-x="0" />
<glyph horiz-adv-x="0" />
<glyph unicode="&#xd;" horiz-adv-x="716" />
<glyph unicode=" "  horiz-adv-x="716" />
<glyph unicode="&#x09;" horiz-adv-x="716" />
<glyph unicode="&#xa0;" horiz-adv-x="716" />
<glyph unicode="!" horiz-adv-x="655" d="M96 57q3 65 36.5 97.5t86.5 19.5q50 -14 22 -74q-24 -50 -72 -82q-53 -35 -68 0q-7 14 -5 39zM341 485q-3 34 28 88q47 80 82 158q36 86 67.5 152t53.5 122t77 212q2 6 10.5 34.5t15.5 46t17.5 41t24 37t28.5 15.5q85 12 39 -120q-7 -18 -22 -54q-17 -39 -49 -114 t-41.5 -96.5t-32 -72.5t-33 -72.5t-30.5 -63.5t-39.5 -79t-44.5 -85.5t-60 -113.5q-29 -55 -63 -60q-25 -4 -28 25z" />
<glyph unicode="&#x22;" horiz-adv-x="397" d="M111 942q0 22 9.5 52.5t25.5 67.5t16 38q16 42 37 106q3 7 8 25.5t9.5 31t13 27t21.5 22t30 7.5q30 0 30 -37t-22 -92q-12 -34 -41.5 -103.5t-40.5 -101.5q-27 -82 -62 -82q-34 0 -34 39zM276 891q0 26 19.5 68.5t46.5 87.5t29 49q15 30 34.5 74t34.5 73.5t33 52.5 q22 29 59 29q27 0 27 -29q0 -28 -41 -110q-51 -99 -127 -234q-4 -6 -15.5 -27.5t-18.5 -33t-20 -22.5t-26 -11q-15 0 -25 8.5t-10 24.5z" />
<glyph unicode="#" horiz-adv-x="1155" d="M35 430q0 28 29 42.5t65.5 16.5t77 7t55.5 16q12 8 23.5 25.5t17.5 33.5t15.5 41t13.5 35q2 3 20.5 35.5t28.5 55.5t10 40q0 33 -47 33q-19 0 -68 -6t-71 -6q-55 0 -55 28q1 17 9 28t26.5 16.5t29 8t37 4t29.5 1.5q6 1 36 3.5t48.5 4.5t41.5 6t33 10q19 13 38 49.5t41 95 t26 68.5q1 2 17.5 41t29.5 65t35.5 51.5t42.5 25.5q35 0 35 -37q0 -16 -7.5 -39t-16 -39.5t-21 -41t-15.5 -30.5q-5 -11 -29 -55t-37 -77.5t-6 -47.5q11 -20 78 -20q42 0 90.5 7t59.5 13q11 5 19.5 12.5t17 21t13 22t13.5 28t13 27.5q48 94 120 241q2 3 12 23.5t14 28t15 24 t20 23.5t23 13.5t29 6.5q33 0 33 -31q0 -29 -45 -116q-71 -136 -103 -193q-1 -2 -16 -30.5t-22 -46t-5 -25.5q3 -10 10 -16t19.5 -8t22 -2.5t27 0.5t24.5 1q51 0 53 -33q1 -26 -25 -38.5t-59.5 -13t-72 -3t-52.5 -10.5q-20 -11 -40 -45.5t-44 -90t-31 -69.5q-1 -3 -8 -16.5 t-11 -22.5t-6.5 -20.5t-0.5 -18.5q8 -24 65 -24q22 0 75 5t77 5q74 0 74 -41q0 -29 -33 -36q-18 -4 -96 -7q-5 0 -28 -0.5t-35 -1t-34.5 -2t-37.5 -3.5t-33 -5t-31 -7t-21 -10q-10 -8 -20.5 -24.5t-16 -28.5t-16.5 -39.5t-14 -34.5q-14 -31 -40.5 -86.5t-44.5 -95t-36 -84.5 q-1 -4 -4.5 -15.5t-5.5 -17t-5.5 -16t-6.5 -16.5t-7.5 -14.5t-8.5 -13t-10 -9.5t-12.5 -7t-13.5 -2q-28 0 -28 37q0 11 3 24t8.5 31t6.5 23q39 102 98 246q2 6 18.5 34.5t24 52t2.5 40.5q-5 18 -65 18q-44 0 -95.5 -8.5t-66.5 -17.5q-16 -10 -34 -39t-29.5 -56.5t-30 -75 t-27.5 -67.5q-3 -6 -14.5 -37.5t-23.5 -58t-27 -56.5t-32.5 -48t-33.5 -17q-35 0 -35 41q0 53 62 172q7 19 23.5 52.5t25.5 58.5q41 68 41 100q0 29 -45 29q-14 0 -43 -3.5t-43 -3.5q-43 0 -43 29zM395 551q0 -12 7 -20t21.5 -11t24.5 -3.5t27 -0.5q42 0 89.5 8.5t60.5 16.5 q11 7 23.5 25.5t25.5 45t22 48t20.5 50t14.5 35.5q23 48 23 66q0 29 -82 29q-111 0 -152 -25q-17 -10 -28 -28.5t-24.5 -54.5t-18.5 -48q-2 -5 -19 -38.5t-26 -56t-9 -38.5z" />
<glyph unicode="$" horiz-adv-x="796" d="M-14 311q0 73 57.5 178.5t142.5 176.5q14 14 31 14q11 0 19 -8t8 -19q0 -9 -11 -24q-10 -15 -35 -48.5t-34 -47.5t-27 -41.5t-25.5 -44.5t-17 -41t-13 -47t-3.5 -48q0 -16 6 -42t18 -56t36 -50t55 -18q4 0 48 118t87 248t43 157q0 40 -21.5 126t-21.5 132q0 129 61 228 t166 151q12 6 51.5 16t55.5 20q29 19 69 101.5t53 124.5q-7 2 -30.5 -12.5t-32.5 -14.5q-14 0 -14 21q0 22 30.5 57t72.5 73t54 54q8 10 26.5 45.5t38.5 56.5t46 21q29 0 29 -33q0 -17 -7.5 -40.5t-21.5 -53.5t-14 -31q-17 -38 -62.5 -115t-76.5 -138.5t-31 -94.5 q0 -12 12 -22.5t30 -18.5t38.5 -21t38.5 -28t30 -41t12 -60q0 -81 -58.5 -143.5t-129.5 -62.5q-27 0 -51.5 16.5t-24.5 46.5q0 17 11.5 34t35.5 17q7 0 17 -7t34 -7q29 0 52.5 38t23.5 77q0 29 -26.5 53t-63.5 24q-11 0 -20 -3t-17.5 -12.5t-14 -15.5t-13 -22.5t-11 -23.5 t-11.5 -28.5t-11 -27.5q-23 -59 -65.5 -153.5t-61.5 -141.5q-5 -12 -18 -38t-20 -41.5t-13.5 -37.5t-6.5 -40q0 -32 19 -93t22 -73q21 -100 21 -168q0 -223 -193 -289q-10 -4 -41 -5.5t-49 -12.5q-14 -9 -24 -42.5t-14.5 -66.5t-10 -84t-8.5 -69q-2 -15 4.5 -23.5t15.5 -11 t17 -9.5t8 -20q0 -19 -16.5 -33t-49.5 -14q-67 0 -67 106q0 69 20.5 142t20.5 104q0 26 -20.5 45t-51.5 35.5t-41 26.5q-65 65 -65 194zM293 141q-1 -4 4.5 -6.5t13 -3t15.5 1.5q58 16 96.5 76.5t38.5 157.5q0 42 -7 82t-24 40q-18 0 -84 -180q-36 -105 -53 -168zM422 936 q0 -16 1 -32t3.5 -32.5t7.5 -26.5t12 -9q10 1 47.5 81.5t78.5 178t44 104.5q8 19 -8 19q-18 0 -41 -15q-68 -44 -106.5 -116t-38.5 -152z" />
<glyph unicode="%" horiz-adv-x="1138" d="M-59 -121q0 35 63 98q74 74 162 178t133.5 163t146.5 192q12 16 84.5 105.5t104.5 138.5q31 43 31 53q0 6 -9 6q-10 0 -14 -4q-57 -54 -158 -100.5t-176 -46.5q-62 0 -103.5 47t-41.5 125q0 118 73 234.5t152 170.5q59 41 125 41q50 0 85.5 -31t35.5 -94 q0 -50 -33.5 -124.5t-75.5 -74.5q-22 0 -31.5 10t-9.5 33q0 40 32 91t32 69q0 15 -10.5 26t-30.5 11q-43 0 -100 -56t-98.5 -137.5t-41.5 -146.5q0 -102 86 -102q71 0 178 67t193.5 148t138.5 149q11 14 33 53.5t41 72.5t47 60t55 27q35 0 35 -45q0 -52 -27 -107.5 t-59.5 -94t-77.5 -89.5t-65 -80q-126 -182 -187 -268t-171.5 -234t-211.5 -264.5t-210 -224.5q-74 -74 -107 -74q-18 0 -18 29zM539 162q0 68 23 136.5t57.5 117.5t74 79.5t72.5 30.5q16 0 29 -10q35 14 73 14q69 0 106.5 -31t37.5 -108q0 -80 -35.5 -159t-86.5 -133 t-105.5 -88t-94.5 -34q-70 0 -110.5 50.5t-40.5 134.5zM637 180q0 -50 17.5 -73t45.5 -23q80 0 157 91.5t77 205.5q0 34 -20 51t-42 17q-18 -1 -32.5 -15.5t-23 -31.5t-23.5 -30.5t-35 -13.5q-34 0 -43 45q-34 -42 -56 -106t-22 -117z" />
<glyph unicode="&#x26;" horiz-adv-x="1304" d="M-88 182q0 35 7 67.5t15.5 59t28 54t32.5 46t41 43t42 36.5t46.5 34.5t44 29.5t44.5 28q12 7 42 22t51 28t44.5 31.5t36 43t12.5 53.5q0 13 -2 39t-2 37q0 82 21 156t62.5 135t111.5 99t160 42q63 0 97 -36t34 -102q0 -68 -28 -129.5t-69.5 -105t-90.5 -84.5t-91.5 -70.5 t-71.5 -59.5t-30 -54q0 -19 6.5 -62t7.5 -49q14 -109 41.5 -208t60.5 -99q29 0 152 123q47 46 90.5 98.5t72 92t85.5 120.5q4 6 26.5 40.5t35 51t34.5 34t41 17.5q45 0 45 -41q0 -35 -43 -100q-86 -123 -178.5 -220t-239.5 -233q-5 -5 -20.5 -17.5t-23.5 -20t-15.5 -19.5 t-7.5 -22q0 -41 41.5 -63.5t85.5 -22.5q61 0 119.5 31t94.5 68t71.5 68t56.5 31q12 0 20 -10.5t8 -24.5q0 -41 -98 -125q-60 -54 -139.5 -92.5t-159.5 -38.5q-88 0 -127 21q-14 7 -47 39.5t-59 32.5q-28 0 -87.5 -35t-64.5 -37q-124 -51 -219 -51q-125 0 -189.5 80.5 t-64.5 199.5zM25 184q0 -83 43 -132.5t139 -49.5q38 0 105.5 22t123 53.5t56.5 53.5q1 9 -3 26.5t-8.5 31.5t-12 35.5t-9.5 27.5q-16 46 -32 125.5t-27 130.5t-19 51q-6 0 -11 -2t-10 -2q-335 -144 -335 -371zM498 836q0 -50 20 -50q14 0 30.5 10.5t27.5 22t29.5 31.5 t25.5 27q33 30 48 45t42 48t39 69.5t12 78.5q0 27 -11.5 41.5t-41.5 14.5q-44 0 -86.5 -30t-71.5 -73q-63 -120 -63 -235z" />
<glyph unicode="'" horiz-adv-x="253" d="M150 918q0 23 16 59t37.5 74t23.5 43q13 29 31.5 75t32.5 75.5t31 53.5q23 31 57 31q29 0 29 -31q0 -34 -37 -108q-24 -52 -61 -119t-48 -88q-3 -6 -11 -23t-13.5 -27t-14 -23t-18.5 -19t-21 -6q-34 0 -34 33z" />
<glyph unicode="(" horiz-adv-x="559" d="M119 -33q0 241 74.5 497.5t193 471.5t268.5 393q51 59 121.5 127t91.5 68q14 0 22.5 -9.5t8.5 -23.5q0 -22 -29.5 -57.5t-71 -74t-50.5 -50.5q-119 -148 -211 -298.5t-165.5 -325t-112.5 -373t-40 -410.5q0 -32 3 -99t3 -92q0 -38 -8.5 -51.5t-30.5 -13.5q-19 0 -33 38 t-21 94t-10 104.5t-3 84.5z" />
<glyph unicode=")" horiz-adv-x="559" d="M-244 -328q-4 14 27 51.5t76.5 83t54.5 56.5q513 635 516 1405q0 32 -3 98t-3 92q0 37 10 51.5t33 14.5q14 0 24.5 -16t16 -46.5t9.5 -62t5 -74.5t1 -71.5t-0.5 -66t-0.5 -44.5q-3 -330 -149.5 -681.5t-378.5 -621.5q-2 -3 -17 -20.5l-24 -28t-27 -30t-31 -33 t-30.5 -29.5t-31 -25.5t-27 -16.5t-23.5 -7q-21 0 -27 22z" />
<glyph unicode="*" horiz-adv-x="897" d="M-8 1217q0 31 38.5 45t82.5 14q35 0 127 -25q70 -28 86 -28q22 0 22 22q0 12 -8.5 27.5t-22 33.5t-16.5 23q-2 3 -9.5 15t-12 19.5t-10 18.5t-8.5 21t-3 18q0 14 12 24.5t29 10.5q7 0 14 -2.5t12.5 -5.5t12 -10t10 -11t10 -13.5t8.5 -13.5t8 -14t7 -12q5 -9 18 -38.5 t25 -45.5t27 -16q30 0 77 102q4 10 12.5 52.5t24 68t45.5 25.5q33 0 33 -45q0 -30 -11 -68.5t-20 -56.5q-4 -9 -20.5 -39t-26.5 -53t-10 -39q0 -12 10.5 -18.5t26.5 -6.5q11 0 26.5 3t26 6t24 7.5t15.5 4.5q45 10 73.5 19.5t71 27t66.5 26.5q43 15 70 15q41 0 41 -37 q0 -12 -5.5 -20.5t-18.5 -15t-23.5 -10.5t-30.5 -9.5t-29 -8.5q-14 -5 -41 -15t-39 -14.5t-34 -12t-38 -12t-39.5 -10.5t-48.5 -12l-43 -4q-44 -3 -76 -12t-32 -25q0 -18 18.5 -52t44 -71.5t27.5 -41.5q1 -2 23 -32.5t38.5 -61t16.5 -50.5q0 -11 -9.5 -19.5t-23.5 -8.5 q-19 0 -40 20t-32.5 37t-29.5 49q-1 2 -10.5 24t-21.5 48.5t-25 54t-25.5 46t-18.5 18.5q-13 0 -29.5 -29.5t-37 -80t-25.5 -60.5q-3 -7 -16 -51.5t-28.5 -68.5t-39.5 -24q-39 0 -39 41q0 21 9.5 50t23 59.5t14.5 34.5q2 5 27 51.5t40 80t15 48.5q-1 8 -9.5 15.5t-22 14 t-26 10.5t-29 9.5t-23.5 7.5q-7 3 -29 12t-28.5 11.5t-21.5 7t-27.5 5.5t-28.5 1q-60 -10 -72 -10q-45 0 -45 35z" />
<glyph unicode="+" horiz-adv-x="1024" d="M99.5 615q-5.5 20 13 32.5t61.5 11.5q22 -1 54 -4t48 -4q13 -1 47 -5.5t59 -7t55.5 -1t51.5 9.5q7 2 13 12.5t11.5 29t10 35t10.5 41.5t9 38q32 121 59 159q20 29 43 31q17 2 27 -5t13.5 -21.5t3.5 -29.5t-4 -36.5t-7.5 -36t-8.5 -32.5q-2 -8 -3 -11t-10.5 -28t-16 -45.5 t-12 -48t1.5 -35.5q12 -20 55.5 -18t90.5 15t86 8.5t42 -36.5q4 -35 -38.5 -51.5t-97.5 -16.5t-111 -5t-72 -21q-15 -16 -25.5 -38t-22 -58t-18.5 -52l-12 -36t-17 -45t-21.5 -32t-31.5 -18q-33 -4 -94 57q-28 28 -89.5 105.5t-102.5 116.5q-19 18 -32 37t-18.5 39zM264 563 q-56 -25 53 -127q1 -1 9 -8.5t11.5 -10t11 -9t12.5 -9.5t11.5 -7t12 -5t10.5 0q22 4 45 62q0 1 5.5 12.5t8 17.5t7 20.5t3.5 21t-3 18.5q-8 19 -96.5 25.5t-100.5 -1.5z" />
<glyph unicode="," horiz-adv-x="372" d="M-360 -496q0 16 24 37q267 216 385 473q-20 12 -20 39q1 40 27.5 65t58.5 25q24 0 38.5 -14t14.5 -43q0 -28 -14 -63q-62 -152 -195.5 -296.5t-267.5 -232.5q-13 -8 -29 -8q-22 0 -22 18z" />
<glyph unicode="-" d="M145 369q0 16 11 31t28 18q474 39 521 39q33 0 50 -11.5t17 -27.5q0 -19 -22.5 -34.5t-59.5 -18.5q-55 -1 -225.5 -10t-284.5 -13q-35 -3 -35 27z" />
<glyph unicode="." horiz-adv-x="360" d="M41 86q0 33 22 53.5t54 20.5q26 0 47.5 -21t21.5 -53q0 -33 -33 -63.5t-65 -30.5q-29 0 -38 25.5t-9 68.5z" />
<glyph unicode="/" horiz-adv-x="643" d="M-154 -139q0 15 27 47q70 90 145 203t124.5 196.5t129 220t121.5 205.5q180 299 334 492q17 20 41 20q19 0 33 -12.5t14 -30.5q0 -10 -6 -22q-40 -64 -123.5 -182.5t-120.5 -176.5q-51 -80 -149 -237t-160.5 -255.5t-149 -228.5t-161.5 -231q-10 -15 -15 -22t-18.5 -17 t-26.5 -10q-15 0 -27 12t-12 29z" />
<glyph unicode="0" horiz-adv-x="964" d="M57 246q0 392 297 782q57 74 152 168t139 94q43 0 43 -22q0 -33 -86 -105q-136 -124 -229 -270q-96 -155 -146.5 -323t-50.5 -322q0 -91 33.5 -131.5t81.5 -40.5q164 0 373 354q47 82 100 235t53 287q0 38 -17.5 113t-17.5 117q0 57 39 57q29 0 49.5 -24t30 -63 t13.5 -74.5t4 -71.5q0 -290 -156 -582q-106 -201 -244 -327t-272 -126q-97 0 -143 67.5t-46 207.5z" />
<glyph unicode="1" horiz-adv-x="690" d="M51 -20q0 27 31 92q65 131 230.5 421.5t234.5 434.5q7 13 17 39.5t7 29.5q-4 6 -19.5 -2t-36 -23t-39.5 -31t-34 -28.5t-16 -13.5q-63 -46 -180 -147q-48 -43 -84 -43q-14 0 -26.5 11t-12.5 25q0 32 53 74q28 22 135 96.5t148 112.5q60 54 136.5 137t104.5 111 q2 2 22 27.5t39 40t40 14.5q33 0 33 -33q0 -19 -11 -49t-22 -51.5t-27 -50.5l-16 -29q-93 -188 -276 -538t-273 -531q-2 -3 -11.5 -23.5t-14.5 -31t-16.5 -29t-21 -28t-23.5 -17.5t-28 -8q-18 0 -30.5 11t-12.5 30z" />
<glyph unicode="2" horiz-adv-x="784" d="M-244 -39q0 14 11 28.5t20 22.5t30.5 22t22.5 15q334 251 561 516q64 72 64 99q0 16 -35 16q-12 0 -41 -3t-41 -3q-64 0 -112 53t-48 119q0 77 50.5 171t124.5 171t164 129.5t163 52.5q139 0 139 -188q0 -59 -15 -119t-35 -108t-55.5 -105.5t-61.5 -94.5t-68 -91 q-31 -41 -70 -86.5t-66.5 -74.5t-79 -83.5t-75.5 -79.5q-67 -67 -67 -76q0 -4 7 -4.5t20.5 2t28.5 5.5t36 6t39 3q112 0 112 -153q0 -50 -24 -94.5t-58 -44.5q-45 0 -45 59q0 13 8.5 42.5t8.5 41.5q0 61 -56 61q-21 0 -46.5 -9t-54.5 -23t-36 -17q-50 -22 -92 -46t-95.5 -58 t-90.5 -55q-4 -2 -21.5 -13.5t-29.5 -19t-29 -14.5t-29 -7t-22.5 9t-10.5 26zM295 872q0 -56 28 -85t70 -29q25 0 47.5 13t39 32t32.5 37.5t34.5 31.5t37.5 13t43 -15q27 45 62.5 153.5t35.5 160.5q0 90 -66 90q-60 0 -125 -44t-108 -95q-37 -45 -61 -79.5t-47 -87 t-23 -96.5z" />
<glyph unicode="3" horiz-adv-x="800" d="M-12 100q0 22 14.5 39t42.5 17q24 0 41 -20t26.5 -43.5t35 -43.5t63.5 -20q80 0 160.5 79.5t128 185.5t47.5 189q0 46 -33.5 67t-85.5 21q-68 0 -157.5 -32.5t-123.5 -32.5q-41 0 -41 33q0 13 8.5 29t23.5 33t27.5 30t28 27t17.5 16q166 174 303 311l12 10q12 10 18 16 t15.5 15t14 16.5t4.5 12.5q0 16 -41 16q-16 0 -53.5 -4t-43.5 -4q-74 4 -121 23t-88 59q-20 18 -42.5 59.5t-22.5 73.5q0 21 18 38t39 17t35 -14t21 -35t20.5 -45t31 -45t55.5 -35t91 -14q51 0 97.5 13t100.5 34.5t89 30.5q27 6 45 6q39 0 39 -31q0 -21 -21 -46.5t-57 -55.5 t-39 -33q-24 -24 -140.5 -141.5t-182.5 -182.5q-1 -1 -15.5 -15t-25.5 -24.5t-21 -23.5t-10 -19q0 -8 26 -8q21 0 58 8.5t41 8.5q95 0 148 -47t53 -140q0 -142 -114.5 -305t-225.5 -213q-48 -22 -109 -22q-87 0 -156 46.5t-69 114.5z" />
<glyph unicode="4" d="M84 1030q0 43 90 132t193 145l22 11t30 14.5t28.5 11.5t34.5 10.5t30 3.5q57 0 57 -49q0 -52 -55 -148q-141 -252 -176 -338l-12 -35q-13 -35 -19 -59t-6 -43q0 -51 51 -51q32 0 63 10.5t73 33.5t59 30q120 75 203 174.5t157 238.5q3 6 10 22.5t12 26.5t15.5 20t24.5 11 q41 0 41 -43q0 -20 -8 -48t-16 -46l-9 -18q-46 -110 -108.5 -228t-116.5 -194q-28 -45 -82.5 -126.5t-95 -148t-72.5 -133.5q-53 -132 -53 -164q0 -17 26.5 -19t26.5 -16q0 -24 -23 -42t-65 -19q-34 0 -54 31t-20 69q0 57 34.5 138.5t71.5 141t97.5 150t77.5 117.5 q34 43 42 68q3 9 -2 9q-1 0 -4 -1q-43 -15 -106.5 -54t-123.5 -65t-124 -26q-52 0 -81 31.5t-29 86.5q0 43 14 95t43.5 115t50.5 104.5t60.5 111t48.5 86.5q1 3 10.5 23.5t9.5 28.5q0 12 -16 12q-31 -3 -64.5 -28t-63.5 -58.5t-59 -66.5t-59.5 -56t-56.5 -23q-11 0 -19 10 t-8 23z" />
<glyph unicode="5" horiz-adv-x="761" d="M-53 172q0 42 12 86q10 34 29 51t41 17q21 0 35 -14t14 -38q0 -20 -15.5 -60t-15.5 -64q0 -80 96 -80q76 0 161 77t143.5 197.5t58.5 235.5q0 60 -32 88t-85 28q-35 0 -92 -22.5t-78 -22.5q-41 0 -41 64q0 20 10 47t27.5 62t20.5 42q19 41 74.5 157t86.5 189q5 12 15 39 t16 38t20 21.5t33 10.5q15 0 34 -14.5t53.5 -29.5t88.5 -15q124 0 256 102q16 13 44.5 52t57.5 65t64 26q39 0 39 -32q0 -46 -42 -99.5t-106.5 -98t-151 -74t-167.5 -29.5q-24 0 -70.5 15t-62.5 15q-31 0 -100 -162q-12 -26 -99 -206q-4 -8 -12 -22.5t-12 -23.5t-4 -14 q0 -10 14 -10q7 0 45 10q58 21 99 21q77 0 125.5 -52t48.5 -159q0 -97 -43.5 -204.5t-114 -196t-168.5 -147t-197 -58.5q-68 0 -110.5 55.5t-42.5 136.5z" />
<glyph unicode="6" horiz-adv-x="813" d="M-18 242q0 89 43 202t102.5 212.5t150.5 219.5t158 198.5t154 174.5q4 4 20.5 23t25.5 28.5t26.5 26.5t31 26t31 16t33.5 7q11 0 15.5 -5.5t4.5 -22.5q0 -16 -17 -41.5t-36 -45t-41 -41t-25 -24.5q-557 -607 -557 -944q0 -92 35.5 -140.5t93.5 -48.5q57 0 122.5 36.5 t118.5 94t88.5 134t35.5 149.5q0 96 -74 96q-28 0 -52.5 -15.5t-40 -34.5t-37.5 -34.5t-46 -15.5q-13 0 -24 8.5t-11 28.5q0 36 47.5 80.5t81.5 58.5q52 19 88 19q77 0 125.5 -50.5t48.5 -134.5q0 -106 -50.5 -205.5t-124.5 -165.5t-155 -105.5t-145 -39.5q-126 0 -185.5 75 t-59.5 200z" />
<glyph unicode="7" horiz-adv-x="874" d="M100 821q0 21 29 72q6 10 31 53.5t39 69t33 63.5t29 66.5t11 48.5q0 3 0.5 20.5t1 23.5t3 21t6.5 22t10.5 16t17.5 12.5t25 3.5q17 0 45 -17t51 -20q78 -11 238 -4q26 1 108.5 2t114.5 6q15 3 39.5 18t42.5 15q33 0 46 -20.5t13 -47.5q0 -16 -14 -25t-35.5 -19t-32.5 -25 q-30 -41 -112 -178.5t-107 -176.5q-63 -98 -63 -137q0 -16 30.5 -40.5t30.5 -37.5q0 -18 -16.5 -29.5t-36.5 -11.5q-12 0 -37 4.5t-33 3.5q-21 -4 -40 -29t-40 -67t-28 -53q-79 -131 -191 -332q-3 -5 -19 -37t-26 -48.5t-28.5 -34t-36.5 -17.5q-17 0 -30 10t-13 29 q0 15 7 35t15 34.5t17 30.5t10 17q102 190 297 526q4 8 4 14q0 13 -21.5 38.5t-21.5 41.5q0 14 9.5 29.5t23.5 15.5q19 0 39 -7t26 -7q23 0 57 57q115 192 146 238l18 27q17 28 28.5 48t16.5 37q3 9 -12.5 14.5t-43.5 6.5t-54.5 0.5t-57 -1.5t-38.5 -1q-219 0 -242 -21 q-10 -9 -29.5 -51t-41.5 -93.5t-32 -70.5q-1 -2 -13 -26.5t-24 -45.5t-29 -46t-35.5 -39.5t-35.5 -14.5q-15 0 -27 12t-12 29z" />
<glyph unicode="8" horiz-adv-x="817" d="M-39 78q1 41 20 79.5t54.5 74t69.5 63t82.5 64t74.5 59.5q68 53 68 76q0 12 -10 25t-26 28t-22 22q-86 108 -86 265q1 91 36.5 183t94.5 164.5t141.5 118.5t170.5 46q110 0 172.5 -82t62.5 -199q0 -66 -23 -132t-67.5 -128t-84 -107t-95.5 -100q-3 -2 -15.5 -13 t-21.5 -19t-20 -20t-17 -24t-6 -22q0 -15 27.5 -67t27.5 -101q-1 -58 -38 -122t-96 -116.5t-142.5 -86.5t-169.5 -34q-69 0 -115.5 28t-46.5 77zM84 102q0 -28 47 -28q30 0 77 13t74 24t37 16q56 30 101.5 89.5t46.5 111.5q0 92 -47 92q-61 0 -254 -193q-26 -26 -53.5 -63.5 t-28.5 -61.5zM295 838q0 -71 51 -160.5t88 -89.5q26 0 80 51.5t108 124.5t95 161.5t41 153.5q0 79 -33.5 126.5t-99.5 47.5q-50 0 -108 -34t-107 -88.5t-81.5 -133t-33.5 -159.5z" />
<glyph unicode="9" horiz-adv-x="843" d="M-131 31q0 34 20 49.5t37 15.5q19 0 39.5 -14t50 -28.5t70.5 -14.5q25 0 49 9t50 30t41.5 35t45.5 45.5t39 40.5q65 66 132 160.5t130 208.5t102.5 244t39.5 243q0 71 -33.5 114t-101.5 43q-74 0 -142.5 -63t-107.5 -152t-39 -170q0 -65 22 -108t68 -43q32 0 56.5 17 t42.5 33.5t34 16.5q13 0 23 -10t10 -22q0 -46 -68.5 -92t-116.5 -46q-84 0 -131 68.5t-47 153.5t33.5 175.5t90.5 165.5t141 123t176 48q95 0 148.5 -71.5t53.5 -186.5q0 -145 -74.5 -327.5t-170.5 -320.5q-41 -59 -67 -95t-69.5 -90.5t-76 -88.5t-78 -73.5t-86 -62 t-89.5 -37.5t-98 -15q-57 0 -103 24t-46 68z" />
<glyph unicode=":" horiz-adv-x="626" d="M84 80q0 29 17 52.5t42 23.5q24 0 56 -19.5t32 -44.5q0 -54 -29 -83t-61 -29q-57 0 -57 100zM383 676q6 29 27.5 43.5t48.5 9.5q31 -6 48 -27.5t11 -50.5q-10 -49 -35.5 -70t-56.5 -16q-31 7 -40 41t-3 70z" />
<glyph unicode=";" horiz-adv-x="528" d="M-241.5 -379q-10.5 21 18.5 48q3 2 6 5q118 95 190.5 184t108.5 189q-30 55 16 100q35 34 76 31q40 -4 40 -47q0 -29 -21 -72q-71 -142 -164.5 -244t-223.5 -198q-36 -17 -46.5 4zM360 676q6 29 27.5 43.5t48.5 9.5q31 -6 48.5 -27.5t11.5 -50.5q-10 -49 -36 -70t-57 -16 q-31 7 -40 41t-3 70z" />
<glyph unicode="&#x3c;" horiz-adv-x="964" d="M122.5 641q6.5 24 31.5 39q12 7 38 -1t44 -5q12 2 25 6.5t29 12.5t26 13.5t29.5 17.5t25.5 15q47 27 118 78q30 22 102 85t120 91q60 35 69 -20q3 -16 -8 -34t-23 -28t-37 -27.5t-30 -21.5q-16 -12 -48 -37.5t-47 -36.5t-40.5 -30.5t-50.5 -36t-56 -35.5q-5 -3 -28 -16 t-38 -22.5t-30 -23t-16 -24.5q-1 -9 4.5 -19.5t17 -21.5t21 -19t23.5 -18t16 -12q63 -53 196 -139q25 -17 37.5 -26.5t23.5 -27.5t7 -36q-5 -25 -22.5 -34.5t-37 -6.5t-36.5 14q-82 53 -246 192q-14 12 -37 33.5t-40.5 36.5t-31.5 23q-9 5 -29 13.5t-34 16.5t-23 19 q-21 29 -14.5 53z" />
<glyph unicode="=" horiz-adv-x="1024" d="M88 444q-2 19 11.5 31t41 17t50 7t58.5 2t48 1q147 6 262 12q1 0 39.5 3t66.5 4t65.5 -0.5t59 -10.5t23.5 -25q2 -19 -11 -31t-35 -16.5t-48 -6.5t-51 -3h-5h-5h-5q-73 -4 -203 -10.5t-194 -9.5q-108 -7 -139 5q-27 9 -29 31zM170 739q-1 13 4 22.5t17 15t22.5 9.5 t31 5.5t32 2t35.5 1t32 0.5q267 4 379 10q15 1 34 2.5t30.5 2.5t25.5 1.5t22 -1.5t15.5 -5.5t11 -10.5t4.5 -18q1 -13 -3.5 -23.5t-13 -17t-19 -11.5t-25 -8t-28 -4.5t-31 -1.5h-30t-29 0.5t-25.5 0.5q-32 0 -126 -4.5t-141 -4.5q-13 0 -51.5 -2.5t-61.5 -2.5t-52 2 t-44 12.5t-16 27.5z" />
<glyph unicode="&#x3e;" horiz-adv-x="964" d="M156 283q0 18 15 38t24.5 27t33.5 25q124 95 289 196q7 4 23 12t28.5 14.5t25.5 14.5t20.5 16t7.5 15q0 28 -86 88q-80 54 -185 143q-67 52 -67 86q0 16 18 26.5t37 10.5q33 0 84 -57q62 -71 186 -164q17 -13 44.5 -41t41.5 -37q4 -3 24 -10t32 -17t12 -26 q0 -10 -5 -20.5t-11 -18.5t-18.5 -18t-20.5 -16t-23.5 -15t-22 -12.5t-21 -11t-15.5 -7.5q-163 -95 -312 -213q-78 -69 -125 -69q-14 0 -24 11t-10 30z" />
<glyph unicode="?" horiz-adv-x="763" d="M102 57q0 29 20.5 64t53.5 65q28 25 51 25q39 0 39 -74q0 -135 -80 -135q-84 0 -84 55zM360 942q0 61 56.5 162t136.5 196q7 8 34.5 41.5t40 48t40.5 41t49 39t51.5 23t60.5 10.5q68 0 68 -78q0 -26 -8 -61t-16.5 -58.5t-21.5 -57t-15 -38.5q-120 -306 -279 -583 q0 -1 -7 -13t-11 -18t-13 -18t-16 -18t-17 -11.5t-20 -5.5q-17 0 -36 14t-19 31q0 24 18 59.5t44 72.5t28 40q10 18 52 94.5t58 107.5t48 92t56 112.5t48 105.5q29 72 29 92q0 10 -5 17.5t-14 7.5q-28 0 -104 -76q-83 -83 -150 -187t-67 -172q0 -16 7.5 -26.5t16 -15t16 -12 t7.5 -17.5q0 -22 -19 -39t-36 -17q-91 0 -91 115z" />
<glyph unicode="@" horiz-adv-x="1652" d="M-68 186q0 175 99 398q97 214 254 370.5t372 231.5q150 53 281 53q166 0 303.5 -62t181.5 -167q47 -106 47 -254q0 -176 -83.5 -348.5t-229.5 -278.5q-4 -3 -22 -16t-23 -16.5t-21.5 -14.5t-23.5 -15t-22.5 -13t-25 -12.5t-24.5 -9.5t-27.5 -8t-27 -4t-29.5 -2 q-88 0 -123 62q-3 5 -7.5 26t-10.5 38.5t-14 21.5q-13 4 -35 -10.5t-48 -39t-32 -28.5q-83 -70 -164 -70q-70 0 -108.5 53t-38.5 128q0 103 61 201t160 200q81 81 177 134.5t183 49.5q23 -1 47.5 -15.5t38.5 -16.5q12 -2 34 2t34 5t27 -11q7 -8 7.5 -22t-5 -31t-13 -33.5 t-19 -36.5t-19.5 -33.5t-19 -30.5t-14 -22q-20 -37 -63.5 -98.5t-55.5 -86.5q-11 -27 -22.5 -74t-11.5 -98.5t22 -64.5q38 -23 127 16q135 55 254 258q110 189 110 369q0 189 -124.5 293t-330.5 104q-112 0 -205 -36.5t-184 -98.5q-318 -218 -434 -614q-39 -136 -39 -261 q0 -95 25.5 -185.5t85 -172.5t145.5 -127q103 -53 242 -53q95 0 197 29q268 75 499 286q65 55 70 62q1 1 9 8t12.5 10.5t12 8.5t14 7.5t13.5 2.5q11 0 21 -9t10 -22q0 -19 -20.5 -47t-36 -42.5t-27.5 -23.5q-11 -11 -56 -48.5t-67 -53.5q-132 -97 -282 -164 q-215 -96 -400 -96q-191 0 -324.5 84t-198.5 232.5t-65 352.5zM427.5 178.5q-0.5 -39.5 21.5 -53.5q32 -22 80.5 -1t82.5 50q47 40 104 103t89 118q10 17 33 71.5t32 72.5q4 6 14.5 24t17.5 30.5t15 30t9 29.5t-2.5 22.5t-18 14t-39.5 0.5q-32 -5 -66.5 -22t-50 -28.5 t-51.5 -39.5q-79 -63 -134.5 -129.5t-98.5 -153.5q-14 -28 -25.5 -63.5t-12 -75z" />
<glyph unicode="A" horiz-adv-x="1175" d="M-49 176q0 113 55.5 265t147 300.5t224 282t273.5 203.5q39 20 96 34.5t93 14.5q164 0 164 -178q0 -98 -58.5 -201.5t-138.5 -183.5q-2 -2 -12 -12.5t-16.5 -17t-18.5 -16.5t-21 -16.5t-20.5 -11t-20.5 -4.5q-11 0 -20.5 6.5t-9.5 15.5q0 15 24 45t58 69t67.5 85 t57.5 106t24 119q0 40 -14.5 69.5t-42.5 29.5q-78 0 -158.5 -37.5t-149.5 -100t-121 -123t-98 -126.5q-104 -150 -176.5 -318.5t-72.5 -308.5q0 -115 84 -115q71 0 175.5 59.5t186.5 133.5q187 167 328 338t260 387q27 48 63 83t66 35q13 0 28 -12t15 -33q0 -15 -8 -35.5 t-21 -42t-24 -38t-24.5 -33.5t-14.5 -19q-73 -100 -131 -188q-56 -82 -91 -137.5t-82 -137.5t-70.5 -150t-23.5 -120q0 -63 37 -63q7 0 24 5t29 5q19 0 19 -25q0 -38 -35 -59q-30 -18 -61 -18q-44 0 -75.5 35.5t-31.5 93.5q0 62 14 114q9 30 9 43q0 19 -13 19t-28 -15 q-71 -71 -133.5 -125.5t-135.5 -107t-144 -81t-134 -28.5q-83 0 -127.5 68.5t-44.5 173.5z" />
<glyph unicode="B" horiz-adv-x="1196" d="M-39 -98q0 41 45 131q44 89 89 172.5t107.5 189.5t90 152t111.5 182.5t98 159.5q15 24 64.5 97t80 127.5t53.5 117.5q9 25 -25 -8q-33 -33 -63 -72q-205 -255 -432 -641q-2 -3 -10.5 -17.5t-12.5 -20.5t-12.5 -18t-14.5 -17.5t-15 -10t-17 -4.5q-19 0 -28 11t-9 26 q0 14 7 34t14.5 34.5t16.5 30.5t10 17q121 203 258.5 385.5t324.5 403.5l31 42q31 41 55.5 62t48.5 21q22 0 34.5 -17.5t12.5 -44.5q0 -58 -61 -184q-40 -80 -88 -166t-82.5 -141.5t-92 -146.5t-83.5 -134q-257 -416 -373 -712q-33 -86 -76 -86q-25 0 -41 13t-16 32zM440 43 q0 41 25.5 84t64.5 43q48 0 48 -49q0 -12 -4.5 -36t-4.5 -34t2 -14q18 -6 37 -6q57 0 137 71q148 126 222 297q43 101 43 156q0 70 -72 70q-34 0 -121 -21q-2 -1 -17.5 -7t-30.5 -12t-35.5 -11t-35.5 -5q-43 0 -43 33q0 16 17.5 34.5t37 31.5t44.5 28.5t30 18.5 q78 60 130 119.5t102 144.5q12 22 21.5 40.5t26 56.5t15 60.5t-23.5 22.5q-34 0 -72 -21.5t-68 -49t-69.5 -77.5t-62.5 -83t-60 -89q-3 -5 -5 -8t-5.5 -7.5t-5.5 -8.5q-7 -10 -26.5 -48t-37.5 -60.5t-37 -22.5q-35 0 -35 43q0 42 53.5 126t110.5 155q207 254 334 254 q50 0 80.5 -36.5t30.5 -90.5q0 -37 -8.5 -71t-19 -59.5t-38.5 -64.5t-47.5 -63t-65.5 -79t-75 -91q108 -17 140 -45t32 -107q0 -97 -39.5 -197t-99.5 -176.5t-129 -138t-131 -94.5t-101 -33q-158 0 -158 127z" />
<glyph unicode="C" horiz-adv-x="724" d="M-45 346q0 146 47.5 311.5t110.5 264.5q55 86 101.5 151t115.5 142t135 126.5t151 83t172 33.5q83 0 122.5 -50t39.5 -134q0 -92 -42 -194.5t-112.5 -174t-144.5 -71.5q-53 0 -73 48q-13 30 -13 66q0 21 4 45q-50 -33 -101 -124.5t-67 -192.5q-1 -6 -3 -18.5t-3 -18 t-3.5 -15t-5.5 -14t-7 -9.5t-10.5 -7t-14.5 -2q-26 0 -26 45q0 47 24 125t39 108q52 102 98 163.5t119 113.5q53 37 88 37q10 0 19.5 -7.5t9.5 -19.5q0 -18 -37 -93t-37 -122q0 -24 11 -24q41 0 87.5 61.5t76.5 147.5t30 155q0 98 -98 98q-100 0 -248 -125 q-193 -160 -320 -410t-127 -478q0 -115 40.5 -189t119.5 -74q56 0 118 22t128.5 65.5t94.5 64t79 61.5q5 4 22.5 22.5t33.5 30.5t30 13q13 0 25 -15t12 -28q0 -22 -73.5 -87t-171 -132t-159.5 -92q-76 -31 -163 -31q-118 0 -181 98t-63 250z" />
<glyph unicode="D" horiz-adv-x="1406" d="M-123 98q0 84 47 190t101 179q29 41 53 70.5t59.5 65.5t73.5 55.5t76 19.5q44 0 81.5 -30.5t61.5 -75t42.5 -89t34.5 -77t28 -35.5q15 -3 31.5 11.5t40.5 46.5t28 36q341 402 610 838q-6 6 -14 6q-26 0 -75.5 -58.5t-96.5 -129t-96.5 -129t-75.5 -58.5q-16 0 -25.5 10.5 t-9.5 22.5q0 28 20 58.5t60 71t43 44.5q11 13 73.5 83.5t98.5 118.5q-22 11 -57 11q-24 0 -52 -5t-60.5 -13.5t-43.5 -10.5q-78 -16 -155 -42t-140 -52.5t-136 -69t-122.5 -74t-121 -84.5t-111 -83.5t-111.5 -88.5q-2 -1 -26 -23t-40.5 -32t-31.5 -10q-14 0 -33 18t-19 41 q0 13 6.5 26.5t20 26.5t24.5 22t29.5 22t24.5 18q103 79 184 136t202 128.5t230.5 117t247.5 78.5t274 36q9 0 28 -1t28 -1q34 0 74.5 32.5t76.5 79t71.5 93.5t71.5 79.5t64 32.5q41 0 41 -45q0 -31 -17 -73.5t-40 -73.5q-5 -8 -44 -54t-65 -86t-26 -65q0 -20 15.5 -50 t16.5 -32q35 -98 35 -213q0 -144 -48.5 -289t-127.5 -305q-97 -203 -242 -336q-31 -29 -51 -45.5t-54 -39t-71 -33.5t-78 -11t-74.5 9.5t-61 30.5t-44.5 39t-43 50q-45 53 -63 53q-10 -9 -49.5 -47t-57.5 -51q-182 -141 -338 -141q-180 0 -180 155zM-29 141 q0 -57 20.5 -83.5t65.5 -26.5q51 0 103.5 21t80 40t78.5 58q85 64 127 139q-9 18 -25.5 54t-27 58.5t-27.5 52t-32 46t-35 29t-41 12.5q-37 0 -78 -35q-71 -60 -140 -168.5t-69 -196.5zM664 152q52 -52 108 -52q58 0 123 41t122.5 107t104 133.5t82.5 136.5 q79 152 123.5 287t44.5 278q0 144 -47 144q-5 0 -19 -18.5t-39 -57t-28 -43.5q-35 -50 -116.5 -171t-130 -190t-129.5 -173.5t-161 -194.5q-32 -35 -64 -81q-31 -44 -30 -57q-1 -33 56 -89z" />
<glyph unicode="E" horiz-adv-x="866" d="M-57 270q0 131 74.5 256t197.5 183q15 8 64.5 27t80.5 34.5t31 26.5q0 12 -29.5 51.5t-39.5 62.5q-33 73 -33 152q0 112 67 207.5t176 150t232 54.5q119 0 196.5 -68t77.5 -180q0 -125 -80 -218.5t-184 -93.5q-180 0 -180 201l-2 4q-14 0 -62.5 -97.5t-48.5 -145.5 q0 -20 19.5 -37t43 -26.5t43 -25.5t19.5 -36q0 -27 -34.5 -35.5t-77.5 -11t-54 -11.5q-13 -28 -18 -72q-5 -40 -5 -75q1 -3 1 -7v-20q0 -28 -2 -56q-2 -36 -12.5 -58.5t-34.5 -22.5q-19 3 -24 24.5t-5 61.5q0 29 2 57t3.5 41t7 53t7.5 56q-50 -10 -103.5 -42.5t-101 -81.5 t-78 -118.5t-30.5 -142.5q0 -99 67 -163.5t173 -64.5q124 0 271.5 86t281.5 220q14 14 30 14q15 0 26 -13t11 -30t-10 -27q-354 -354 -623 -354q-164 0 -247.5 88.5t-83.5 222.5zM383 1032q0 -65 33 -94q55 131 116 225q1 1 7 10.5t10 15.5t12.5 18t15 20t16 20t17 20 t17.5 17t18.5 14.5t17.5 9t17 3.5q17 0 26 -10.5t9 -22.5q0 -26 -21.5 -82t-21.5 -88q0 -49 31 -78t73 -29q71 0 117.5 73.5t46.5 152.5q0 78 -49 121t-133 43q-149 0 -262 -105t-113 -254z" />
<glyph unicode="F" horiz-adv-x="694" d="M-45 -86q0 35 22 104q28 82 60.5 145.5t87.5 153.5q6 10 25.5 39t32.5 53t24 56q1 4 -1.5 6t-8 2.5t-11 0.5t-13.5 -0.5t-11 -0.5q-12 0 -37 -3t-35 -3q-41 0 -41 37q0 32 45 42q41 9 96 8h12h17q48 0 64 5q49 61 151 242q-12 -7 -47.5 -34.5t-67.5 -51t-75.5 -43 t-79.5 -19.5q-62 0 -98.5 53t-36.5 136q0 94 40.5 167t107 118t161 73.5t191.5 39.5t210 11q513 0 584 86q5 7 17.5 31.5t26.5 39.5t34 15q27 0 43 -20t16 -43q0 -31 -15 -56.5t-42.5 -42.5t-58 -29.5t-71 -21t-71.5 -12.5t-69 -8q-76 -7 -179 -12t-180.5 -7t-168.5 -9 t-157 -18.5t-131 -36t-105.5 -60.5t-65.5 -92.5t-25 -131.5q0 -36 17.5 -57t49.5 -21q9 0 19 2t18.5 5t19.5 9.5t18.5 10.5t19.5 13.5t18 14t18.5 15.5t16.5 14.5t16.5 15t14.5 13.5q15 13 49 63t68.5 85.5t64.5 35.5q17 0 24 -12q16 8 42 51t47 43q18 0 27 -10t9 -22 q0 -35 -45 -107q-93 -122 -254 -428q36 -8 144 -8q49 0 94 10q7 1 40 12t50 11q35 0 35 -39q0 -27 -28 -45.5t-69.5 -26t-67.5 -10t-42 -2.5q-27 0 -80.5 6t-77.5 6q-12 0 -21 -0.5t-18 -4.5t-15 -6t-14.5 -10.5t-12.5 -13t-14 -19t-15 -22t-18 -28.5t-21 -33 q-121 -182 -164 -332q-3 -10 -8 -29.5t-7.5 -29.5t-8 -25.5t-10.5 -23t-12.5 -16t-17.5 -12t-22 -3.5q-43 0 -43 51z" />
<glyph unicode="G" horiz-adv-x="854" d="M-244 -248q0 13 4 41q11 62 64 62q11 0 19 -4.5t11.5 -10t5.5 -16.5t2 -18.5t-0.5 -22.5t-0.5 -21q0 -32 11 -49.5t46 -17.5q77 0 179 83t188 197t152 225t87 175q3 12 0 12q-8 0 -56 -47.5t-107 -105t-134.5 -105t-130.5 -47.5q-74 0 -113.5 61t-39.5 154q0 214 126 483 t293 422q61 56 151 97.5t177 41.5q65 0 108.5 -47t43.5 -108q0 -69 -31.5 -139t-76.5 -118.5t-93 -79t-82 -30.5q-61 0 -61 29q0 20 23 38.5t59 40t53 38.5q40 40 76 106t36 115q0 63 -69 63q-118 0 -229 -95.5t-205 -252.5q-86 -147 -137.5 -309t-51.5 -281q0 -112 78 -112 q80 0 199 110q116 105 222 231.5t175 243.5q44 74 98 74q18 0 25.5 -14.5t7.5 -30.5q0 -24 -10.5 -48t-32 -56.5t-27.5 -42.5q-33 -60 -110.5 -209.5t-122.5 -231t-120 -194t-150 -193.5q-210 -225 -377 -225q-68 0 -110 37t-42 102z" />
<glyph unicode="H" horiz-adv-x="1298" d="M-88 186q0 76 38.5 148t90.5 72q18 0 31.5 -12.5t13.5 -31.5q0 -22 -34 -81t-34 -103t19.5 -64t42.5 -20q71 0 162 193q49 104 113 269t91 230q6 16 33 76t46.5 108t19.5 60q0 11 -12.5 25t-31.5 29.5t-26 23.5q-23 24 -60.5 70t-60 72t-58.5 47.5t-73 21.5 q-40 0 -68 -22.5t-28 -65.5q0 -52 21 -79.5t75 -27.5q12 0 37.5 6.5t40.5 6.5q28 0 42.5 -15.5t14.5 -38.5q0 -31 -26.5 -55t-75.5 -24q-91 0 -156 54.5t-65 166.5q0 88 64 150.5t145 62.5q70 0 115.5 -39.5t111.5 -134.5q2 -3 13.5 -21.5t20.5 -31.5t22.5 -29t27.5 -25 t27 -10q11 -1 34 38.5t54 96t68 113t85.5 96t96.5 39.5q28 0 45.5 -17t22.5 -36.5t5 -40.5q0 -9 -1 -18.5t-2.5 -17.5t-5 -18.5t-5.5 -17.5t-7 -18t-7 -16.5t-8 -16.5t-8 -14.5t-8 -15t-7 -13.5q-69 -134 -168 -185q-15 -8 -45 -17.5t-41 -14.5q-10 -4 -27 -38.5t-42 -97 t-31 -75.5q61 22 98 22q36 0 62 -17.5t26 -53.5q0 -26 -16.5 -99.5t-16.5 -103.5q0 -60 53 -60q48 0 99.5 38t83.5 75q14 15 28.5 38.5t22 37.5t25 52t22.5 48q34 74 87 167.5t118 179t100 85.5q45 0 45 -41q0 -17 -7.5 -41.5t-15.5 -42t-18.5 -38.5l-11.5 -23 q-41 -93 -80.5 -157.5t-103.5 -147.5q-13 -17 -40.5 -52t-49 -63.5t-33.5 -46.5q-19 -30 -37.5 -69t-42.5 -97.5t-35 -83.5q-3 -6 -20.5 -44t-25 -57.5t-16.5 -55t-10 -66.5q0 -45 33 -45q26 0 81 37t120.5 96.5t103 95t70.5 68.5q11 8 27 8q18 0 31.5 -12t13.5 -27 q0 -9 -35 -48.5t-91.5 -92t-118.5 -103t-125 -85.5t-103 -35q-49 0 -82 28.5t-33 83.5q0 59 21 125.5t53.5 142.5t44.5 115q-79 -37 -121 -37q-47 0 -86 32.5t-39 84.5q0 29 12 87t12 85q0 41 -18 41q-8 0 -35 -13.5t-43 -13.5t-22 15q-20 -43 -43 -112t-35 -101 q-94 -239 -151 -341q-114 -202 -224 -202q-89 0 -132.5 52.5t-43.5 131.5zM735 1171q53 20 102 95t58 129q-36 -22 -86 -90t-74 -134z" />
<glyph unicode="I" horiz-adv-x="958" d="M-100 160q0 83 32.5 160t81.5 98q43 16 76 16q44 0 87.5 -23t72.5 -51t62.5 -60.5t52.5 -43.5q106 76 307 449q44 81 209 370q-22 -16 -92 -78.5t-124.5 -100.5t-89.5 -38q-12 0 -19 11.5t-7 23.5q0 25 27.5 51.5t65.5 49.5t92.5 65.5t94.5 87.5q18 21 49 62.5t51 66 t49 45t58 20.5q30 0 41 -16q19 -25 19 -55q0 -25 -12.5 -56.5t-26.5 -55.5t-39 -63.5t-37 -60.5q-14 -27 -84 -150.5t-174.5 -299t-163.5 -256.5q-8 -12 -40.5 -52.5t-55.5 -72.5t-23 -43q0 -16 28.5 -39t53.5 -23q57 0 147 57t153.5 113.5t101.5 98.5q18 18 37 18 q17 0 27.5 -12.5t10.5 -30.5q0 -19 -14 -33q-36 -36 -89 -80.5t-123 -96t-143.5 -86t-125.5 -34.5q-28 0 -58 21.5t-51.5 43t-27.5 21.5q-15 0 -35.5 -11.5t-44.5 -29.5t-35 -24q-88 -53 -182 -53q-75 0 -122.5 44t-47.5 136zM-12 152q0 -47 23.5 -70t62.5 -23q47 0 112 35 q26 14 60.5 42.5t34.5 43.5q-30 49 -92.5 105.5t-104.5 56.5q-37 0 -66.5 -62.5t-29.5 -127.5z" />
<glyph unicode="J" horiz-adv-x="851" d="M-223 -260q0 58 25 109.5t70.5 90.5t96.5 70t118 56t119 40.5t113 30.5q12 3 15 13q148 412 268 628q66 122 66 154q0 11 -6 14q-48 20 -92.5 71.5t-72 100.5t-62 88t-66.5 39q-52 0 -83.5 -46.5t-31.5 -102.5q0 -90 78 -90q9 0 28.5 4t28.5 4q18 0 29.5 -13t11.5 -36 q0 -30 -30 -44t-72 -14q-64 0 -108 51.5t-44 133.5q0 102 56 179t133 77q70 0 115.5 -38t88.5 -112q31 -54 79.5 -110t78.5 -56q15 0 39 31t54 78.5t40 60.5q138 178 254 178q57 0 57 -55q0 -41 -30.5 -102t-55.5 -93t-75 -81t-84 -70q-21 -13 -61 -26.5t-56 -22.5 q-8 -5 -16.5 -13.5t-17.5 -21t-16.5 -23.5t-17 -28t-15 -27t-14.5 -27.5t-12 -23.5q-29 -57 -54 -113t-53.5 -126.5t-40 -100t-44 -117t-35.5 -94.5q-1 -2 -3 -8t-3.5 -12t-1.5 -11q0 -12 16 -8q227 62 342 197q13 8 29 8q17 0 27 -10t10 -25q0 -20 -15 -35 q-63 -62 -142 -107.5t-140.5 -68t-147.5 -45.5q-21 -8 -26 -24q-54 -124 -92 -191q-84 -147 -166 -221t-195 -74q-76 0 -132 43t-56 117zM-111 -244q0 -41 33 -62.5t70 -21.5q33 0 64.5 15t60 47.5t50.5 62.5t47.5 81.5t38.5 80.5t36 82q2 5 0 6t-8 0q-58 -15 -116 -37.5 t-125 -58t-109 -86.5t-42 -109zM881 1053q37 6 103.5 76t66.5 96q0 8 -11 8q-27 0 -85 -68t-74 -112z" />
<glyph unicode="K" horiz-adv-x="1288" d="M-16 1004q0 39 6 88.5t22 108.5t39.5 107t62 80.5t85.5 32.5q39 0 78.5 -16.5t74.5 -39.5t74 -46.5t94 -40t117 -16.5q26 0 48 21t37 46.5t42.5 46.5t62.5 21q33 0 50.5 -15.5t17.5 -38.5q0 -26 -7.5 -47.5t-16 -34.5t-27.5 -26.5t-30.5 -19t-38 -17t-36.5 -16.5 q-16 -8 -33.5 -30t-28 -42.5t-26.5 -54t-22 -45.5q-10 -20 -70 -137.5t-84.5 -169.5t-63 -145t-59.5 -167q9 0 15.5 1.5t13 8t9 9.5t10 14.5t10.5 15.5q66 86 200.5 275.5t244.5 331t212 243.5q84 84 125 86q17 0 26 -12t9 -29q0 -18 -8 -42.5t-22 -54.5t-15 -32 q-16 -39 -46 -105t-47.5 -115t-33.5 -114q-33 -141 -80 -141q-43 0 -43 51q0 16 5 38.5t10.5 39t13 37.5t8.5 25q10 27 50 104.5t46 108.5q-24 -1 -50 -25.5t-58.5 -70t-36.5 -50.5q-40 -49 -99 -131q-11 -16 -105.5 -139.5t-133.5 -190.5q128 78 209 78q43 0 66.5 -28.5 t23.5 -79.5q0 -76 -54.5 -244.5t-54.5 -206.5q0 -37 27 -37q26 0 64 18.5t69.5 40.5t83 66.5t78.5 70t82 77.5q12 9 32.5 36t41 46.5t42.5 19.5q9 0 22 -10t13 -25q0 -11 -6.5 -23.5t-19.5 -27.5t-22.5 -25.5t-27 -27t-22.5 -21.5q-13 -13 -55.5 -56.5t-64.5 -64.5 t-63.5 -59.5t-72 -59.5t-69.5 -44.5t-76.5 -34t-73.5 -10.5q-92 0 -92 116q0 62 26 161.5t52 187t26 120.5q0 31 -18 31q-34 0 -71 -16t-57.5 -31.5t-58 -48.5t-47.5 -41q-7 -6 -39 -6q-23 0 -64 -58.5t-91 -147.5t-60 -104q-2 -3 -8 -13l-9 -15t-9 -13.5t-11 -13.5 t-11.5 -10t-13.5 -7.5t-14 -2.5q-37 0 -37 47q0 53 43 179.5t102 277.5t75 204q-8 -4 -25 -11.5t-23 -10.5t-19 -8.5t-19 -7.5t-16 -5.5t-17 -4.5t-15.5 -2t-17.5 -1q-77 0 -131 53t-77 132.5t-23 177.5zM80 985q0 -106 43.5 -175t101.5 -69q39 0 74.5 34t67.5 78.5t53 57.5 q1 0 3.5 1t4.5 1q3 0 4 -0.5t1.5 -2.5t0.5 -4t2 -5.5t6 -7.5q17 31 47 92t55 109t48 82q-24 -2 -48 -2q-43 0 -81 8q-59 13 -96.5 37t-66.5 49t-54 43t-45 18q-54 0 -87.5 -101t-33.5 -243z" />
<glyph unicode="L" horiz-adv-x="1067" d="M-117 121q0 77 33.5 156t89 131.5t113.5 52.5q27 0 55 -18.5t49 -42.5t39 -47.5t32 -35t21 -2.5q8 9 21 34.5t30 61.5t29 58q66 128 66 137q0 14 -27 0q-54 -28 -100 -28q-33 0 -33 34q0 16 14.5 30.5t30.5 22.5t36.5 16.5t23.5 10.5q11 6 33.5 16t35 16t28 16t25.5 22 q12 14 27 37t31.5 55t27.5 54t28.5 58t21.5 44q257 532 489 532q62 0 97.5 -32.5t35.5 -96.5q0 -65 -25 -132.5t-68 -126t-84.5 -102.5t-88.5 -85q-113 -98 -303 -217q-8 -5 -28 -17t-31 -18.5t-24 -16.5t-20 -18q-13 -13 -39 -72q-81 -162 -167 -319q-3 -7 -9.5 -18.5 t-10 -18t-7.5 -15t-5.5 -14t-0.5 -8.5q40 -69 99 -113.5t118 -44.5q39 0 83 16.5t80 39.5t80.5 61.5t73.5 67t71.5 72t61.5 61.5q13 10 25 10q16 0 29.5 -12t13.5 -29t-16 -33q-153 -143 -193 -176q-196 -170 -317 -170q-105 0 -197 78q-6 5 -28 26.5t-37 32.5t-25 11 q-20 0 -39.5 -17.5t-39 -42.5t-30.5 -33q-80 -55 -161 -55q-62 0 -103 37t-41 119zM-29 127q0 -76 62 -76q56 0 113.5 45.5t86.5 116.5q-82 160 -122 160q-24 0 -54.5 -33.5t-48.5 -69.5q-37 -68 -37 -143zM715 881q0 -13 12 -13q18 0 80 37q225 142 336 332q17 28 35 76.5 t18 83.5q0 51 -43 51q-40 0 -82.5 -27t-82.5 -77t-63 -83t-53 -83l-35 -56t-44.5 -72t-36 -63t-31.5 -64.5t-10 -41.5z" />
<glyph unicode="M" horiz-adv-x="1935" d="M-98 172q0 96 48.5 178t117.5 82q23 0 36 -13t13 -28q0 -25 -17 -56.5t-37.5 -57t-37.5 -58t-17 -59.5q0 -82 58 -82q11 0 22.5 3t24 10.5t23 14t25 19t22.5 19.5t22.5 22.5t19.5 20.5t19.5 21t15.5 17q125 133 265.5 308.5t280.5 353t253 301.5q68 74 116.5 123t122 110 t138.5 95q12 6 26 6q23 0 36 -14t13 -38q0 -26 -23 -75.5t-24 -51.5q-39 -105 -129.5 -355.5t-144.5 -389.5q-8 -21 -28.5 -68.5t-32 -76.5t-29 -79.5t-31.5 -103.5q-7 -25 3 -22q15 6 107 132q33 45 48 64q209 264 477 547q92 100 145 168q4 5 29 40t43 53t33 18 q35 0 35 -49q0 -28 -25 -111q-17 -60 -36 -116t-46 -115.5t-45 -98.5t-55 -104.5t-51.5 -91.5t-59 -100t-55.5 -93l-26 -39t-48 -74.5t-50.5 -87t-43 -95.5t-16.5 -81q0 -46 32 -65q9 -6 9 -15q0 -11 -12.5 -20.5t-30.5 -9.5q-39 0 -68 30t-29 78t12 96t43.5 110t51 95.5 t71.5 115t68 106.5q14 22 46.5 73.5t48 78t40.5 71.5t45.5 91t40.5 101q4 13 0 13q-15 0 -96 -93q-90 -97 -186 -209.5t-156.5 -187.5t-177.5 -222.5t-174 -217.5q-4 -5 -28.5 -41t-47 -57t-43.5 -21q-39 0 -39 45q0 50 20 127q68 221 229 609t226 597q8 27 -4 27 q-5 0 -12.5 -4.5t-17.5 -13t-18 -15.5t-18.5 -16.5t-13.5 -12.5q-119 -112 -246.5 -265.5t-222.5 -284t-227.5 -294t-257.5 -288.5q-47 -47 -118.5 -89t-123.5 -42q-73 0 -109 50.5t-36 127.5z" />
<glyph unicode="N" horiz-adv-x="1275" d="M-53 102q0 40 25 94t59 54q20 0 20 -25q0 -17 -16.5 -48t-16.5 -50q0 -22 15.5 -34.5t40.5 -12.5q48 0 138.5 120t187 293t166 308.5t110.5 222.5q0 1 6 14.5t10.5 23.5t12.5 25t15 25t15.5 17.5t16.5 7.5q20 0 20 -27q0 -12 -4 -29t-11 -37t-12 -34.5t-13 -33t-9 -20.5 q-44 -102 -96.5 -212.5t-130 -254.5t-148.5 -254t-147.5 -187t-132.5 -77t-88.5 38t-32.5 93zM313 860q0 102 42 213t110.5 200.5t164 147.5t193.5 58q133 0 133 -342q0 -167 -34.5 -449t-34.5 -301q23 45 68.5 137t72 143.5t67 125.5t82.5 138t89 126q43 56 79 99.5 t88 99.5t103 96t110 76.5t124 55.5t131 19q74 0 120.5 -42t46.5 -122q0 -71 -23 -130.5t-65 -59.5q-41 0 -41 37q0 20 23 76t23 79q0 36 -33 55t-70 19q-54 0 -118 -26t-113 -58q-74 -48 -141 -110.5t-126 -140t-102 -142t-98 -156.5q-220 -370 -336 -684q-1 -4 -10.5 -34 t-19 -56t-23 -56.5t-30.5 -48.5t-34 -18q-39 0 -39 70q0 23 3.5 51.5t10 58t12 52.5t12 47.5t7.5 28.5q16 84 37 205t48.5 350t27.5 378q0 267 -82 267q-72 0 -141 -50.5t-115 -124t-74 -155t-28 -145.5q0 -14 2 -39t2 -37q0 -34 -13.5 -58t-40.5 -24q-25 0 -36 31.5 t-11 68.5z" />
<glyph unicode="O" horiz-adv-x="915" d="M-39 315q0 140 33.5 279t92 260.5t128 223.5t152.5 194q92 103 202 175.5t201 72.5q49 0 73.5 -15.5t24.5 -58.5q0 -14 -8 -45t-8 -53q0 -20 42 -55t52 -54q49 -91 49 -205q0 -108 -40.5 -233.5t-107.5 -243t-156 -227.5t-182.5 -191.5t-191 -130.5t-178.5 -49 q-50 0 -87 38t-55.5 96.5t-27 114.5t-8.5 107zM78 311q0 -233 98 -233q71 0 154 47t161.5 124.5t152 180t128.5 209.5t88 217.5t33 200.5q0 53 -16.5 101t-51.5 48q-15 0 -30 -30t-31.5 -83t-18.5 -57q-45 -107 -85 -183.5t-91 -145.5q-4 -5 -20.5 -30.5t-28.5 -41.5 t-31.5 -31.5t-37.5 -15.5q-43 0 -43 86q0 217 67 389.5t182 234.5q5 3 40 16t52 27t17 35q0 41 -39 41q-37 0 -125 -61q-79 -54 -174 -164q-165 -190 -257.5 -419.5t-92.5 -461.5zM528 881q0 -21 2 -29q17 14 33.5 35.5t25.5 36t27 47t23 41.5q78 143 78 194q0 4 -7 7.5 t-12 3.5q-45 0 -86.5 -64t-62.5 -141t-21 -131z" />
<glyph unicode="P" horiz-adv-x="888" d="M14 2q0 66 19 117q45 137 118.5 293t123 245.5t159 275.5t139.5 238q80 142 80 176q0 11 -8 11q-16 1 -42.5 -32t-50.5 -73t-54 -73t-52 -33q-30 0 -30 24q0 16 34.5 61.5t34.5 59.5q0 2 -2 2q-8 0 -51 -36q-3 -2 -4 -3q-39 -35 -78.5 -85.5t-52.5 -84.5 q-5 -12 -13.5 -37t-15 -41.5t-16.5 -35t-20.5 -28t-22.5 -9.5q-39 0 -39 45q0 42 33 111q72 144 159 225t205 115q9 4 62.5 51t83.5 47q25 0 39 -16t19.5 -35t8.5 -21q16 -11 63 -21t48 -10q49 -18 87.5 -40.5t72 -57.5t51.5 -86t18 -115q0 -92 -45 -194t-114 -183 t-157.5 -134.5t-170.5 -53.5q-68 0 -108 40t-40 101q0 65 48.5 120t109.5 55q64 0 64 -37q0 -24 -21.5 -37t-46.5 -19t-46.5 -29t-21.5 -63q0 -19 15 -33t45 -14q28 0 74.5 23.5t99.5 68t99.5 100.5t77 129.5t30.5 145.5q0 109 -65 173.5t-159 64.5q-14 0 -32 -26.5 t-43.5 -80.5t-26.5 -55q-44 -81 -126.5 -225.5t-135 -240.5t-114.5 -217t-102.5 -225.5t-60.5 -193.5q-2 -7 -6 -27t-7 -31t-8 -29t-11 -29t-14 -22t-18.5 -16.5t-23.5 -5.5q-45 0 -45 76z" />
<glyph unicode="Q" horiz-adv-x="907" d="M-164 96q0 77 57.5 180t139.5 177.5t145 74.5q37 0 75.5 -30t65 -66t55.5 -66t48 -30q44 0 141 135q5 7 38 53.5t41 58t34 50t38 59t30 53t32 62.5q30 63 52 151t22 168q0 100 -40.5 161t-131.5 61q-97 0 -198.5 -64.5t-167.5 -162t-66 -189.5q0 -51 23.5 -86t70.5 -35 q39 0 64.5 21.5t37.5 52.5t21 61.5t25 52t40 21.5q25 0 38.5 -15.5t13.5 -41.5q0 -46 -33 -102.5t-91 -99t-120 -42.5q-89 0 -134.5 72.5t-45.5 175.5q0 95 49 183.5t125.5 150.5t170 99.5t181.5 37.5q121 0 196.5 -78.5t75.5 -239.5q0 -98 -25.5 -196t-61 -173t-93 -158.5 t-100.5 -135t-103 -117.5q-8 -9 -35.5 -35t-41.5 -44t-11 -32q2 -16 38.5 -60t96 -100t127 -108t143.5 -87.5t134 -35.5q26 0 71 22.5t72 22.5q29 0 29 -24q0 -42 -82 -84q-65 -33 -133 -33q-74 0 -151.5 35.5t-144 91.5t-120.5 111t-104 110t-70 72q-19 0 -52.5 -23.5 t-68.5 -53.5t-45 -36q-148 -90 -231 -90q-68 0 -112 39t-44 98zM-55 147q0 -35 17.5 -58t53.5 -23q38 0 87 19t75 34q93 51 150 129q-85 131 -132 160q-17 10 -30 10q-15 0 -27 -6q-73 -39 -133.5 -117.5t-60.5 -147.5z" />
<glyph unicode="R" horiz-adv-x="1329" d="M-160 154q0 71 56.5 152t117.5 81q47 0 47 -47q0 -18 -13.5 -35t-33 -31.5t-39.5 -31.5t-33.5 -43.5t-13.5 -59.5q0 -24 15 -39.5t47 -15.5q18 0 35.5 8.5t36.5 28.5t32 35.5t33 48.5t27.5 46.5l27.5 49.5q43 76 102 199t108 229.5t110 222.5t113.5 198t111.5 135.5 t111 53.5q86 0 86 -73q0 -49 -38 -109t-89 -92q-14 -9 -49 -30t-49.5 -30.5t-36.5 -27t-39 -35.5q-27 -31 -65.5 -108.5t-59.5 -135.5q109 0 227 54q65 29 121.5 61t115.5 77t100.5 94.5t68 113t26.5 131.5q0 71 -47 122.5t-109.5 73t-126.5 21.5q-106 0 -216.5 -48 t-191.5 -119.5t-133 -156.5t-52 -157q0 -37 10.5 -50.5t38.5 -13.5q4 0 14.5 1t15.5 1q43 0 43 -35q0 -26 -23.5 -48.5t-60.5 -22.5q-72 0 -104.5 41.5t-32.5 101.5q0 95 60.5 201t156.5 192t226.5 142.5t259.5 56.5q176 0 278.5 -85t102.5 -222q0 -95 -44.5 -187 t-117.5 -162t-162.5 -122t-183.5 -78q-88 -23 -88 -41q0 -5 10 -10q39 -17 68 -70t47.5 -115.5t39.5 -123.5t56.5 -101.5t85.5 -40.5q31 0 66 12t62.5 27t62.5 41.5t53.5 43t50 45t37.5 34.5q8 8 22 8q16 0 27.5 -11t11.5 -28t-18 -35q-5 -4 -46.5 -43t-72.5 -64t-80 -59 t-99.5 -51.5t-99.5 -17.5q-105 0 -168 94q-24 35 -51 108.5t-46 136t-46 111.5t-55 49q-6 0 -19 -2t-22 -2q-26 0 -39.5 11t-22.5 29t-16 24q-14 -24 -29.5 -56.5t-35.5 -76t-27 -58.5q-20 -41 -35.5 -70.5t-44 -80t-53.5 -87.5t-59 -80t-66 -70t-69.5 -45.5t-72.5 -18.5 q-60 0 -98.5 45t-38.5 117zM680 1075q30 9 84.5 60.5t54.5 74.5q0 11 -16 11q-32 0 -73 -53.5t-50 -92.5z" />
<glyph unicode="S" horiz-adv-x="858" d="M-47 213q0 70 37.5 159t101.5 156.5t129 67.5q28 0 43.5 -22t19 -49.5t9 -66.5t12.5 -59q8 -25 21 -50t38.5 -51t53.5 -26q51 0 51 95q0 56 -20 125.5t-43.5 126t-43.5 133.5t-20 147q0 107 37.5 207.5t102.5 175.5t158 120.5t198 45.5q107 0 164 -63.5t57 -145.5 q0 -72 -31 -146.5t-77 -129.5t-102 -90t-104 -35q-52 0 -83 32.5t-31 90.5q0 27 16 52t45 25q23 0 31 -17t5.5 -38t4 -38t27.5 -17q46 0 97.5 50t84.5 120t33 127q0 65 -35.5 100t-105.5 35q-159 0 -273.5 -133t-114.5 -316q0 -33 4 -67.5t8 -57.5t14.5 -60.5t15 -51 t19.5 -56t17 -49.5q3 -10 12.5 -38t14.5 -44t9.5 -41t4.5 -47q0 -46 -7 -84.5t-7 -46.5q0 -14 18 -14q41 0 127.5 34.5t143.5 90.5q4 4 16 4q17 0 33 -9.5t16 -23.5q0 -16 -24 -37q-155 -126 -351 -147q-19 -9 -47 -34t-57.5 -51.5t-66 -53t-87.5 -43.5t-108 -17 q-100 0 -155.5 72.5t-55.5 173.5zM41 215q0 -70 30 -115t93 -45q101 0 168 54q1 1 10 8.5t14.5 12t12.5 12t10.5 14.5t3.5 14q0 15 -66 39q-34 17 -62.5 63.5t-39.5 100.5q-21 100 -35 100q-39 0 -72.5 -50t-50 -108.5t-16.5 -99.5z" />
<glyph unicode="T" horiz-adv-x="958" d="M-100 160q0 83 32.5 160t81.5 98q43 16 76 16q44 0 87.5 -23t72.5 -51t62.5 -60.5t52.5 -43.5q69 49 176.5 215.5t117.5 224.5q-161 -82 -342 -82q-48 0 -95.5 11t-92.5 33t-72.5 63.5t-27.5 95.5q0 70 51 132.5t115 94.5q57 27 124.5 48.5t162.5 39.5t148 26.5t178.5 25 t156.5 20.5q256 35 385 82q56 20 116.5 45t123.5 61.5t63 57.5q0 18 -20.5 38t-20.5 32q0 21 16 36t39 15q39 0 75 -29t36 -72q0 -72 -74 -133t-182 -99t-251 -70.5t-260 -49t-231 -32t-143 -21.5q-13 -3 -73.5 -13.5t-105.5 -19.5t-109 -27.5t-105.5 -39.5t-72 -54.5 t-30.5 -72.5q0 -47 43 -78t96 -42t111 -11q48 0 136 27.5t110 27.5q34 0 37 -31q20 32 45.5 79t39.5 71.5t38 52t53 45.5q42 25 76 25q31 0 50 -18t19 -48q0 -43 -35 -94t-77 -51q-5 0 -8 1l-9 3t-16 4q-55 -78 -146.5 -238.5t-144.5 -234.5q-10 -15 -42 -49.5t-56.5 -63 t-24.5 -39.5q0 -17 31 -47.5t55 -30.5q54 0 144 56.5t155.5 114t102.5 98.5q18 18 37 18q17 0 27.5 -12.5t10.5 -30.5q0 -19 -14 -33q-36 -36 -89 -80.5t-123 -96t-143.5 -86t-125.5 -34.5q-28 0 -58 21.5t-51.5 43t-27.5 21.5q-15 0 -35.5 -11.5t-44.5 -29.5t-35 -24 q-91 -56 -191 -56q-110 0 -145 89q-16 43 -16 94zM-12 152q0 -40 20 -68.5t60 -28.5q50 0 118 39q26 14 60.5 42.5t34.5 43.5q-30 49 -92.5 105.5t-104.5 56.5q-37 0 -66.5 -62.5t-29.5 -127.5z" />
<glyph unicode="U" horiz-adv-x="1380" d="M106 618q0 76 39 163t102 165.5t126.5 141t126.5 112.5q50 40 118.5 75.5t110.5 35.5q113 0 113 -99q0 -50 -56.5 -165t-137 -251.5t-160.5 -275.5t-136.5 -265.5t-56.5 -193.5q0 -26 16 -26q14 0 38 14t53.5 39t54 47.5t56.5 52.5t44 41q107 96 234 230 q38 40 103.5 104.5t123 124.5t112.5 127q2 2 17 20.5t23 27t22.5 22t27 20t23.5 6.5q16 0 24.5 -10.5t8.5 -23.5q0 -18 -11 -44t-22 -45t-26.5 -42.5t-16.5 -24.5q-65 -109 -107 -190.5t-81 -186.5q-3 -7 -12 -31t-14 -38.5t-12 -36t-10 -40.5t-3 -36q0 -60 32 -60 q7 0 21 3.5t20 3.5q10 0 17.5 -7.5t7.5 -19.5q0 -29 -41 -56.5t-84 -27.5q-39 0 -64.5 27t-25.5 86q0 66 33 160.5t65.5 165t32.5 77.5q0 8 -6 8q-13 0 -51.5 -43.5t-55.5 -66.5q-87 -100 -180 -190t-236 -218q-41 -38 -97 -74t-103 -36q-37 0 -58.5 26.5t-21.5 73.5 q0 92 84 293q125 291 332 618q1 2 28.5 44t54.5 86t50.5 92t23.5 69q0 16 -14 16q-15 0 -30 -2.5t-30 -8.5t-25.5 -10.5t-26.5 -15t-21.5 -14.5t-23 -16.5t-19.5 -14.5q-123 -94 -231.5 -233t-108.5 -231q0 -34 15.5 -67t15.5 -48q0 -20 -20.5 -35.5t-39.5 -15.5 q-32 0 -53 35t-21 83z" />
<glyph unicode="V" horiz-adv-x="1077" d="M135 -86q0 19 7 45.5t18 56.5t12 35q187 545 287 860q27 82 37 115t24.5 108.5t20.5 157.5q0 13 -6 13q-24 0 -117 -115q-113 -141 -133 -275q-5 -32 -8.5 -50.5t-11.5 -39.5t-21 -31t-31 -10q-22 0 -35.5 13t-13.5 37q0 23 26 104q34 100 98.5 206.5t141.5 180.5 q3 2 14 13.5t17 16.5t18.5 15t22.5 15.5t24 11.5t29 9t31 3q65 0 65 -119q0 -70 -23.5 -180.5t-42 -172.5t-34.5 -108q-25 -74 -85.5 -235t-99 -272t-38.5 -142q0 -12 6 -12q10 0 26 22q449 547 865 955q31 30 89.5 88.5t95 94.5t88.5 85.5t99 91.5q6 5 41 37.5t57 49.5 t57 42t67.5 37t62.5 12q43 0 63.5 -26.5t20.5 -67.5q0 -55 -31 -100q-84 -115 -135 -115q-24 0 -24 19q0 15 28 53q39 47 39 86q0 20 -14 20q-26 0 -90 -55q-728 -645 -1452 -1515q-28 -34 -66 -68.5t-59 -34.5q-27 0 -27 35z" />
<glyph unicode="W" horiz-adv-x="1482" d="M39 -76q0 14 6 34.5t13 35t16 33t10 20.5q99 222 158 360.5t129.5 332.5t113.5 360q29 134 29 168q0 51 -25 51q-37 0 -93.5 -68t-97 -147.5t-40.5 -114.5q-8 -30 -14 -45.5t-18.5 -32t-28.5 -16.5q-43 0 -43 61q0 56 20 103q24 53 60 110.5t83.5 116t105.5 96t112 37.5 q94 0 94 -143q0 -38 -7.5 -87.5t-17.5 -92.5t-25 -94t-25.5 -82.5t-23 -68.5t-14.5 -42q-78 -232 -172 -449q-14 -32 -14 -38q0 -5 4 -5t22.5 24.5t41.5 57.5t30 41q23 27 116.5 143t149.5 177q25 27 59 59t77 72t65 61q5 5 31.5 32t44.5 43t45 37.5t50.5 32.5t43.5 11 q16 0 25.5 -13.5t9.5 -31.5q0 -21 -8 -49t-22 -62t-15 -37q-35 -112 -89.5 -318.5t-78.5 -289.5l-4 -16q0 -4 4 -4t13.5 9t22 24t23.5 29t22.5 29.5t14.5 18.5q252 344 494 586q273 270 520 447q57 41 135.5 89t106.5 48q18 0 33.5 -9.5t15.5 -31.5q0 -15 -5.5 -27.5 t-17.5 -23.5t-21 -17.5t-26.5 -16.5l-24.5 -14q-160 -101 -282 -196q-220 -170 -438 -388t-394 -448q-116 -156 -229 -356l-7 -15q-8 -14 -15 -25t-17.5 -25.5t-22.5 -22.5t-24 -8q-22 0 -33.5 18.5t-11.5 44.5q0 22 12 76q15 69 42 201t48 230t43 189q4 17 15 58.5 t19.5 73.5t8.5 36q0 9 -6 9q-7 0 -23.5 -13.5t-47.5 -44.5l-37 -37q-35 -32 -162 -174q-150 -171 -383 -469q-4 -5 -42.5 -54.5t-60.5 -80.5q-3 -5 -20.5 -30.5t-29.5 -41.5t-30.5 -31.5t-33.5 -15.5q-16 0 -26.5 9.5t-10.5 27.5z" />
<glyph unicode="X" horiz-adv-x="1286" d="M-322 -129q0 28 29 52t90 54q73 36 146 81.5t152.5 108t132.5 106t147 125.5t135 116q90 77 225 217q1 1 8.5 7.5t9 9.5t4.5 10t3 16q0 38 -28 176t-32 176q-3 31 -8 31q-8 0 -20 -59.5t-21.5 -143.5t-9.5 -143q0 -9 2 -32t2 -36q0 -63 -37 -63q-28 0 -40.5 32.5 t-12.5 73.5q0 90 30 235.5t60 238.5q1 3 7.5 25t11.5 33.5t19.5 23.5t35.5 12q34 0 44 -19t27 -110q2 -10 3 -15.5t2.5 -15.5t3.5 -18q2 -9 5 -28.5t5 -27.5q1 -4 7.5 -72t17.5 -122t26 -54q6 0 47.5 41.5t61.5 63.5q97 107 237 268q86 102 287 342q85 102 168 207q1 2 7 11 t10.5 15t11 13.5t14 11.5t14.5 4q25 0 25 -12q0 -16 -4.5 -33t-9.5 -29t-17.5 -30.5t-17.5 -26t-20.5 -27t-18.5 -22.5q-368 -484 -676 -817q-4 -5 -22 -24t-26.5 -29t-20.5 -26t-17.5 -28t-5.5 -22q0 -24 24 -127q5 -23 22.5 -102.5t24 -106.5t23 -90t29.5 -98t33.5 -83 t43.5 -89q35 -63 70 -105q10 -13 10 -26q0 -24 -20.5 -40t-46.5 -16q-14 0 -27.5 8t-23 17t-22 28t-18 30t-17.5 34t-15 29q-48 92 -78 187t-65 239q-4 18 -14.5 85t-21 105.5t-24.5 38.5q-7 0 -33.5 -26t-60 -62t-43.5 -45q-426 -393 -799 -635q-65 -49 -114 -49 q-19 0 -32.5 13t-13.5 34z" />
<glyph unicode="Y" horiz-adv-x="1122" d="M-61 -12q0 70 56 149.5t126 79.5q42 0 68.5 -20.5t36 -49.5t14.5 -58.5t11 -50t17 -20.5q21 0 51 14.5t66 43t62 50t63 55t45 40.5t25.5 20.5t26.5 21.5t17.5 20t8.5 24q0 16 -11 46.5t-14 47.5q-30 147 -30 363q0 210 26 436q14 114 14 115q0 12 -4 12q-11 0 -50 -120.5 t-46 -162.5q-26 -146 -26 -260q0 -38 8 -121t8 -124q0 -76 -49 -76q-17 0 -29.5 13t-20 38.5t-12.5 51t-7 62.5t-2.5 60.5t-0.5 56.5q0 88 21 210.5t54 236.5t81 194t96 80q90 0 90 -77q0 -26 -10.5 -109.5t-13.5 -140.5q-15 -238 -15 -371q0 -216 29 -383q3 -10 8 -10 q8 0 23 17t39 51.5t24 35.5q148 183 228 331t135 341q12 40 24.5 53t40.5 13q45 0 45 -52q0 -30 -16 -73q-131 -328 -301.5 -564t-436.5 -446q-42 -33 -57 -45t-57 -43t-64.5 -44.5t-62 -36t-68.5 -32t-65.5 -18t-69.5 -8.5q-67 0 -108 36t-41 97zM33 -14q0 -43 53 -43 q37 0 47 12.5t10 54.5q0 105 -39 105q-32 0 -51.5 -40.5t-19.5 -88.5z" />
<glyph unicode="Z" horiz-adv-x="1386" d="M-154 113q0 82 38.5 165t100 136t124.5 53q52 0 110.5 -27t99.5 -60t76.5 -60t46.5 -27q9 0 22 7t30 21.5t27.5 25t29.5 30t22 22.5q86 82 129 146q-8 4 -30 4q-20 0 -72 -6t-76 -6q-73 0 -73 49q0 61 92 61q8 0 26 -1t27 -1q132 0 190 14q34 19 105.5 112.5t118.5 168.5 q6 10 27 40t34.5 52.5t13.5 30.5q0 10 -94 65q-250 156 -370 156q-45 0 -92.5 -13t-90.5 -38t-70.5 -68.5t-27.5 -97.5q0 -39 25 -69.5t63 -30.5q40 0 78 26.5t55 26.5q12 0 19.5 -12.5t7.5 -30.5q0 -45 -51 -80t-119 -35q-67 0 -114.5 61t-47.5 136q0 138 104.5 240 t249.5 102q151 0 422 -166q9 -6 30 -20.5t33.5 -22.5t29 -15.5t28.5 -7.5q7 0 31 25t53.5 55t81 55t106.5 25q40 0 61 -27t21 -65q0 -53 -53.5 -101t-125 -74t-132.5 -26q-22 0 -119 -153q-24 -37 -76 -104.5t-69 -94.5q-2 -2 -2 -6q0 -10 31 -10q39 0 123 13t133 13t49 -32 q0 -8 -4 -15.5t-12 -13.5t-16.5 -11t-22 -9.5t-23.5 -7.5t-25 -6t-23.5 -4.5t-22 -3.5t-17.5 -3q-44 -7 -137 -17t-107 -12q-10 -1 -50.5 -43.5t-100.5 -108t-99 -100.5q-61 -56 -63 -80q0 -6 4 -10q52 -65 147 -119.5t160 -54.5q67 0 154.5 46.5t147 96t128 114t72.5 67.5 q19 16 39 16q15 0 25 -11.5t10 -25.5q0 -16 -29 -45q-36 -36 -69.5 -67.5t-102.5 -89.5t-129 -98t-132.5 -71.5t-129.5 -31.5q-68 0 -145 29.5t-132 68.5q-10 7 -28.5 21t-32.5 24.5t-29.5 21.5t-27 17t-17.5 6q-16 0 -63 -28t-99.5 -61t-120.5 -61t-120 -28 q-82 0 -129.5 45.5t-47.5 114.5zM-57 133q0 -86 73 -86q25 0 51 8.5t67 29t44 21.5q49 22 103.5 54t54.5 51q0 25 -91 83t-132 58q-75 0 -122.5 -64.5t-47.5 -154.5zM1264 1145q53 7 103 35t50 47q0 8 -14 8q-24 0 -64.5 -24t-74.5 -66z" />
<glyph unicode="[" horiz-adv-x="655" d="M-41 -281q0 20 26 42t31 32q9 16 20.5 57t16.5 54q61 158 130.5 350t115.5 324.5t128 370.5t118 343q4 11 14 46.5t19 59.5t23.5 52.5t36.5 43.5t50 15q13 0 59.5 1t75.5 1q156 0 156 -47t-82 -47q-21 0 -65.5 3.5t-65 4t-49.5 -5.5q-20 -8 -35 -39t-30.5 -85t-20.5 -68 q-36 -102 -106 -302.5t-112 -320.5t-103.5 -291.5t-116.5 -318.5q-4 -11 -28 -61.5t-41.5 -94t-17.5 -61.5q0 -13 9 -13q100 7 151 7q183 0 183 -54q0 -36 -37 -36q-11 0 -64 7t-96 7q-69 0 -125 -12q-82 -17 -102 -17q-66 0 -66 53z" />
<glyph unicode="\" horiz-adv-x="720" d="M129 1286q-1 21 14 33t37 12q33 0 47 -26q96 -388 202 -701.5t271 -720.5q4 -22 -8.5 -37.5t-32.5 -15.5q-19 0 -34 18q-103 252 -149.5 370.5t-119.5 316t-125.5 374t-101.5 377.5z" />
<glyph unicode="]" horiz-adv-x="655" d="M-334 -377q-3 28 24 44.5t71.5 22t91 7.5t91 4.5t62.5 9.5q20 8 35 39.5t30.5 85.5t20.5 68q36 102 106 302.5t112 320.5t103.5 291.5t116.5 318.5q50 132 50 200q0 29 -13 29q-47 4 -132.5 -1t-100.5 -5q-42 0 -60 8.5t-10 30.5q13 32 84 40.5t248 8.5q119 0 119 -76 q0 -12 -2 -25t-7.5 -30t-9 -27t-12 -32.5t-10.5 -28.5q-201 -550 -496 -1391q-6 -17 -16.5 -54t-18.5 -57.5t-22 -46t-34.5 -39t-47.5 -16.5q0 -4 -4 -4q-23 1 -130.5 -10.5t-156.5 -11.5q-79 0 -82 24z" />
<glyph unicode="^" horiz-adv-x="1003" d="M104 788q0 30 33 50q70 43 108 67.5t105.5 73.5t118 101.5t86.5 109.5q3 5 19.5 43t33 60t35.5 22q14 0 25 -11t14 -30q0 -5 -2 -23t-2 -34q0 -114 51.5 -244t128.5 -172q31 -16 31 -45q0 -22 -19.5 -40t-46.5 -18q-12 0 -30 7q-53 21 -101.5 87t-76 154t-23.5 168 q-139 -188 -303 -291q-4 -2 -39.5 -26.5t-62 -38t-44.5 -13.5q-17 0 -28 12.5t-11 30.5z" />
<glyph unicode="_" horiz-adv-x="806" d="M-272 -213q0 16 13.5 28.5t39.5 12.5h53q282 0 789 57q32 4 50.5 -6.5t18.5 -28.5q0 -15 -15.5 -29t-45.5 -20q-221 -43 -735 -43h-138q-14 0 -22 9t-8 20z" />
<glyph unicode="`" horiz-adv-x="331" d="M63 1192q0 26 19.5 42.5t44.5 16.5q35 0 41 -32q17 -121 78 -238q6 -12 6 -23q0 -18 -11 -30.5t-28 -12.5q-16 0 -33 17q-38 38 -77.5 122.5t-39.5 137.5z" />
<glyph unicode="a" horiz-adv-x="1054" d="M-39 338q0 19 21 37q60 56 172 145q15 12 55 44.5t58.5 46.5t54 40t59.5 39t55.5 28t61 21t59.5 6q19 0 31 -13.5t12 -29.5t-14 -34.5t-25 -27t-35 -26.5q-50 -37 -167.5 -97t-139.5 -81q-43 -39 -83 -123t-40 -147q0 -86 80 -86q49 0 113 39t119.5 95.5t100 115.5 t62.5 102q15 36 39.5 81.5t58.5 98t73.5 88t72.5 35.5q43 0 43 -47q0 -34 -38 -82.5t-95 -117t-86 -130.5q-57 -120 -57 -194q0 -39 17.5 -58.5t47.5 -19.5q40 0 101 33q35 20 107.5 87t131.5 123t70 56q13 0 26 -12.5t13 -26.5q0 -18 -75 -94t-174 -154.5t-153 -97.5 q-50 -16 -80 -16q-50 0 -79.5 26.5t-36 57.5t-11 66.5t-8.5 43.5q0 3 -6 -3q-1 -2 -2 -3q-61 -71 -158 -135t-170 -64q-81 0 -119 48t-38 124q0 70 34 150l3 6q-18 -8 -40 4t-22 33z" />
<glyph unicode="b" horiz-adv-x="976" d="M-39 332.5q-4 20.5 12 36.5q43 32 86 77.5t50 67.5q66 193 185.5 367.5t276.5 318.5q74 68 166 136.5t206.5 127t189.5 58.5q69 0 69 -68t-59 -174q-29 -53 -73 -107t-89.5 -99t-111.5 -97t-117.5 -89.5t-130.5 -88t-129 -81t-132 -79.5q-98 -59 -143 -170 q-18 -48 -33.5 -125t-15.5 -149q0 -43 6 -80q3 -21 33 -21q137 0 375 383q17 87 44 126.5t70 39.5q37 0 37 -45q0 -54 -41 -127q-4 -46 -4 -82q0 -6 0.5 -21t0.5 -23t1 -22t2.5 -22.5t3.5 -19.5t6 -17.5t8.5 -13t11.5 -9.5t15 -3q36 0 98.5 42t114.5 93q10 10 27 10 q14 0 25.5 -9.5t11.5 -25.5q0 -25 -19 -41q-76 -68 -152 -111.5t-130 -43.5q-30 0 -51 16t-32 47.5t-15.5 54t-8.5 58.5q-3 12 -8 12q-8 0 -23 -21t-33.5 -49.5t-27.5 -38.5q-33 -40 -67.5 -76t-82 -76.5t-99 -64.5t-97.5 -24q-109 0 -109 186q0 53 13 146q3 22 -2 22 q-3 0 -8.5 -4.5t-16 -15t-16.5 -15.5q-20 -16 -42 -6.5t-26 30zM313 719q0 -12 11 -12q14 0 38 16q334 198 537 401q58 58 129.5 150t71.5 139q0 10 -15 10q-39 0 -139.5 -59.5t-175.5 -114.5q-139 -107 -260.5 -240.5t-181.5 -246.5q-15 -30 -15 -43z" />
<glyph unicode="c" horiz-adv-x="663" d="M-55 250q0 64 28 135.5t78 135.5t112.5 116.5t136.5 83.5t144 31q62 0 99 -26t37 -81q0 -70 -46.5 -136.5t-101.5 -66.5q-17 0 -32 11.5t-15 25.5q0 32 20.5 60.5t41 51.5t20.5 42q0 16 -10 23.5t-19 7.5q-67 0 -137 -40t-122.5 -101.5t-86 -138t-33.5 -146.5 q0 -60 33 -96t101 -36q171 0 444 267q14 13 34.5 7t27 -24.5t-10.5 -42.5q-30 -37 -91.5 -90t-127.5 -96q-189 -127 -313 -127q-99 0 -155 70.5t-56 179.5z" />
<glyph unicode="d" horiz-adv-x="800" d="M-279 1176q0 36 37.5 90t63.5 80q45 43 88 75.5t102 64.5t132 49t155 17q99 0 179 -30.5t134.5 -82.5t91.5 -124.5t53.5 -153.5t16.5 -172q0 -102 -24.5 -218t-67.5 -227t-105.5 -213t-133.5 -178.5t-156 -122.5t-170 -46q-59 0 -86 37t-27 98q0 97 45 182q4 8 4 10 q0 4 -4 4q-3 0 -19 -6t-28 -6q-15 0 -28 10.5t-13 26.5q0 27 35 51q239 188 319 242q4 2 26 14.5t38 21t37.5 16t36.5 7.5q36 0 36 -45q0 -26 -25.5 -52t-51.5 -40t-68 -32t-47 -21q-48 -26 -118 -163t-70 -214q0 -49 36 -49q48 0 101 30.5t97.5 75.5t86.5 100t69 99.5 t44 79.5q127 264 127 520q0 179 -68 307q-39 76 -119 124t-176 48q-260 0 -459 -258q-16 -26 -39.5 -46.5t-46.5 -20.5q-18 0 -29.5 11.5t-11.5 29.5z" />
<glyph unicode="e" horiz-adv-x="675" d="M-55 246q0 73 42.5 167.5t108 177.5t152.5 140t168 57q52 0 88.5 -31.5t36.5 -86.5q0 -39 -17 -75t-40 -61t-65 -54t-72.5 -45.5t-84 -44.5t-78.5 -42q-17 -9 -49.5 -22t-53 -22.5t-22.5 -18.5q-4 -32 -4 -45q0 -82 47.5 -120t110.5 -38q147 0 434 287q19 19 40.5 11.5 t25.5 -28t-13 -43.5q-62 -63 -100.5 -100.5t-96.5 -84.5t-104.5 -72.5t-105.5 -43.5t-119 -18q-110 0 -169.5 76t-59.5 180zM117 430q0 -14 18 -14q33 0 102 40t127 98t58 99q0 15 -7.5 29t-21.5 14q-64 0 -156 -94t-116 -158q-4 -12 -4 -14z" />
<glyph unicode="f" horiz-adv-x="901" d="M-276 -592q0 25 10 61.5t21.5 64.5t25.5 60t16 37q125 292 586 1024q31 52 31 62q0 4 -4 4q-9 0 -54 -51q-7 -7 -71.5 -82t-136 -154t-113.5 -117q-20 -18 -42.5 -11.5t-26 28t17.5 47.5q367 382 858 971q41 49 76 49q28 0 28 -33q0 -27 -26 -63q-274 -366 -484 -723 q-14 -24 -14 -37q0 -10 8 -10q3 0 11 3.5t23.5 10t33.5 10.5q38 10 84 10q44 0 72 -27t28 -73q0 -73 -45 -147q-1 -2 -14.5 -23.5t-21 -37t-7.5 -23.5q0 -9 16 -9q20 0 54.5 11t48.5 18q23 8 49.5 24.5t44 31.5t37.5 32.5t24 20.5q25 19 45 12t22.5 -27.5t-9.5 -38.5 q-25 -29 -113 -85.5t-131 -69.5q-13 -4 -69 -15.5t-81 -21.5q-16 -6 -39.5 -27.5t-39.5 -39.5t-45 -54t-35 -43q-33 -42 -108.5 -130t-178 -200t-194.5 -193t-129 -81h-1q-38 0 -38 55zM-150 -494q0 -4 5 -4q6 0 61 52q70 66 213.5 229t212.5 254q57 75 68 119q0 1 1 6t1 6 q0 7 -8 13t-22 15.5t-24 22.5q-22 33 -26 124q0 21 -3 21q-1 1 -3 -2q-77 -98 -228 -360t-209 -395q-39 -82 -39 -101zM428 326q0 -25 16.5 -47.5t36.5 -22.5q9 0 13 2q13 6 47 70.5t34 103.5q0 37 -34 37q-48 0 -80.5 -43.5t-32.5 -99.5z" />
<glyph unicode="g" horiz-adv-x="913" d="M-612 -776q0 46 47 137q49 91 127 177t178 161.5t200.5 137.5t221.5 126q15 8 43 21t39.5 19t32.5 20t35 28.5t33.5 38.5t41.5 57q74 110 74 138q0 4 -4 4q-6 0 -15.5 -4t-22 -12.5t-23 -16t-25.5 -20.5t-23 -20t-22.5 -19.5t-16.5 -14.5q-155 -135 -254 -135 q-46 0 -81 33.5t-35 101.5q0 190 182 391q34 37 72 72t88.5 72.5t107 60.5t107.5 23q57 0 57 -39q0 -10 -4 -22t-8.5 -21t-14 -21.5t-15 -19t-16 -18.5t-12.5 -15q-107 -121 -288 -248q-11 -7 -34 -22t-34.5 -23t-29 -24.5t-26.5 -32t-15.5 -40t-6.5 -54.5t6.5 -40.5 t22.5 -10.5q23 0 68 22.5t71 40.5q153 107 263.5 223t234.5 289q4 5 13 18.5t14 19.5t13.5 14.5t17 12t18.5 3.5q34 0 34 -39q0 -42 -53 -131q-21 -34 -101 -171t-128 -214q-10 -10 -34 -46.5t-24 -54.5q0 -12 15 -12q44 0 180 86t201 154q13 14 27.5 17t24 -4t15 -17.5 t3 -25t-14.5 -26.5q-64 -64 -177.5 -134t-229 -130t-142.5 -78q-27 -17 -51 -46t-50.5 -71t-37.5 -57q-47 -65 -71 -97.5t-70 -89.5t-79 -90t-85.5 -80.5t-102.5 -81t-117.5 -71t-142.5 -69.5q-77 -35 -139 -35q-53 0 -53 45zM-494 -684q0 -18 21 -18q33 0 106 38 q253 120 502 439q12 12 39 49t27 53q0 8 -8 8q-46 0 -184.5 -85t-276 -201t-176.5 -189q-4 -7 -17.5 -27.5t-23 -38t-9.5 -28.5zM221 520q0 -6 6 -6q24 0 97 63.5t73 86.5q0 8 -10 8q-32 0 -96.5 -62t-69.5 -90z" />
<glyph unicode="h" horiz-adv-x="1339" d="M-33 358q5 11 15 21q209 197 481.5 492.5t441.5 508.5q43 52 78 52q13 0 23 -9.5t10 -21.5q0 -29 -41 -90q-203 -299 -329 -501t-247 -433q-2 -2 -2 -8.5t4 -6.5q11 0 39.5 21.5t70.5 59t46 40.5q7 6 44.5 37.5t54.5 44.5t54.5 41t63 42t60.5 31t67.5 24.5t63.5 7.5 q86 0 86 -88q0 -53 -24.5 -117t-54.5 -115t-54.5 -114.5t-24.5 -114.5q0 -22 13 -35.5t36 -13.5q60 0 173.5 86t195.5 170q19 20 41 12.5t25.5 -28.5t-13.5 -42q-140 -135 -250 -210.5t-201 -75.5q-61 0 -95 33t-34 96q0 60 34.5 140.5t69 154t34.5 114.5q0 29 -27 29 q-51 0 -192 -102t-272.5 -220t-194.5 -188q-6 -7 -26 -34t-36.5 -42.5t-32.5 -15.5q-19 0 -29 12t-10 27q0 24 17 55t39.5 61t25.5 35q42 75 130 241t153 279q8 14 19.5 34t19 33t15 26.5t11 22t3.5 11.5q0 2 -3 2q-5 0 -38 -36q-125 -144 -259 -282t-208 -200 q-28 -24 -51 -4q-22 20 -9 51z" />
<glyph unicode="i" horiz-adv-x="569" d="M-31.5 323q-20.5 29 8.5 52q57 48 129.5 118.5t75.5 73.5q13 11 50 48t62 58.5t63.5 41.5t72.5 20q45 0 45 -47q0 -54 -53 -145q-79 -140 -143 -271q-3 -8 -17 -35.5t-23.5 -50.5t-9.5 -39q0 -8 5 -15t14 -7q27 0 84 49q57 45 209 197q19 19 41 11t26 -29t-16 -44 q-21 -19 -80 -75.5t-103.5 -97t-80.5 -68.5q-3 -2 -21 -16.5t-27.5 -21t-27 -17t-34 -15t-32.5 -4.5q-33 0 -52 20t-19 56q0 30 6 57q8 37 32.5 90.5t65.5 133t57 112.5q35 73 35 86q0 12 -8 12q-11 0 -31 -20q-39 -31 -130.5 -120t-118.5 -112q-34 -15 -54.5 14zM414 961 q0 6 4 36t4 52q0 9 -3 28t-3 29q0 28 21 49t46 21q24 0 36.5 -16t12.5 -42q0 -41 -30.5 -109.5t-65.5 -68.5q-22 0 -22 21z" />
<glyph unicode="j" horiz-adv-x="505" d="M-795 -678q0 10 9.5 19t19 13.5t25 10t18.5 6.5q101 38 207.5 120t195 178t178.5 217.5t154 223t125 209.5q13 24 45 78t47 82t15 35l-4 2q-5 0 -29 -27q-17 -18 -80.5 -77t-103.5 -101q-13 -14 -35.5 -6t-28.5 27.5t14 42.5q18 17 126 113.5t169 157.5t88 102 q39 57 76 57q16 0 26.5 -12.5t10.5 -34.5q0 -39 -27 -86q-8 -15 -53.5 -97t-59.5 -106.5l-56 -98t-62 -107.5t-58 -97.5t-65 -104.5t-61 -92t-66 -94q-143 -195 -309.5 -347t-325.5 -202q-7 -2 -28.5 -9.5t-38 -12t-29.5 -4.5q-29 0 -29 22zM416 1053q0 53 23 107t55 54 q51 0 51 -57q0 -50 -36 -105t-69 -55q-24 0 -24 56z" />
<glyph unicode="k" horiz-adv-x="1107" d="M-43 -66q0 17 15.5 44t38.5 59.5t32 50.5q65 136 182 349t215.5 407t167.5 375q83 208 129 208q16 0 26.5 -18t10.5 -37t-6.5 -46t-20 -61.5t-24 -59t-29 -65t-24.5 -53.5q-75 -165 -235.5 -466t-221.5 -426q17 1 39 21.5t47 51.5t31 37q278 273 389 373l25 21 q25 21 41.5 33t41.5 25t43 13q20 0 31.5 -16t11.5 -39q0 -33 -23.5 -65.5t-51.5 -49.5q-21 -11 -53 -18.5t-40 0.5q-88 -56 -223 -203q23 0 46.5 -15t29.5 -36q10 -36 10 -88v-19t-0.5 -29.5t0 -32.5t4 -34.5t8.5 -29.5t14.5 -21.5t22.5 -7.5q46 0 127 52t144 109 q116 108 143 135q21 20 39 20q11 0 22 -7q24 -15 15 -42q-4 -10 -12 -18q-87 -87 -190 -175.5t-177 -129.5q-3 -2 -9 -5q-104 -58 -157 -58q-46 0 -72 30q-28 30 -28 140q0 14 0.5 37.5t0.5 37.5t-0.5 33t-3 30.5t-6 22.5t-10.5 16t-16 5q-18 0 -36 -12t-41 -38t-28 -30 q-69 -65 -237 -242l-21 -23q-22 -22 -30.5 -29t-27.5 -17t-36 -10q-19 0 -36 9t-17 27z" />
<glyph unicode="l" horiz-adv-x="749" d="M-37.5 331.5q-3.5 21.5 14.5 43.5q213 220 446 480t386 450q55 69 100 69q14 0 22.5 -9t8.5 -24q0 -36 -37 -81q-133 -166 -264 -360t-236.5 -404t-105.5 -322q0 -72 53 -72q95 0 365 260q22 21 45.5 15t27 -27t-15.5 -43q-49 -47 -76 -72.5t-87.5 -77.5t-103 -81 t-94.5 -53.5t-89 -24.5q-65 0 -98.5 44.5t-33.5 119.5q0 79 57 226t175 331q12 21 12 29q0 4 -4 4q-9 0 -24 -21q-70 -89 -205 -237.5t-172 -182.5q-20 -18 -41.5 -9.5t-25 30z" />
<glyph unicode="m" horiz-adv-x="1705" d="M-30 318q-19 24 3 55q34 30 121.5 113.5t156.5 144.5t114 86q42 22 75 22q27 0 43.5 -20.5t16.5 -50.5q0 -51 -39 -109q-20 -32 -111 -184q27 13 67 44.5t92 78t73 63.5q49 39 85.5 64.5t93 49t105.5 23.5q47 0 76 -32t29 -82q0 -37 -18 -86t-38 -84.5t-53.5 -91 t-46.5 -78.5q62 49 218 192.5t224 198.5q131 104 213 104q36 0 60 -28.5t24 -67.5q0 -34 -14.5 -75.5t-46 -92t-55 -84.5t-68.5 -93.5t-59 -78.5q-2 -2 -13.5 -17t-16 -21.5t-14.5 -21.5t-14 -24.5t-8 -23t-4 -25.5t12 -12q25 0 140 78q140 91 290 223q32 20 54.5 -6 t-2.5 -52q-151 -166 -373 -286q-94 -54 -156 -54q-37 0 -58.5 20t-21.5 56q0 57 48 140q25 45 88 131.5t108.5 159.5t54.5 122q3 17 -10 17q-26 0 -94.5 -50t-124.5 -100q-238 -218 -481 -418q-1 -1 -11 -8.5t-18.5 -13t-20 -12.5t-23 -11t-21.5 -4q-14 0 -24.5 11t-10.5 28 t8 38t14 31.5t24.5 37.5t20.5 30q7 10 40.5 60t56.5 86t51.5 86t43.5 92t15 72q0 28 -24 28q-38 0 -121 -56.5t-154 -115.5q-87 -73 -230.5 -206.5t-211.5 -192.5q-10 -10 -32.5 -24.5t-41.5 -14.5q-11 0 -20 9.5t-9 21.5q0 17 13.5 39t35 48.5t25.5 32.5q137 184 203 304 q65 125 65 137q0 6 -6 6q-27 0 -127 -90q-30 -26 -99 -96t-103 -99q-34 -15 -53 9z" />
<glyph unicode="n" horiz-adv-x="1265" d="M-38.5 336q-3.5 21 13.5 39q101 83 293 321q96 121 158 121q28 0 44.5 -22t16.5 -54q0 -71 -59 -200q-5 -12 -21 -40t-25 -51t-5 -42q25 10 61.5 40t86 76.5t71.5 65.5q45 38 80.5 63.5t91 49.5t104.5 24q62 0 105 -30t43 -91q0 -58 -32 -133t-70 -133.5t-70 -118 t-33 -90.5q0 -43 37 -43q34 0 92 35q57 34 141.5 106.5t153.5 141.5q26 26 52 3t9 -55q-240 -228 -335 -282q-91 -53 -168 -53q-44 0 -75.5 29t-31.5 77q0 52 33 135q7 17 53 103t81.5 164t35.5 112q0 33 -29 33q-65 0 -280 -166q-73 -55 -145.5 -121t-120.5 -114t-134 -138 q-4 -5 -24.5 -28.5t-33.5 -37t-34 -27t-39 -13.5q-13 0 -23 9.5t-10 23.5q0 18 14.5 42t39 53t26.5 32q195 257 254 483q-14 -3 -29 -13t-23 -18t-25 -27t-21 -24q-139 -165 -231 -242q-19 -16 -39.5 -6t-24 31z" />
<glyph unicode="o" horiz-adv-x="776" d="M-39 340q0 17 12.5 31t36.5 31.5t37 31.5q25 26 61.5 73.5t75 85.5t95.5 75q61 34 81 34q31 0 31 -40q0 -81 -162 -199q-155 -111 -155 -293q0 -41 23.5 -68.5t60.5 -27.5q64 0 137 50.5t129.5 123.5t94.5 158t38 151q0 53 -45 68q-53 18 -53 59q0 27 18 44t47 17 q63 0 96 -49t33 -118q0 -94 -45.5 -201.5t-118 -196.5t-172 -148t-198.5 -59q-56 0 -91.5 34t-47 76.5t-11.5 92.5q0 21 6.5 56t6.5 47q0 11 -10.5 27t-10.5 34z" />
<glyph unicode="p" horiz-adv-x="1122" d="M-375 -877q0 56 29 140q39 117 92.5 238.5t121 248t122 220.5t133.5 227l27 45q17 28 55 88t59.5 96t47 92t38.5 109q-14 -2 -28.5 -11.5t-21 -16.5t-23 -27t-19.5 -23q-72 -86 -225 -230q-14 -14 -31 -14t-28 11.5t-11 27.5q0 17 14 31q66 62 152 155t129 152 q7 10 27 38t29 38.5t25.5 27.5t33.5 23t37 6q61 0 61 -76q0 -34 -27.5 -110t-27.5 -94q0 -11 8 -11t46.5 30t84 68t57.5 46q151 100 242 100q82 0 117 -40.5t35 -104.5q0 -96 -57.5 -213.5t-141.5 -214t-186.5 -162.5t-186.5 -66q-58 0 -91.5 20.5t-33.5 61.5q0 44 31.5 79 t88.5 58.5t104.5 37t113.5 27t80 17.5q68 71 113 157t45 144q0 41 -22.5 61.5t-53.5 20.5q-48 0 -114.5 -33.5t-119.5 -76.5q-168 -131 -267 -253t-195 -294q-226 -399 -336 -694q-9 -22 -22 -90.5t-31 -110t-50 -41.5q-49 0 -49 65zM440 78q0 -15 19 -15q33 0 95 36t73 61 h-11q-50 0 -113 -26.5t-63 -55.5z" />
<glyph unicode="q" horiz-adv-x="1007" d="M-84 143q0 27 14 90q35 121 128 245.5t208 230.5q128 116 234 116q75 0 75 -57q0 -29 -22 -68q-17 -30 -47.5 -60.5t-53.5 -48t-67.5 -48.5t-60.5 -43q-92 -70 -123 -90q-8 -5 -32.5 -21t-36.5 -24.5t-28.5 -22.5t-25.5 -27q-16 -23 -33.5 -66.5t-17.5 -74.5 q0 -23 14 -37t39 -14q44 0 105 28.5t91 49.5q125 79 228 179t205 230q1 1 14 18.5t20.5 26t22.5 18t29 9.5q19 0 33 -13t14 -34q0 -50 -76 -168q-59 -95 -103 -173.5t-102 -191t-80 -153.5q-5 -10 -18.5 -35t-21 -41.5t-7.5 -24.5q0 -10 8 -10q7 0 19 9.5t16 15.5 q158 182 244 268q28 28 71 68t101 93t88 81q20 18 41 9t23.5 -30.5t-15.5 -42.5q-325 -294 -498 -485q-245 -274 -432 -586l-5 -10l-7.5 -15t-9 -15t-12 -15t-14 -9.5t-17.5 -4.5q-14 0 -24.5 10t-10.5 26q0 14 6 35t11 34t15 36l11 22q31 71 68.5 142.5t92 169t72.5 131.5 q35 65 112.5 195t125.5 227q8 12 19.5 37.5t11.5 37.5q0 11 -13 11q-9 0 -54.5 -29.5t-74.5 -50.5q-9 -7 -48.5 -37t-56.5 -42.5t-48 -31.5t-57 -31q-80 -32 -146 -32q-55 0 -93 30t-38 84zM238 545q0 -4 4 -4q24 0 106 74.5t82 97.5q0 6 -8 6q-13 0 -41.5 -16t-42.5 -31 q-3 -3 -17.5 -20.5t-35.5 -42.5t-33 -42q-14 -16 -14 -22z" />
<glyph unicode="r" horiz-adv-x="886" d="M-29 369q41 36 110.5 134t98.5 167q9 21 20.5 53.5t19 53t18.5 41.5t25.5 31.5t33.5 10.5q35 0 66 -25.5t53.5 -61.5t44 -72t46.5 -61.5t52 -25.5q5 0 51.5 27t73.5 27q18 0 32.5 -13t14.5 -34q0 -57 -145 -125q-17 -8 -67 -68.5t-98 -144.5t-48 -136q0 -31 20.5 -50 t52.5 -19q35 0 82 22.5t85.5 49t91.5 73.5t77 70.5t66 65.5l3.5 3.5l3.5 3.5l3 3l3 3l3 3q16 10 29 10q17 0 28 -17q8 -12 8 -23q0 -18 -20 -36q-18 -16 -74.5 -69.5t-98.5 -88.5t-101.5 -77.5t-120.5 -65t-119 -22.5q-68 0 -102.5 36.5t-34.5 100.5q0 87 58.5 201 t160.5 217q1 9 -18 23.5t-50.5 43t-52.5 66.5q-22 39 -41 39q-6 0 -11 -3t-10 -9.5t-9 -11.5t-8.5 -16t-7 -16.5t-7.5 -18t-6 -15.5q-28 -71 -97 -161.5t-126 -142.5q-18 -16 -35 -16q-13 -1 -25 9q-15 12 -15 27q0 14 13 30z" />
<glyph unicode="s" horiz-adv-x="716" d="M-39 336q0 21 21 39q21 19 82 73.5t107.5 97.5t76.5 77q66 70 80 108q7 18 15 57.5t15 55.5q21 44 61.5 70t90.5 26q63 0 63 -47q0 -31 -18.5 -60t-42 -49.5t-48.5 -49.5t-34 -56q-8 -24 -8 -66q0 -8 12 -143q1 -6 3.5 -62.5t8.5 -84.5q3 -12 5.5 -19t11.5 -13.5t22 -6.5 q41 0 103.5 27t93.5 57q21 18 37 18q17 0 28 -13.5t11 -31.5q0 -14 -13 -27q-34 -32 -102.5 -63t-105.5 -39q-72 -18 -82 -33q-14 -22 -17 -67.5t-4 -51.5q-20 -95 -90 -155q-75 -62 -174 -62q-67 0 -115.5 33.5t-48.5 97.5q0 42 21 82t55.5 70t69 51t69.5 35q2 1 17.5 6 t24 8t23.5 9t24.5 11.5t18 12.5t11.5 14q8 21 8 66q0 32 -4 86q-10 96 -10 98q0 1 -1.5 8t-3.5 13t-5.5 11t-8.5 5q-12 0 -29 -13t-40 -36.5t-25 -24.5q-104 -96 -192 -170q-15 -12 -33 -12q-14 0 -24.5 10t-10.5 23zM100 -16q0 -27 22.5 -42.5t57.5 -15.5q48 0 99 31 q36 25 53.5 73.5t17.5 94.5q0 39 -12 39q-22 0 -80.5 -25t-75.5 -39q-82 -65 -82 -116z" />
<glyph unicode="t" horiz-adv-x="790" d="M-39 346q0 18 14 29q104 91 226 225q14 14 14 23q0 12 -47 12q-16 0 -25.5 11t-9.5 26q0 16 11 29t30 14l109 12q32 3 68.5 28t103.5 89q26 25 100.5 120.5t87.5 108.5q21 21 39 21q12 0 19.5 -8.5t7.5 -22.5q0 -26 -31 -70q-17 -28 -56 -88t-62 -98.5t-23 -48.5 q0 -13 28 -13q19 0 107 17.5t114 17.5q41 0 41 -45q0 -17 -20.5 -30t-57.5 -20.5t-72.5 -12t-82 -10t-70.5 -9.5q-1 0 -8.5 -1.5t-11 -2.5t-11 -3.5t-13 -5t-12.5 -6.5t-13 -9.5t-11 -12.5q-73 -97 -146 -250.5t-73 -228.5q0 -42 18.5 -57t55.5 -15q140 0 430 277 q1 1 11.5 12t16 16.5t15.5 11t19 5.5q17 0 28.5 -12.5t11.5 -28.5q0 -15 -26 -41q-50 -49 -82.5 -79.5t-99 -86t-119 -88.5t-119.5 -59.5t-123 -26.5q-62 0 -96.5 47.5t-34.5 118.5q0 135 160 410q3 6 17.5 29.5t26 42.5t11.5 22q0 4 -4 4q-13 0 -57 -55q-1 -1 -29.5 -33.5 t-63.5 -71t-82 -85.5t-81 -77q-13 -10 -25 -10q-17 0 -30 13t-13 30z" />
<glyph unicode="u" horiz-adv-x="1169" d="M-37 344q0 8 3.5 16t7.5 14.5t11 13.5t11.5 10.5t11.5 9t8 6.5q50 46 142 143.5t147 161.5q2 2 21.5 27t32 38.5t33 28t36.5 14.5q22 0 33.5 -17t11.5 -42q0 -48 -37 -133q-20 -42 -77.5 -151.5t-86.5 -180.5q-3 -7 -12.5 -30t-13.5 -34t-10 -32t-8.5 -40.5t-2.5 -41.5 q0 -23 21 -23q30 0 87.5 42t102.5 85q133 121 340 361q4 4 22 26t30.5 35.5t32 31.5t38.5 27t37 9q23 0 37 -15.5t14 -41.5q0 -38 -26 -97q-68 -137 -115 -246q-2 -4 -11.5 -25.5t-13 -30.5t-12 -29.5t-12.5 -33t-9.5 -29.5t-7.5 -30.5t-2 -25.5q0 -21 21 -21t52.5 16.5 t51.5 32.5q39 30 130.5 121.5t101.5 100.5q20 20 36 20q14 0 25.5 -12t11.5 -27q0 -23 -18 -41q-21 -19 -85 -81.5t-113 -106.5t-89 -72q-87 -65 -135 -65q-102 0 -102 98q0 59 49 184q9 22 29.5 66t34.5 79t18 64q-23 -10 -47 -32.5t-56 -60t-41 -46.5q-99 -107 -245 -234 q-3 -3 -21.5 -19.5t-24.5 -21.5t-23 -18.5t-27.5 -18.5t-26.5 -12.5t-31.5 -10.5t-32.5 -3q-50 0 -77 37t-27 102q0 45 16.5 101.5t33 93t46.5 98.5l10 20q33 68 33 76q0 4 -4 4q-13 0 -77 -64t-114 -120q-6 -10 -26 -25.5t-37 -15.5q-13 0 -24 14t-11 29z" />
<glyph unicode="v" horiz-adv-x="1042" d="M-41 340q0 20 16 31q94 71 334 374q46 58 99 58q31 0 51 -23t20 -65q0 -22 -6 -49q-9 -42 -107 -272.5t-98 -280.5q0 -21 17 -21q59 0 188 99t172 171q-20 58 -20 138q0 50 14.5 107.5t41.5 113t74.5 91.5t106.5 36q36 0 71.5 -24.5t35.5 -78.5q0 -131 -117 -274 q-65 -79 -68 -90q0 -1 -1 -4t-1 -4q0 -20 29 -32.5t59 -12.5q41 0 86.5 16t73.5 39q6 6 17 6q15 0 29 -14.5t14 -32.5q0 -17 -15 -29q-91 -73 -221 -73q-98 0 -162 45q-99 -103 -240.5 -203t-232.5 -100q-67 0 -67 86q0 71 46 196t92 228t46 120q0 6 -4 6q-10 0 -68.5 -62.5 t-129 -140t-99.5 -100.5q-17 -14 -35 -14t-29.5 11.5t-11.5 27.5zM731 520q0 -35 8 -37q10 -2 44 41.5t65 104t31 96.5q0 33 -29 33q-34 0 -63 -43t-42.5 -97t-13.5 -98z" />
<glyph unicode="w" horiz-adv-x="1454" d="M-39 340q0 20 23 37q44 34 97 93.5t97.5 115t90 107.5t89 84t80.5 32q25 0 44.5 -21t19.5 -57q0 -42 -31 -131q-28 -78 -87 -199t-89 -202q-23 -66 -23 -76q0 -19 17 -19q30 0 92 62q92 89 229.5 279t208.5 270q53 61 90 63q39 0 39 -47q0 -21 -10 -51.5t-19 -48.5 t-14 -27q-115 -225 -151 -332q0 -1 -6.5 -17.5t-13 -35t-13.5 -41.5t-11.5 -45t-4.5 -37q0 -26 16 -26q33 0 110.5 40t143 90.5t65.5 75.5q0 19 -26.5 79.5t-26.5 111.5q0 60 19.5 124.5t54.5 120.5t92 92t123 36q54 0 85.5 -36.5t31.5 -98.5q0 -47 -20.5 -101t-38 -82.5 t-54.5 -83.5q-65 -95 -72 -112q20 -17 58 -17q43 0 90 19t71 47q13 15 36 8t30.5 -26t-10.5 -42q-49 -50 -109.5 -66t-142.5 -16h-80h-1q-16 0 -70 -40q-56 -41 -119.5 -91t-148.5 -91.5t-153 -41.5q-65 0 -65 80q0 19 3.5 40.5t10.5 46.5t11.5 39t13.5 40.5t10 28.5 q3 9 16.5 41.5t23 62t9.5 45.5q0 8 -4 8q-8 0 -44.5 -44.5t-88 -107.5t-109 -126t-118.5 -107.5t-105 -44.5q-63 0 -63 84q0 64 33 156q21 60 118 278q2 5 11.5 26.5t16 38.5t13 37t6.5 30q0 12 -8 12q-7 0 -22 -12q-48 -38 -149.5 -153t-151.5 -155q-10 -10 -27 -10 q-15 0 -27 11t-12 26zM1102 481q0 -69 26 -98q0 -2 5 -2q9 0 31 29.5t37.5 55t27.5 46.5q17 28 38 80t21 90q0 59 -55 59q-51 0 -91 -85.5t-40 -174.5z" />
<glyph unicode="x" horiz-adv-x="1015" d="M-143 -141q0 17 12.5 39.5t37.5 56t30 41.5q46 70 86 151q99 198 141 324q5 13 16 50t19 61t23.5 57t31 53t39.5 34.5t51 14.5q30 0 52.5 -16t36.5 -46t22.5 -58.5t19 -69.5t17.5 -62q65 41 165.5 184.5t100.5 209.5q0 7 -2 11.5t-9.5 7.5t-10.5 4t-15 3q-2 0 -13.5 0.5 t-16 1.5t-14 3.5t-14 6.5t-8.5 11.5t-4 17.5q0 32 35.5 48t87.5 16q41 0 68.5 -23t27.5 -65q0 -61 -61 -164q-60 -111 -193 -270q-10 -13 -35 -36t-40 -41.5t-15 -35.5q0 -46 38.5 -153t78.5 -107q38 0 116.5 55.5t132 104t95.5 90.5q26 26 47.5 16.5t21.5 -34t-14 -40.5 q-20 -17 -93.5 -83t-123.5 -108t-118 -81t-115 -39q-86 0 -152 266q-20 -10 -44 -31t-60 -57l-43 -43q-162 -158 -266 -233q-7 -5 -28 -22.5t-34.5 -28t-33 -20t-33.5 -9.5q-15 0 -28 10.5t-13 26.5zM76 61q0 -8 4 -8q10 0 28.5 13t42.5 36.5t42 42.5t42.5 45.5t28.5 30.5 q9 9 31.5 32.5t38 40.5t33 38t27 37t9.5 26q0 11 -8 39q-3 11 -10 42t-12 50t-12 42t-14.5 34.5t-14.5 11.5q-17 0 -47 -43q-9 -14 -18.5 -32t-16 -33t-17 -40t-15 -36.5t-15 -41t-13.5 -36.5q-14 -39 -44.5 -108.5t-50 -118.5t-19.5 -64z" />
<glyph unicode="y" horiz-adv-x="899" d="M-1348 -748q0 13 11 20t22 -3q90 -83 193 -115.5t229 -32.5q525 0 1272 1051q5 5 21 30.5t16 35.5q0 8 -6 8q-4 0 -27 -13.5t-53.5 -32t-38.5 -22.5q-135 -76 -209 -76q-67 0 -98 41t-31 142q0 57 55 171t127 207t115 93q24 0 37.5 -12.5t13.5 -30.5q0 -25 -64 -115 t-128 -191t-64 -153q0 -32 14.5 -45.5t44.5 -13.5q81 0 263.5 134.5t259.5 239.5q6 8 39 70t68 104.5t69 42.5q19 0 33 -14t14 -31q0 -31 -80 -143l-102 -152q-260 -385 -403 -572q-390 -506 -741 -703q-247 -138 -489 -138q-84 0 -170 25.5t-148.5 77.5t-64.5 116z" />
<glyph unicode="z" horiz-adv-x="761" d="M-453 -557q0 57 73.5 154.5t171 186t177.5 136.5q53 35 82 35q16 0 28.5 -12t12.5 -31q0 -36 -76 -80q-129 -66 -264 -201q-25 -25 -54.5 -63.5t-29.5 -59.5q0 -16 23 -16q30 0 86 25q57 26 142.5 81.5t182 134t179.5 162.5t137.5 174.5t54.5 161.5q0 28 -31 45.5 t-68.5 26t-68.5 30.5t-31 58q0 8 1.5 16t4.5 17.5t6 16.5t9.5 18t10 17t11.5 18t11.5 16.5t13 17.5t12.5 17q36 54 133 151q7 7 -25 9h-17q-49 0 -77 -10q-2 0 -3 -1q-3 -1 -76 -104q-37 -53 -113 -132t-141 -139q-15 -13 -29.5 -15.5t-24 4.5t-15 18.5t-1.5 26t17 26.5 q130 114 217 227q71 88 71 123q0 8 -7 26.5t-7 30.5q0 15 14 26t37 11q16 0 52 -10t61 -10t75.5 5t71.5 5q31 0 53.5 -13t22.5 -42q0 -25 -21 -50t-54 -51t-42 -36q-12 -14 -52.5 -58t-53.5 -59q-4 -5 -15 -19t-17 -22.5t-11.5 -21t-5.5 -23.5q0 -28 26.5 -42t66.5 -22.5 t54 -17.5q62 -39 62 -115q0 -63 -45 -145q-121 -221 -333 -394.5t-458 -267.5q-70 -28 -129 -28q-28 0 -48 14t-20 43z" />
<glyph unicode="{" horiz-adv-x="655" d="M18 -113q0 31 5.5 62t19 67t21 54t27.5 59t22 45q5 11 44.5 88t51.5 105l3 6q53 116 34 162q-11 0 -35 -3.5t-37 -3.5q-28 0 -53 18.5t-25 47.5q0 22 15.5 41t35.5 27q17 8 52.5 3t46.5 -3q32 6 68 48t59 91q19 40 34.5 109t25.5 137t29 142.5t43 132.5t70 100t109 51 q37 5 77.5 -4t61.5 -29q15 -15 32 -55t17 -70q0 -43 -32 -43q-20 0 -34 18.5t-20.5 41t-18.5 41t-30 18.5q-42 0 -75.5 -26t-54 -63.5t-37 -92t-24 -97.5t-16 -94t-12.5 -70q-23 -96 -46 -154.5t-60 -107.5q-16 -22 -55.5 -49.5t-47.5 -34.5q23 -44 23 -104 q0 -48 -23.5 -112t-70 -156t-52.5 -105q-67 -160 -67 -238q0 -36 18.5 -61t55.5 -25q25 0 56.5 15.5t52 31.5t45 23.5t36.5 -8.5q10 -10 10 -23q0 -29 -44.5 -62t-76.5 -46q-50 -23 -100 -23q-70 0 -112 48t-42 130z" />
<glyph unicode="|" horiz-adv-x="557" d="M8.5 -255q-0.5 13 1.5 27.5t7 31t9.5 30t9.5 27t7 18.5q66 198 233 676.5t250 736.5q3 9 10 40t14.5 55.5t20 52.5t31 43.5t41.5 15.5q43 0 43 -51q0 -29 -13.5 -72t-33 -89.5t-21.5 -51.5q-89 -244 -262 -727.5t-260 -722.5q-1 -3 -3 -9.5t-3.5 -10.5t-4 -11t-4.5 -11 t-5.5 -10.5t-6.5 -9t-7.5 -7.5t-9 -5t-10 -1.5t-11.5 1.5q-11 3 -16.5 12t-6 22z" />
<glyph unicode="}" horiz-adv-x="655" d="M-233 -141q0 35 26.5 70.5t61.5 35.5q32 0 32 -28q0 -13 -10 -50.5t-6 -48.5q12 -28 47 -28q34 0 68 24q60 43 94.5 107.5t49.5 138.5t28 151t46 166t89 162q8 11 23.5 26t25 27t12.5 25q2 11 -8 39t-10 37q2 52 35 135.5t71.5 156t70.5 143.5t32 101q0 34 -3 59 t-12 48.5t-26.5 35.5t-44.5 13q-7 0 -13.5 -1t-14 -4.5t-12 -5t-13 -7.5t-10.5 -7t-12 -8l-11 -8q-42 -33 -62 -33q-12 0 -21 10t-9 23q0 20 19.5 42.5t39.5 35.5q70 47 152 47q165 0 165 -219q0 -47 -23 -105.5t-51 -102.5t-61.5 -96t-44.5 -75q-17 -37 -31 -111t-2 -90 q12 -14 39 -15.5t51 2t43 -8t19 -43.5q0 -55 -57 -70q-17 -6 -57 0t-54 4q-27 -5 -74 -65q-44 -54 -70 -141t-34.5 -164.5t-34.5 -168t-70 -149.5q-43 -59 -105 -100t-130 -41q-60 0 -101.5 33.5t-41.5 95.5z" />
<glyph unicode="~" horiz-adv-x="1024" d="M92 522q0 40 54.5 80.5t120.5 64t108 23.5q56 0 150 -49t143 -49q53 0 120 37q11 6 41.5 42t55.5 36q17 0 28 -11t11 -28q0 -39 -53.5 -84t-121.5 -74t-112 -29q-50 0 -152.5 53.5t-160.5 53.5q-21 0 -38 -4t-32 -14t-24.5 -18t-26.5 -25.5t-27 -26.5q-19 -19 -43 -19 q-18 0 -29.5 11.5t-11.5 29.5z" />
<glyph unicode="&#xa2;" horiz-adv-x="804" d="M88 393q0 147 89 272t212 187q9 4 50.5 20.5t66.5 30t31 27.5q56 117 116 264q4 12 11 39t12.5 44t19.5 31.5t35 14.5q22 0 37.5 -12t15.5 -37q0 -24 -13.5 -59t-34.5 -75t-23 -46q-3 -6 -27 -50.5t-36.5 -75t-14.5 -55.5q-1 -10 15.5 -21t37 -21.5t25.5 -16.5 q22 -31 22 -88t-35 -100t-94 -43q-19 0 -32 10.5t-13 32.5q0 15 13 27t29 19.5t29 22.5t13 35q0 25 -10.5 33t-28.5 8q-15 0 -27 -11.5t-18 -24t-13.5 -32.5t-10.5 -26q-24 -50 -95 -213q-1 -2 -13.5 -25t-25.5 -49t-27.5 -55.5t-24 -53.5t-9.5 -34q0 -6 4 -6 q37 0 76.5 18.5t103.5 63.5t74 51q3 1 10.5 6.5t14 9.5t10.5 4q10 0 16 -15.5t6 -29.5q0 -33 -67 -78q-107 -81 -184 -106q-8 -2 -29 -7t-38 -10.5t-28 -11.5q-28 -16 -50 -69t-35 -106t-37.5 -95.5t-57.5 -42.5q-35 0 -35 35q0 30 9.5 59.5t32.5 77.5t32 69q23 61 23 68 q0 9 -11 18.5t-26 22.5t-30.5 33t-26.5 58t-11 89zM188 408q0 -115 41 -115q11 0 73 124.5t108 225.5q1 3 15.5 33t26 58.5t11.5 41.5q0 8 -6 8q-57 0 -121.5 -65.5t-106 -154t-41.5 -156.5z" />
<glyph unicode="&#xa3;" horiz-adv-x="1071" d="M-66 125q0 39 17 96t45 113t73 95.5t93 39.5q33 0 58.5 -9t37.5 -20.5t22.5 -20.5t16.5 -9q10 0 40.5 68t43.5 124q5 21 -0.5 28t-28.5 7q-9 0 -42.5 -2t-43.5 -2q-30 0 -44.5 8.5t-14.5 32.5q0 29 38 37.5t90 8.5t68 7q11 5 20 15.5t18 29t14.5 31.5t14 38t11.5 33 q165 443 381 472q4 0 13.5 1t13.5 1q54 0 80 -29.5t26 -77.5q0 -72 -53 -152.5t-115 -80.5q-20 0 -27 12t-7 37q0 17 12.5 32.5t34 31t26.5 20.5l3 3q3 4 5 6.5t6 8t7 10l7 10.5t6.5 12l5 12t4 12t1.5 12q0 15 -11 26t-26 11q-33 0 -80 -41t-67 -70q-35 -52 -103.5 -199 t-78.5 -198q-2 -13 17 -17q15 -3 67 0q67 4 115.5 14.5t68.5 20t44.5 17.5t51.5 8q35 0 35 -43q0 -41 -56.5 -63t-127 -25.5t-144.5 -12.5t-98 -26q-13 -9 -24 -31t-25 -60t-20 -53q-5 -11 -15 -33.5t-17 -38.5t-14.5 -34t-11.5 -31.5t-4 -21.5q0 -53 73 -153.5t120 -100.5 q105 0 208 153q3 4 16.5 28.5t24 40.5t29.5 31t39 15q17 0 26 -10.5t9 -24.5q0 -70 -131 -201q-44 -45 -116.5 -81.5t-135.5 -36.5q-36 0 -69 22t-56 53.5t-42 63.5t-34 54t-24 22q-8 0 -36.5 -32.5t-61 -72t-78.5 -72t-85 -32.5q-57 0 -93 35t-36 98zM20 123q0 -45 37 -45 q50 0 105.5 69t77.5 142q8 27 -19.5 50t-54.5 23q-55 0 -115 -122q-31 -75 -31 -117z" />
<glyph unicode="&#xa5;" horiz-adv-x="1101" d="M18 213q0 37 54 52t119 15t121.5 12.5t60.5 43.5l4 33q-3 27 -49.5 36.5t-101 7t-99.5 5.5t-45 33q0 41 80 41q26 0 85 -5.5t83 -5.5t40.5 7.5t25 18t13.5 32t6.5 37t3 47t3.5 49.5q12 126 12 190q0 36 -2.5 70.5t-11 77.5t-22.5 74.5t-38.5 53t-56.5 21.5 q-18 0 -51.5 -32.5t-54.5 -32.5q-16 0 -25.5 10t-9.5 22q0 44 52 87.5t105 43.5q62 0 104 -30t62 -84t27.5 -108t7.5 -124q0 -40 -3 -105t-3 -85q0 -12 -2 -31.5t-4.5 -37t-4 -34t0 -26.5t6.5 -10q9 0 37 47t65 117t52 94q145 230 270 368q122 136 213 152q10 2 29 2 q44 0 67 -25.5t23 -70.5t-25 -86t-55 -41q-14 0 -24.5 9.5t-10.5 22.5q0 10 6 33t6 33q0 23 -16 23q-10 0 -26 -9.5t-28.5 -20t-25.5 -22t-14 -12.5q-123 -112 -217 -245t-213 -337q-5 -9 -21.5 -33t-28.5 -45t-12 -34q0 -27 43 -27q44 0 96 24.5t93.5 49t60.5 24.5 q11 0 24 -11.5t13 -31.5q0 -29 -40 -56t-77 -40t-69 -20q-18 -4 -76.5 -9.5t-97 -15.5t-42.5 -29l-8 -32q0 -24 28 -34t67.5 -11t79.5 -2.5t68 -13.5t28 -38q0 -36 -52 -36q-38 0 -109 6t-104 6q-21 0 -36 -8t-24 -24.5t-14.5 -32.5t-13 -43t-14.5 -44q-1 -4 -6.5 -20 t-9 -26t-9.5 -26t-12.5 -26t-14 -20.5t-17 -15.5t-19.5 -5q-42 0 -39 43q5 44 37.5 115.5t32.5 109.5q0 31 -45 31q-36 0 -66.5 -6t-69.5 -16.5t-71 -16.5q-25 -5 -41.5 6t-16.5 33z" />
<glyph unicode="&#xa8;" horiz-adv-x="546" d="M78 1036q0 31 23 51.5t55 20.5q31 0 47 -20t16 -54q0 -32 -29.5 -60t-62.5 -28q-49 0 -49 90zM317 1051q0 30 25.5 52.5t56.5 22.5q30 0 47 -18t17 -49q0 -30 -30 -62t-60 -32q-27 0 -41.5 26t-14.5 60z" />
<glyph unicode="&#xa9;" horiz-adv-x="1570" d="M166 424q0 127 37 247.5t90.5 205t115.5 153t109.5 104t75.5 44.5q14 4 40.5 4t37.5 4q28 8 68.5 37.5t54.5 36.5q134 59 276 59q127 0 215 -63t128 -165t40 -235q0 -195 -64.5 -346t-177.5 -287q-267 -317 -618 -317q-195 0 -311.5 146.5t-116.5 371.5zM276 430 q0 -115 38 -208t116.5 -149.5t185.5 -56.5q152 0 292 74t238.5 192.5t157 270.5t58.5 305q0 74 -15 135.5t-47 111.5t-88.5 78.5t-132.5 28.5q-187 0 -346 -112q-12 -9 -36 -37.5t-48 -48t-47 -19.5q-8 0 -24.5 4.5t-24.5 4.5q-9 0 -19.5 -6.5t-17.5 -13.5t-16.5 -18 t-12.5 -14q-211 -245 -211 -522zM479 489q0 163 152 328q133 147 307 172q14 2 43 2q137 0 137 -112q0 -34 -14.5 -78t-50 -82.5t-82.5 -38.5q-17 0 -32 13t-15 36q0 24 34.5 66.5t34.5 64.5q0 35 -39 35t-75 -13t-66 -37t-46 -40t-38 -41q-41 -46 -84 -136.5t-43 -160.5 q0 -54 31.5 -86.5t99.5 -32.5q39 0 79.5 17t67.5 37.5t58.5 37.5t56.5 17q12 0 21.5 -9t9.5 -22q0 -32 -45 -69.5t-84 -59.5q-104 -61 -205 -61t-157 71t-56 182z" />
<glyph unicode="&#xab;" horiz-adv-x="1112" d="M141 422q0 19 17.5 34t52 30.5t37.5 17.5q95 54 209 160q8 8 30 36.5t43.5 44t47.5 15.5q18 0 28 -9.5t10 -25.5q0 -14 -9 -31.5t-21 -31.5t-31 -32.5t-31.5 -29t-31.5 -25.5t-23 -18q-72 -57 -90 -70q-6 -5 -31 -18t-39.5 -25.5t-15.5 -25.5q21 -21 72.5 -70.5 t62.5 -60.5q66 -66 66 -117q0 -20 -15.5 -34.5t-38.5 -14.5q-16 0 -27.5 10.5t-25.5 34.5t-16 27q-56 76 -156 151q-2 2 -14 9.5t-17.5 11t-15.5 11.5t-14.5 14.5t-8.5 15t-4 16.5zM481 422q0 20 15 37t32 26t44 21.5t36 17.5q126 68 262 197l26.5 26.5t37 36t36.5 28.5 t36 15q45 0 45 -41q0 -16 -11 -33.5t-22.5 -27.5t-31.5 -25.5t-25 -19.5q-7 -6 -37 -33t-36.5 -32t-30 -24.5t-37 -29t-36.5 -25.5t-49 -32q-23 -14 -70.5 -48t-62.5 -44q55 -48 135 -154q4 -5 24.5 -31t30 -39.5t19.5 -35t10 -37.5t-13 -31.5t-32 -15.5q-14 0 -26.5 9 t-19.5 18.5t-17.5 27.5t-14.5 24q-13 19 -25.5 36t-31 37.5t-26.5 30t-34.5 37.5t-33.5 36q-4 5 -18 19t-23 24t-17 25.5t-8 29.5z" />
<glyph unicode="&#xad;" d="M145 369q0 16 11 31t28 18q474 39 521 39q33 0 50 -11.5t17 -27.5q0 -19 -22.5 -34.5t-59.5 -18.5q-55 -1 -225.5 -10t-284.5 -13q-35 -3 -35 27z" />
<glyph unicode="&#xae;" horiz-adv-x="995" d="M133 893q0 84 25 150.5t100 207.5q7 13 12 36.5t13 37.5q43 69 167.5 117.5t229.5 48.5q166 0 259 -103.5t93 -271.5q0 -122 -48.5 -231t-126.5 -183t-178.5 -117.5t-203.5 -43.5q-150 0 -246 96t-96 256zM217 895q0 -129 73 -204t193 -75q95 0 183.5 40t153 107t103 158 t38.5 189q0 140 -74.5 225.5t-204.5 85.5q-80 0 -152 -20t-104 -55q-8 -9 -17.5 -34.5t-15.5 -35.5q-8 -13 -32 -37.5t-33 -36.5q-111 -146 -111 -307zM289 795q0 14 6.5 23.5t13 13t20.5 9t19 7.5q42 22 77.5 84t55.5 122.5t47 108.5t56 49q17 0 29 -8t16 -16t4 -12 q0 -15 -29 -53.5t-29 -55.5q0 -20 35 -20q42 0 76.5 39.5t34.5 87.5q0 39 -28 61t-75 22q-58 0 -102 -39.5t-57 -74.5q-4 -10 -4.5 -36.5t-8 -41t-30.5 -14.5q-22 0 -35.5 21t-13.5 40q0 56 43.5 104.5t106.5 74.5t124 26q75 0 122.5 -37t47.5 -104q0 -25 -7 -47t-14 -37 t-26 -31.5t-27.5 -24t-35.5 -21t-33.5 -16.5t-36.5 -16q11 -12 20.5 -46.5t23 -59.5t40.5 -25q10 0 26 5t21 5q8 0 13 -9t5 -19q0 -27 -21 -43.5t-39 -20.5t-30 -4q-41 0 -63.5 32t-28.5 70t-21 70t-42 33q-89 -153 -121 -185q-30 -30 -72 -30q-23 0 -38 10.5t-15 28.5z" />
<glyph unicode="&#xb4;" horiz-adv-x="430" d="M55 938q0 12 5.5 22.5t17 23t14.5 17.5q98 112 166 232q18 35 55 35q22 0 37 -14t15 -37q0 -25 -19 -50q-94 -123 -223 -241q-24 -21 -41 -21q-12 0 -19.5 9.5t-7.5 23.5z" />
<glyph unicode="&#xb8;" horiz-adv-x="294" d="M-178 -438q0 18 11 30.5t32 12.5q4 0 15.5 -1t21.5 -1q69 0 124.5 43t55.5 100q0 32 -16.5 46.5t-36 15t-36 9.5t-16.5 31q0 69 177 246l79 -28q-26 -10 -80 -79t-81 -118q63 -6 89.5 -29.5t26.5 -81.5q0 -70 -51.5 -127t-124 -85.5t-145.5 -28.5q-22 0 -33.5 13 t-11.5 32z" />
<glyph unicode="&#xbb;" horiz-adv-x="1112" d="M57 98q-2 23 10 41.5t45.5 45.5t34.5 28q31 29 62 55t47 37.5t60 43t61 44.5q7 5 33 20.5t51 33t47 38.5q-71 83 -135 150l-9 11q-9 10 -17.5 20t-20.5 26.5t-20.5 31.5t-14.5 32t-6 30q0 21 17.5 36.5t41.5 15.5q12 0 22.5 -8t15.5 -16t14.5 -25.5t13.5 -24.5 q4 -6 25.5 -42t41.5 -64t39 -48q12 -12 46 -43t51.5 -51.5t17.5 -36.5q0 -38 -35.5 -67.5t-97.5 -58t-72 -34.5q-124 -82 -221 -172q-5 -5 -26 -31.5t-39.5 -40.5t-39.5 -14q-17 0 -29 11.5t-14 25.5zM485 170q0 7 2 14t6 14t8 13t10.5 13t10 11t11 11t8.5 8q15 15 31 29.5 t26.5 24t29 24t27 20.5t33 24t33.5 25q2 1 38 22.5t68 45.5q-25 17 -67.5 62t-50.5 51q-35 29 -59.5 67.5t-24.5 69.5q0 22 15.5 37.5t39.5 15.5q6 0 11.5 -1.5t9.5 -3.5t9 -7l7.5 -7.5t7.5 -10t6 -9.5t6 -11.5t6 -10.5q30 -52 71 -96t71 -65.5t51.5 -42.5t21.5 -36 q0 -16 -13 -31t-27 -24t-38 -21.5t-32 -17.5q-74 -44 -125.5 -82t-108.5 -94q-3 -3 -17.5 -19t-24 -25.5t-24.5 -18.5t-26 -9q-14 0 -25.5 13t-11.5 28z" />
<glyph unicode="&#x2c6;" horiz-adv-x="546" d="M66 977q0 21 18 33q110 63 199 159q4 5 16 20.5t20 25.5t21.5 19t26.5 9q14 0 27 -10.5t14 -26.5q8 -69 26 -129q2 -7 17.5 -44.5t15.5 -59.5q0 -21 -14 -35t-33 -14q-27 0 -41 26q-11 17 -19 39t-11.5 38.5t-8.5 42t-8 38.5q-38 -42 -62.5 -67t-65.5 -55.5t-83 -47.5 q-12 -4 -17 -4q-16 0 -27 13.5t-11 29.5z" />
<glyph unicode="&#x2da;" horiz-adv-x="428" d="M68 1026q0 74 55.5 130t124.5 56q70 0 99.5 -44t29.5 -105q0 -66 -58 -117t-126 -51q-52 0 -88.5 35.5t-36.5 95.5zM164 1036q0 -20 14.5 -34.5t34.5 -14.5q38 0 61 29.5t23 66.5q0 26 -15.5 36.5t-29.5 10.5q-36 0 -62 -27t-26 -67z" />
<glyph unicode="&#x2dc;" horiz-adv-x="677" d="M68 993q0 42 68 92t114 50q44 0 112 -46.5t99 -46.5q17 0 33.5 12t48.5 44q20 20 39 20q28 0 28 -41q0 -45 -67 -92t-115 -47q-40 0 -102 41t-99 41q-49 0 -90 -41q-21 -21 -39 -21q-13 0 -21.5 10t-8.5 25z" />
<glyph unicode="&#x401;" horiz-adv-x="866" d="M-57 270q0 131 74.5 256t197.5 183q15 8 64.5 27t80.5 34.5t31 26.5q0 12 -29.5 51.5t-39.5 62.5q-33 73 -33 152q0 112 67 207.5t176 150t232 54.5q119 0 196.5 -68t77.5 -180q0 -125 -80 -218.5t-184 -93.5q-180 0 -180 201l-2 4q-14 0 -62.5 -97.5t-48.5 -145.5 q0 -20 19.5 -37t43 -26.5t43 -25.5t19.5 -36q0 -27 -34.5 -35.5t-77.5 -11t-54 -11.5q-13 -28 -18 -71.5t-4.5 -83t-1 -76t-12.5 -58.5t-35 -22q-19 3 -24 24.5t-5 61.5q0 29 2 57t3.5 41t7 53t7.5 56q-50 -10 -103.5 -42.5t-101 -81.5t-78 -118.5t-30.5 -142.5 q0 -99 67 -163.5t173 -64.5q124 0 271.5 86t281.5 220q14 14 30 14q15 0 26 -13t11 -30t-10 -27q-354 -354 -623 -354q-164 0 -247.5 88.5t-83.5 222.5zM383 1032q0 -65 33 -94q55 131 116 225q1 1 7 10.5t10 15.5t12.5 18t15 20t16 20t17 20t17.5 17t18.5 14.5t17.5 9 t17 3.5q17 0 26 -10.5t9 -22.5q0 -26 -21.5 -82t-21.5 -88q0 -49 31 -78t73 -29q71 0 117.5 73.5t46.5 152.5q0 78 -49 121t-133 43q-149 0 -262 -105t-113 -254zM590 1712q0 31 23 51.5t55 20.5q31 0 47 -20t16 -54q0 -32 -29.5 -60t-62.5 -28q-49 0 -49 90zM829 1726 q0 30 25.5 53t56.5 23q30 0 47 -18t17 -49q0 -30 -30 -62.5t-60 -32.5q-27 0 -41.5 26t-14.5 60z" />
<glyph unicode="&#x402;" horiz-adv-x="1490" d="M-92 203q0 78 30 142.5t75 103t93.5 59t90.5 20.5q31 0 55 -11t67 -40q37 54 118 119.5t132 97.5q12 8 49 26t50 32q14 15 24 33.5t20.5 43.5t16.5 37q82 169 111 242q36 92 34 117q0 20 -23 27.5t-71 7.5q-28 0 -62.5 -2.5t-66.5 -6t-41 -4.5q-67 -7 -118 -16.5 t-98.5 -26.5t-73 -44t-25.5 -64q0 -48 51.5 -85.5t117 -55t122.5 -17.5h32q27 0 40.5 -7.5t13.5 -31.5q0 -43 -82 -43q-40 0 -86.5 6t-102.5 22.5t-101 42t-75 68.5t-30 97q0 36 13 66t34 52.5t54 41t65 30.5t76.5 22t79.5 15.5t81.5 9.5t75.5 5.5t69.5 3.5t55.5 3 q8 0 26 -1t27 -1q34 0 61 16t27 52q0 10 -7 19.5t-18 9.5q-7 0 -29 -9.5t-34 -9.5t-22.5 12t-10.5 25q0 28 36 52.5t63 31.5q3 0 10 1t10 1q76 0 76 -76q0 -9 -1 -28.5t-1 -28.5q0 -40 18.5 -54t83.5 -14q178 0 260 4t187 23q69 12 92 12q51 0 51 -39q0 -16 -12 -29t-36 -21 t-48 -13.5t-58.5 -8t-58 -4t-56 -2.5t-42.5 -1q-9 0 -29.5 -1.5t-30.5 -1.5q-31 0 -102.5 1.5t-120.5 1.5q-83 0 -106 -13q-19 -12 -38 -51.5t-38.5 -97.5t-24.5 -70q-4 -9 -28 -59.5t-37 -84.5t-13 -55q0 -18 47 -18q22 0 76 5t76 5q141 0 223 -83t82 -218q0 -42 -10 -104 q0 -3 -12.5 -46t-12.5 -61q0 -24 29 -24q17 0 38 10t34.5 19.5t40 32t37.5 30.5q17 13 35 4.5t21.5 -27t-9.5 -39.5q-34 -44 -95 -71q-29 -18 -101.5 -47t-102.5 -52q-11 -8 -22.5 -22.5t-26 -36.5t-21.5 -31q-194 -267 -393 -397q-160 -104 -287 -104q-68 0 -122 43.5 t-54 130.5q0 60 31 120.5t67 96.5q84 87 216 138t321 91q15 3 62.5 11t80 17t57.5 25q37 23 66 110t29 175q0 221 -262 221q-133 0 -213 -59q-23 -17 -43.5 -48.5t-44.5 -76.5t-39 -68q-90 -132 -136 -184q-4 -5 -13 -15q-34 -39 -53 -60.5t-55.5 -59t-65.5 -59t-66.5 -45.5 t-75.5 -35t-76 -11q-87 0 -130.5 58.5t-43.5 132.5zM6 199q0 -95 74 -95q47 0 108 33.5t103 69.5q44 37 128 137t122 176q14 35 0 35q-57 0 -181 -160q-1 -2 -10.5 -17t-16 -25.5t-18 -26t-20.5 -25.5t-19 -17.5t-18 -7.5q-27 3 -27 37q0 9 3.5 31t3.5 31q0 63 -45 63 q-41 0 -78 -28.5t-60 -68.5t-36 -78.5t-13 -63.5zM385 -268q0 -47 28 -70.5t74 -23.5q85 0 224.5 99.5t251.5 219.5q96 104 94 133q0 16 -19 16q-5 0 -16.5 -1t-17.5 -1q-147 -20 -286.5 -72t-236 -132.5t-96.5 -167.5z" />
<glyph unicode="&#x403;" horiz-adv-x="1046" d="M-184 131q0 88 67 167t160 79q58 0 162 -53q11 -6 36.5 -28t51 -38t47.5 -16q59 0 185 197.5t230.5 409.5t151.5 333q0 11 -14 13.5t-58 2.5h-6h-5.5h-6.5h-53t-59 -1t-66.5 -3t-65.5 -5.5t-66.5 -9t-59.5 -13t-54 -19t-40.5 -25.5t-28.5 -32.5t-9 -40.5q0 -99 103 -99 q42 0 72.5 16t68.5 52q10 10 27 10q13 0 21.5 -8.5t8.5 -22.5q0 -42 -37.5 -77.5t-87.5 -53.5t-96 -18q-68 0 -120 45t-52 131q0 50 19.5 89.5t52 66.5t85.5 47t108 31t132 17.5t145.5 8.5t160.5 2q15 0 30 32.5t15 78.5q0 8 -8 8q-11 0 -36 -14.5t-38 -14.5q-10 0 -16.5 9 t-6.5 20q0 35 50.5 60.5t82.5 25.5q34 0 56 -22.5t22 -67.5q0 -17 -5 -42.5t-5 -31.5q0 -14 12 -17t51 -3q103 0 186 12.5t131.5 30.5t85 36.5t65 31t51.5 12.5q14 0 28.5 -11.5t14.5 -29.5q0 -38 -45.5 -68t-121 -48t-152.5 -28.5t-161 -15.5q-11 -1 -46 -2.5t-55 -3 t-45 -6.5t-38 -13q-10 -10 -18.5 -26t-18.5 -42t-16 -40q-15 -32 -76.5 -164.5t-88.5 -186t-82 -155.5t-109.5 -180.5t-118.5 -153.5q-1 -1 -14 -15t-21 -24t-16.5 -23.5t-8.5 -21.5q0 -7 25 -23t71 -30.5t91 -14.5q38 0 77.5 15t86.5 50t75.5 59t84.5 77t75 70q13 10 25 10 q15 0 25.5 -13.5t10.5 -31.5q0 -17 -10 -27q-151 -149 -268.5 -228t-224.5 -79q-81 0 -160 39q-18 8 -46 28.5t-36 20.5q-22 0 -73.5 -26.5t-61.5 -30.5q-114 -43 -217 -43q-79 0 -126.5 37.5t-47.5 99.5zM-90 170q0 -86 110 -86q44 0 130 26t86 50q0 28 -95.5 69t-122.5 41 q-51 0 -79.5 -28.5t-28.5 -71.5zM1149 1585q0 12 5.5 22.5t17 23.5t14.5 18q100 114 166 231q18 35 55 35q22 0 36.5 -14t14.5 -37q0 -25 -18 -49q-96 -127 -223 -242q-24 -21 -41 -21q-12 0 -19.5 9.5t-7.5 23.5z" />
<glyph unicode="&#x404;" horiz-adv-x="860" d="M10 512q0 23 18.5 47.5t43 47t30.5 34.5q15 24 30 77.5t20 65.5q41 108 114 228t163.5 227.5t197.5 177.5t202 70q87 0 127.5 -57t40.5 -148q0 -90 -37.5 -185.5t-102.5 -161t-134 -65.5q-94 0 -94 138q0 59 45 128.5t82 69.5q15 0 27 -13.5t12 -27.5q0 -27 -19 -50.5 t-38 -51.5t-19 -66q0 -15 9 -27t26 -12q20 0 43.5 22t34.5 39t16 28q25 41 46 113.5t21 131.5q0 117 -88 117q-12 0 -24 -2t-24.5 -7t-22.5 -8.5t-23.5 -12t-21 -13t-22 -15.5t-19 -14.5t-19 -15t-16.5 -12.5q-226 -180 -363 -478q0 -1 -14.5 -27.5t-26.5 -54t-12 -42.5 q0 -23 33 -15q75 23 115 23q39 0 126.5 -22.5t143.5 -22.5q12 0 30.5 5.5t33 11t28 8t21.5 -5.5t8 -27q0 -32 -57 -52t-103 -22h-23q-53 0 -122.5 16.5t-90.5 16.5q-65 0 -104.5 -13.5t-60.5 -48.5t-28 -80.5t-7 -122.5q0 -59 11 -109t34 -90.5t62 -63.5t91 -23 q58 0 113 18.5t107.5 56.5t88.5 69t90 84.5t77 74.5q19 17 40.5 9.5t25.5 -28t-13 -41.5q-1 -1 -24 -25t-39 -39t-48 -45.5t-60 -52t-66 -49.5t-74.5 -47.5t-76.5 -38t-81.5 -27.5t-81.5 -9q-87 0 -150 48.5t-92.5 124t-29.5 166.5q0 11 -1.5 38t-1.5 44q0 37 -8.5 52.5 t-18 15t-18 8.5t-8.5 35z" />
<glyph unicode="&#x405;" horiz-adv-x="858" d="M-47 213q0 70 37.5 159t101.5 156.5t129 67.5q28 0 43.5 -22t19 -49.5t9 -66.5t12.5 -59q8 -25 21 -50t38.5 -51t53.5 -26q51 0 51 95q0 56 -20 125.5t-43.5 126t-43.5 133.5t-20 147q0 107 37.5 207.5t102.5 175.5t158 120.5t198 45.5q107 0 164 -63.5t57 -145.5 q0 -72 -31 -146.5t-77 -129.5t-102 -90t-104 -35q-52 0 -83 32.5t-31 90.5q0 27 16 52t45 25q23 0 31 -17t5.5 -38t4 -38t27.5 -17q46 0 97.5 50t84.5 120t33 127q0 65 -35.5 100t-105.5 35q-159 0 -273.5 -133t-114.5 -316q0 -33 4 -67.5t8 -57.5t14.5 -60.5t15 -51 t19.5 -56t17 -49.5q3 -10 12.5 -38t14.5 -44t9.5 -41t4.5 -47q0 -46 -7 -84.5t-7 -46.5q0 -14 18 -14q41 0 127.5 34.5t143.5 90.5q4 4 16 4q17 0 33 -9.5t16 -23.5q0 -16 -24 -37q-155 -126 -351 -147q-19 -9 -47 -34t-57.5 -51.5t-66 -53t-87.5 -43.5t-108 -17 q-100 0 -155.5 72.5t-55.5 173.5zM41 215q0 -70 30 -115t93 -45q101 0 168 54q1 1 10 8.5t14.5 12t12.5 12t10.5 14.5t3.5 14q0 15 -66 39q-34 17 -62.5 63.5t-39.5 100.5q-21 100 -35 100q-39 0 -72.5 -50t-50 -108.5t-16.5 -99.5z" />
<glyph unicode="&#x406;" horiz-adv-x="712" d="M98 -23q0 48 22.5 115t40 102.5t48.5 94.5q117 215 444 786q-22 -5 -60.5 -43t-73.5 -79.5t-71.5 -76t-54.5 -34.5q-12 0 -19 11.5t-7 23.5q0 28 26 60t95 96.5t114 113.5q20 22 62.5 80t75 86t69.5 28q26 0 40.5 -17.5t14.5 -47.5q0 -24 -8 -53.5t-27.5 -67.5t-31 -59.5 t-39.5 -67t-33 -53.5q-237 -409 -461 -834q-49 -95 -51 -151q0 -27 9 -38t32 -11q35 0 74.5 28.5t72 57t52.5 28.5q26 0 26 -28q0 -27 -37 -72.5t-98.5 -83t-116.5 -37.5q-65 0 -97 43t-32 100zM907 1599q0 43 27 74t72 31q27 0 37 -12.5t10 -40.5q0 -34 -33 -74.5 t-70 -40.5q-43 0 -43 63z" />
<glyph unicode="&#x407;" horiz-adv-x="841" d="M-256 -193q0 70 34 136t95 108q14 10 31.5 19.5t37.5 16.5t34.5 1.5t15.5 -25.5q1 -17 -12 -31.5t-35.5 -29t-26.5 -18.5q-36 -31 -55 -66t-19 -90q0 -59 47.5 -104.5t126.5 -45.5q168 0 322 367q29 70 89.5 228.5t112.5 280t109 224.5q2 3 11.5 21t15 28t14.5 28t14 30 t9 25.5t4 21.5q0 10 -8 14q-48 20 -92.5 71.5t-72 100.5t-62 88t-66.5 39q-52 0 -83.5 -46.5t-31.5 -102.5q0 -88 78 -88q25 0 49 6q21 5 35 -9t14 -40q0 -30 -30 -44t-72 -14q-64 0 -108 51.5t-44 133.5q0 102 56 179t133 77q70 0 115.5 -38t88.5 -112q32 -55 80 -110.5 t80 -55.5q14 0 38 31.5t53.5 78.5t39.5 60q73 92 134 135t120 43q58 0 58 -55q0 -41 -30.5 -102t-55.5 -93t-75.5 -81t-84.5 -70q-21 -13 -61 -26.5t-56 -22.5q-11 -7 -22.5 -19.5t-25.5 -35t-21 -34.5t-22.5 -42t-16.5 -33q-73 -145 -139.5 -321.5t-122.5 -323t-113 -246.5 q-82 -143 -171 -219t-206 -76q-124 0 -189 65.5t-65 161.5zM641 1548q0 31 23 51.5t55 20.5q31 0 47 -20t16 -54q0 -32 -29.5 -60t-62.5 -28q-49 0 -49 90zM881 1563q0 30 25.5 52.5t56.5 22.5q30 0 46.5 -18t16.5 -49q0 -30 -30 -62t-60 -32q-27 0 -41 25.5t-14 60.5z M930 1053q36 6 103 77t67 97q0 8 -10 8q-28 0 -86 -68.5t-74 -113.5z" />
<glyph unicode="&#x408;" horiz-adv-x="851" d="M-223 -260q0 58 25 109.5t70.5 90.5t96.5 70t118 56t119 40.5t113 30.5q12 3 15 13q148 412 268 628q66 122 66 154q0 11 -6 14q-48 20 -92.5 71.5t-72 100.5t-62 88t-66.5 39q-52 0 -83.5 -46.5t-31.5 -102.5q0 -90 78 -90q9 0 28.5 4t28.5 4q18 0 29.5 -13t11.5 -36 q0 -30 -30 -44t-72 -14q-64 0 -108 51.5t-44 133.5q0 102 56 179t133 77q70 0 115.5 -38t88.5 -112q31 -54 79.5 -110t78.5 -56q15 0 39 31t54 78.5t40 60.5q138 178 254 178q57 0 57 -55q0 -41 -30.5 -102t-55.5 -93t-75 -81t-84 -70q-21 -13 -61 -26.5t-56 -22.5 q-8 -5 -16.5 -13.5t-17.5 -21t-16.5 -23.5t-17 -28t-15 -27t-14.5 -27.5t-12 -23.5q-29 -57 -54 -113t-53.5 -126.5t-40 -100t-44 -117t-35.5 -94.5q-1 -2 -3 -8t-3.5 -12t-1.5 -11q0 -12 16 -8q227 62 342 197q13 8 29 8q17 0 27 -10t10 -25q0 -20 -15 -35 q-63 -62 -142 -107.5t-140.5 -68t-147.5 -45.5q-21 -8 -26 -24q-54 -124 -92 -191q-84 -147 -166 -221t-195 -74q-76 0 -132 43t-56 117zM-111 -244q0 -41 33 -62.5t70 -21.5q33 0 64.5 15t60 47.5t50.5 62.5t47.5 81.5t38.5 80.5t36 82q2 5 0 6t-8 0q-58 -15 -116 -37.5 t-125 -58t-109 -86.5t-42 -109zM881 1053q37 6 103.5 76t66.5 96q0 8 -11 8q-27 0 -85 -68t-74 -112z" />
<glyph unicode="&#x409;" horiz-adv-x="1712" d="M-94 156q0 73 35 170t93 170t113 73q37 0 37 -37q0 -36 -27.5 -85t-60.5 -91.5t-60.5 -102t-27.5 -114.5q0 -67 60 -67q91 0 284 250q47 62 496 659q29 40 62 78.5t83.5 88.5t106 81t104.5 31q92 0 92 -115q0 -94 -69 -271q-26 -65 -68 -145q10 3 43 12t48 13t41 9.5 t46 8t39 2.5q77 0 130 -57t53 -135q0 -85 -51 -192.5t-126.5 -198.5t-171 -153.5t-176.5 -62.5q-76 0 -114.5 65t-38.5 165q0 121 69 321q-35 -12 -47 -12q-20 0 -20 25q0 20 15 37t34 27.5t39.5 25.5t27.5 30l103 211l12 24t23 47.5t25 56t21.5 59.5t8.5 49q0 37 -27 37 q-25 0 -47 -8.5t-43.5 -29t-31 -30.5t-31.5 -37q-116 -142 -319.5 -419.5t-295.5 -395.5q-199 -256 -364 -256q-127 0 -127 189zM985 201q0 -64 18 -95.5t66 -31.5t115 51t124.5 124t98.5 161.5t41 156.5q0 113 -119 113q-102 0 -213 -62q-30 -26 -65.5 -115.5t-46.5 -146.5 q-19 -88 -19 -155z" />
<glyph unicode="&#x40a;" horiz-adv-x="1589" d="M-88 186q0 73 41.5 146.5t87.5 73.5q18 0 31.5 -12.5t13.5 -31.5q0 -22 -34 -81t-34 -103t19.5 -64t42.5 -20q71 0 162 193q49 104 113 269t91 230q6 16 33 76t46.5 108t19.5 60q0 11 -12.5 25t-31.5 29.5t-26 23.5q-23 24 -60.5 70t-60 72t-58.5 47.5t-73 21.5 q-40 0 -68 -22.5t-28 -65.5q0 -52 21 -79.5t75 -27.5q12 0 37.5 6.5t40.5 6.5q44 0 55 -37t-21 -68q-29 -28 -79 -28q-91 0 -156 54.5t-65 166.5q0 88 64 150.5t145 62.5q70 0 115.5 -39.5t111.5 -134.5q3 -4 13.5 -22t20 -32.5t22 -30.5t27 -24.5t28.5 -7.5q11 1 34 41 t54 96t68 112t85.5 95t96.5 39q28 0 45.5 -17t22.5 -36.5t5 -40.5q0 -9 -1 -18.5t-2.5 -17.5t-5 -18.5t-5.5 -17.5t-7 -18t-7 -16.5t-8 -16.5t-8 -14.5t-8 -15t-7 -13.5q-69 -134 -168 -185q-15 -8 -45 -17.5t-41 -14.5q-10 -4 -27 -38.5t-42 -97t-31 -75.5q61 22 98 22 q36 0 62 -17.5t26 -53.5q0 -26 -16.5 -99.5t-16.5 -103.5q0 -60 53 -60q24 0 51.5 12.5t42.5 24t47.5 39t39.5 33.5q13 17 31 55t28 54q17 28 70.5 119.5t78.5 132t73.5 109.5t97.5 128q28 34 44.5 53t47.5 52t55.5 50t40.5 17q25 0 38 -8.5t13 -36.5q0 -20 -14 -43t-29 -38 t-38.5 -36t-28.5 -26q-98 -99 -211 -259.5t-148 -256.5q139 57 230 57q82 0 120.5 -40t38.5 -126q0 -103 -52 -221t-126.5 -209t-158.5 -152t-146 -61q-53 0 -89.5 19.5t-55 56.5t-26 78.5t-7.5 95.5q0 40 8 110q3 21 18 67.5t15 68.5q0 11 -13 24q-74 -33 -112 -33 q-47 0 -86 32.5t-39 84.5q0 29 12 87t12 85q0 29 -9 36.5t-21.5 1.5t-32 -15t-33.5 -9q-16 0 -22 15q-20 -43 -43 -112t-35 -101q-94 -239 -151 -341q-114 -202 -224 -202q-89 0 -132.5 52.5t-43.5 131.5zM735 1171q53 20 102 95t58 129q-36 -22 -86 -90t-74 -134zM938 182 q0 -133 78 -133q60 0 129.5 60.5t123.5 144t90 173t36 146.5q0 46 -26 70.5t-75 24.5q-66 0 -147 -34.5t-109 -70.5q-36 -48 -68 -158t-32 -223z" />
<glyph unicode="&#x40b;" horiz-adv-x="1454" d="M-78 211q0 83 45 155t112 111t134 39q15 0 27 -3t23.5 -11t17 -13t18 -19.5t16.5 -18.5q38 47 76 85.5t81.5 71.5t68.5 50.5t76.5 49t66.5 40.5q15 19 32 50t28 56.5t29 69t26 61.5q4 10 23 51t30 72q2 6 13.5 34.5t18.5 51t7 37.5q0 18 -11.5 24.5t-39.5 6.5 q-20 0 -45.5 -3t-48.5 -7t-29 -5q-183 -23 -240 -36q-177 -43 -178 -130q0 -30 16 -54.5t44.5 -40t58.5 -26t67.5 -16.5t60.5 -8.5t48 -3.5q4 0 16 -0.5t18.5 -1t17.5 -1.5t17.5 -3.5t13.5 -5.5t10 -8t3 -11q0 -25 -24.5 -36t-55.5 -11q-46 0 -96.5 6.5t-106 23.5t-99 42 t-71.5 66t-28 91q0 62 40 108.5t104 72t141 43t154.5 26.5t141.5 16.5t104 19t40 28.5q0 16 -12 16q-6 0 -26.5 -6t-31.5 -6q-12 0 -23.5 10.5t-11.5 28.5q0 28 35 54t62 32q16 4 26 4q35 0 53 -16t23 -39t9 -46t19.5 -39t47.5 -16q81 0 225 7.5t266 7.5q113 0 113 -46 q0 -15 -12 -25t-36.5 -13.5t-40 -4t-43.5 -0.5h-11q-208 0 -365 -12q-13 -1 -42 -2.5t-47.5 -2.5t-40.5 -5t-34 -10q-10 -6 -23.5 -26.5t-27.5 -52t-23.5 -56t-22 -57.5t-13.5 -36q-9 -19 -31 -70.5t-39 -86.5q-20 -33 -20 -62q0 -13 9.5 -17.5t35.5 -4.5q24 0 71 5t56 5 q162 0 248.5 -82.5t86.5 -226.5q0 -141 -68.5 -258t-168.5 -195q-109 -78 -172 -82q-12 0 -25.5 9t-9.5 22q5 16 33.5 36.5t63.5 40t44 27.5q72 64 138.5 180t66.5 228q0 108 -69 162.5t-193 54.5q-141 0 -221 -59q-23 -16 -47 -53.5t-49.5 -85t-38.5 -66.5 q-82 -122 -150.5 -200t-169.5 -161q-119 -100 -227 -100q-80 0 -119 60t-39 151zM16 184q0 -40 22 -68t60 -28q69 0 189 98q133 116 243 306q21 38 21 40q-1 5 -11 4.5t-14 -4.5q-84 -52 -161 -170q-3 -5 -17 -27t-23.5 -35.5t-24 -26.5t-26.5 -13q-11 0 -17.5 6t-9 21 t-3 24.5t-0.5 32.5q0 20 -1 32t-5 26.5t-13 21t-24 6.5q-68 0 -126.5 -80.5t-58.5 -165.5z" />
<glyph unicode="&#x40c;" horiz-adv-x="1288" d="M-16 1004q0 39 6 88.5t22 108.5t39.5 107t62 80.5t85.5 32.5q39 0 78.5 -16.5t74.5 -39.5t74 -46.5t94 -40t117 -16.5q26 0 48 21t37 46.5t42.5 46.5t62.5 21q33 0 50.5 -15.5t17.5 -38.5q0 -26 -7.5 -47.5t-16 -34.5t-27.5 -26.5t-30.5 -19t-38 -17t-36.5 -16.5 q-16 -8 -33.5 -30t-28 -42.5t-26.5 -54t-22 -45.5q-10 -20 -70 -137.5t-84.5 -169.5t-63 -145t-59.5 -167q9 0 15.5 1.5t13 8t9 9.5t10 14.5t10.5 15.5q66 86 200.5 275.5t244.5 331t212 243.5q84 84 125 86q17 0 26 -12t9 -29q0 -18 -8 -42.5t-22 -54.5t-15 -32 q-16 -39 -46 -105t-47.5 -115t-33.5 -114q-33 -141 -80 -141q-43 0 -43 51q0 16 5 38.5t10.5 39t13 37.5t8.5 25q10 27 50 104.5t46 108.5q-24 -1 -50 -25.5t-58.5 -70t-36.5 -50.5q-40 -49 -99 -131q-11 -16 -105.5 -139.5t-133.5 -190.5q128 78 209 78q43 0 66.5 -28.5 t23.5 -79.5q0 -76 -54.5 -244.5t-54.5 -206.5q0 -37 27 -37q26 0 64 18.5t69.5 40.5t83 66.5t78.5 70t82 77.5q12 9 32.5 36t41 46.5t42.5 19.5q9 0 22 -10t13 -25q0 -11 -6.5 -23.5t-19.5 -27.5t-22.5 -25.5t-27 -27t-22.5 -21.5q-13 -13 -55.5 -56.5t-64.5 -64.5 t-63.5 -59.5t-72 -59.5t-69.5 -44.5t-76.5 -34t-73.5 -10.5q-92 0 -92 116q0 62 26 161.5t52 187t26 120.5q0 31 -18 31q-34 0 -71 -16t-57.5 -31.5t-58 -48.5t-47.5 -41q-7 -6 -39 -6q-23 0 -64 -58.5t-91 -147.5t-60 -104q-2 -3 -8 -13l-9 -15t-9 -13.5t-11 -13.5 t-11.5 -10t-13.5 -7.5t-14 -2.5q-37 0 -37 47q0 53 43 179.5t102 277.5t75 204q-8 -4 -25 -11.5t-23 -10.5t-19 -8.5t-19 -7.5t-16 -5.5t-17 -4.5t-15.5 -2t-17.5 -1q-77 0 -131 53t-77 132.5t-23 177.5zM80 985q0 -106 43.5 -175t101.5 -69q39 0 74.5 34t67.5 78.5t53 57.5 q1 0 3.5 1t4.5 1q3 0 4 -0.5t1.5 -2.5t0.5 -4t2 -5.5t6 -7.5q17 31 47 92t55 109t48 82q-70 -7 -129 6t-96.5 37t-66.5 49t-54 43t-45 18q-54 0 -87.5 -101t-33.5 -243zM1014 1503q0 12 5.5 22.5t17 23.5t14.5 18q100 114 166 231q18 35 55 35q22 0 36.5 -14t14.5 -37 q0 -25 -18 -49q-94 -124 -224 -242q-24 -21 -41 -21q-12 0 -19 9.5t-7 23.5z" />
<glyph unicode="&#x40e;" horiz-adv-x="1099" d="M-106 168q0 53 22.5 114t71 109.5t108.5 48.5q28 0 59.5 -9.5t51 -19.5t52 -29t42.5 -24q11 -6 31.5 -22.5t38 -27.5t30.5 -11q28 0 103 65q150 123 280 289q-82 -35 -161 -35q-53 1 -93.5 27t-66 73.5t-41.5 99t-27 118.5q-20 136 -22 203q-6 170 -51 170q-34 0 -69 -62 t-57 -152t-22 -169q0 -31 -1.5 -50t-6.5 -39t-16 -29t-29 -9q-47 0 -47 116q0 51 10 119q18 117 84 228q34 56 83.5 102.5t102.5 46.5q29 0 51.5 -21t35.5 -50.5t22 -73.5t12.5 -76.5t7 -75t4.5 -53.5q1 -9 4.5 -43t6 -54.5t9 -55.5t13.5 -58t20.5 -50.5t30 -43.5 t40.5 -27.5t53 -11.5q68 0 132 30.5t112 77t92 112.5t73.5 126t56.5 129q6 13 17 55.5t21.5 75t33 60.5t51.5 28q45 0 45 -53q0 -63 -45 -150q-171 -366 -503 -725q-71 -79 -134 -137q-3 -3 -24 -19.5t-38 -31t-32 -31.5t-14 -26q3 -33 74 -62t120 -29q44 0 91.5 18.5 t98 54.5t89 69t90.5 82q18 17 40 11t27.5 -25t-10.5 -40q-122 -126 -222 -192t-214 -66q-86 0 -168 43q-14 6 -39 21.5t-45 25.5t-34 11q-14 0 -34 -10t-44.5 -27t-32.5 -21q-51 -33 -121 -61.5t-131 -28.5q-66 0 -107.5 44.5t-41.5 113.5zM-10 201q0 -37 20.5 -64.5 t59.5 -27.5q95 0 235 108q-26 38 -99.5 72.5t-125.5 34.5q-17 0 -23 -2q-28 -7 -47.5 -43.5t-19.5 -77.5zM51 1708q0 9 4.5 18t9.5 15.5t16 15.5t16.5 13t18.5 12.5t15 9.5q112 69 208.5 108t205.5 39q106 0 193 -38t130 -97q62 -86 62 -209q0 -44 -11.5 -100t-37 -102.5 t-56.5 -46.5q-15 0 -26 8t-11 24q0 28 28 98.5t28 114.5q0 130 -84.5 199.5t-218.5 69.5q-168 0 -377 -129q-6 -4 -26 -18.5t-36.5 -24t-27.5 -9.5q-10 0 -16.5 8.5t-6.5 20.5z" />
<glyph unicode="&#x40f;" horiz-adv-x="1380" d="M106 618q0 76 39 163t102 165.5t126.5 141t126.5 112.5q50 40 118.5 75.5t110.5 35.5q113 0 113 -99q0 -50 -56.5 -165t-137 -251.5t-160.5 -275.5t-136.5 -265.5t-56.5 -193.5q0 -26 16 -26q14 0 38 14t53.5 39t54 47.5t56.5 52.5t44 41q107 96 234 230 q38 40 103.5 104.5t123 124.5t112.5 127q2 2 17 20.5t23 27t22.5 22t27 20t23.5 6.5q16 0 24.5 -10.5t8.5 -23.5q0 -18 -11 -44t-22 -45t-26.5 -42.5t-16.5 -24.5q-65 -109 -107 -190.5t-81 -186.5q-3 -7 -12 -31t-14 -38.5t-12 -36t-10 -40.5t-3 -36q0 -60 32 -60 q7 0 21 3.5t20 3.5q10 0 17.5 -7.5t7.5 -19.5q0 -29 -41 -56.5t-84 -27.5q-39 0 -64.5 27t-25.5 86q0 66 33 160.5t65.5 165t32.5 77.5q0 8 -6 8q-13 0 -51.5 -43.5t-55.5 -66.5q-87 -100 -180 -190t-236 -218q-41 -38 -97 -74t-103 -36q-37 0 -58.5 26.5t-21.5 73.5 q0 92 84 293q125 291 332 618q1 2 28.5 44t54.5 86t50.5 92t23.5 69q0 16 -14 16q-15 0 -30 -2.5t-30 -8.5t-25.5 -10.5t-26.5 -15t-21.5 -14.5t-23 -16.5t-19.5 -14.5q-123 -94 -231.5 -233t-108.5 -231q0 -34 15.5 -67t15.5 -48q0 -20 -20.5 -35.5t-39.5 -15.5 q-32 0 -53 35t-21 83zM147 -657q0 60 54 120t118 60q41 0 41 -25q0 -14 -18.5 -28t-40.5 -25t-40.5 -36t-18.5 -60q0 -45 47 -45q51 0 88 37.5t53 89t16 108.5q0 22 -10 66.5t-10 68.5q0 56 54.5 129t117.5 117q18 12 33 12q24 0 24 -18q0 -15 -14 -29q-57 -66 -80 -98 q-37 -55 -37 -100q0 -19 8.5 -68t8.5 -70q0 -132 -81 -229.5t-190 -97.5q-52 0 -87.5 29.5t-35.5 91.5z" />
<glyph unicode="&#x410;" horiz-adv-x="1175" d="M-49 176q0 113 55.5 265t147 300.5t224 282t273.5 203.5q39 20 96 34.5t93 14.5q164 0 164 -178q0 -98 -58.5 -201.5t-138.5 -183.5q-2 -2 -12 -12.5t-16.5 -17t-18.5 -16.5t-21 -16.5t-20.5 -11t-20.5 -4.5q-11 0 -20.5 6.5t-9.5 15.5q0 15 24 45t58 69t67.5 85 t57.5 106t24 119q0 40 -14.5 69.5t-42.5 29.5q-78 0 -158.5 -37.5t-149.5 -100t-121 -123t-98 -126.5q-104 -150 -176.5 -318.5t-72.5 -308.5q0 -115 84 -115q71 0 175.5 59.5t186.5 133.5q187 167 328 338t260 387q27 48 63 83t66 35q13 0 28 -12t15 -33q0 -15 -8 -35.5 t-21 -42t-24 -38t-24.5 -33.5t-14.5 -19q-73 -100 -131 -188q-56 -82 -91 -137.5t-82 -137.5t-70.5 -150t-23.5 -120q0 -63 37 -63q7 0 24 5t29 5q19 0 19 -25q0 -38 -35 -59q-30 -18 -61 -18q-44 0 -75.5 35.5t-31.5 93.5q0 62 14 114q9 30 9 43q0 19 -13 19t-28 -15 q-71 -71 -133.5 -125.5t-135.5 -107t-144 -81t-134 -28.5q-83 0 -127.5 68.5t-44.5 173.5z" />
<glyph unicode="&#x411;" horiz-adv-x="710" d="M-141 1180q0 171 290 225q152 29 486 32h1h1h1h1h1h1h1h1l1 1h1h1h1h1h1h1h1h1h1h1h1h1h1h1h1h2h1h1h1h1h1h1h1h1h1h1h1h1h1h1h1h1h1h1h1h1h1h1h1h1h1h1h1h2q16 0 97.5 0.5t104 1t86.5 3t96.5 5.5t80 9.5t88.5 15.5q27 5 94 35t95 30q49 0 49 -39q0 -32 -46 -60 t-96 -41.5t-88 -17.5q-128 -11 -369.5 -16.5t-342.5 -11.5q-26 -1 -83 -1.5t-104.5 -1.5t-108.5 -5t-108 -14t-89 -26t-64.5 -43.5t-22.5 -64.5q0 -50 46 -86t106 -51t120 -15q107 0 123 13q15 13 39.5 47t46.5 55q165 156 279 156q47 0 47 -53q0 -44 -24 -89t-56 -45 q-24 0 -24 33l4 9q3 10 6.5 23.5t3.5 23.5q0 8 -6 8q-37 -4 -96 -53t-93 -99q2 -2 13 -2q36 0 87.5 21.5t61.5 21.5t16.5 -8.5t6.5 -18.5q0 -36 -56.5 -60t-124.5 -35.5t-73 -14.5q-146 -167 -247.5 -388t-101.5 -372q0 -129 78 -129q62 0 143.5 87t139 205t57.5 202 q0 47 -26 47q-35 0 -61 -17t-41.5 -47t-24.5 -59t-18.5 -64.5t-16.5 -52.5q-12 -35 -41 -35q-20 0 -33.5 13.5t-13.5 33.5q0 116 89 216t185 100q103 0 103 -152q0 -61 -28.5 -139.5t-77.5 -153.5t-108 -139t-128.5 -103.5t-130.5 -39.5q-77 0 -119.5 63t-42.5 146 q0 90 20 178t59 172.5t73.5 146t88.5 148t78 129.5q-18 -2 -59 -2q-61 0 -117 9.5t-110.5 31.5t-87.5 65t-33 103z" />
<glyph unicode="&#x412;" horiz-adv-x="1196" d="M-39 -98q0 41 45 131q44 89 89 172.5t107.5 189.5t90 152t111.5 182.5t98 159.5q15 24 64.5 97t80 127.5t53.5 117.5q9 25 -25 -8q-33 -33 -63 -72q-205 -255 -432 -641q-2 -3 -10.5 -17.5t-12.5 -20.5t-12.5 -18t-14.5 -17.5t-15 -10t-17 -4.5q-19 0 -28 11t-9 26 q0 14 7 34t14.5 34.5t16.5 30.5t10 17q121 203 258.5 385.5t324.5 403.5l31 42q31 41 55.5 62t48.5 21q22 0 34.5 -17.5t12.5 -44.5q0 -58 -61 -184q-40 -80 -88 -166t-82.5 -141.5t-92 -146.5t-83.5 -134q-257 -416 -373 -712q-33 -86 -76 -86q-25 0 -41 13t-16 32zM440 43 q0 41 25.5 84t64.5 43q48 0 48 -49q0 -12 -4.5 -36t-4.5 -34t2 -14q18 -6 37 -6q57 0 137 71q148 126 222 297q43 101 43 156q0 70 -72 70q-34 0 -121 -21q-2 -1 -17.5 -7t-30.5 -12t-35.5 -11t-35.5 -5q-43 0 -43 33q0 16 17.5 34.5t37 31.5t44.5 28.5t30 18.5 q78 60 130 119.5t102 144.5q12 22 21.5 40.5t26 56.5t15 60.5t-23.5 22.5q-34 0 -72 -21.5t-68 -49t-69.5 -77.5t-62.5 -83t-60 -89q-3 -5 -5 -8t-5.5 -7.5t-5.5 -8.5q-7 -10 -26.5 -48t-37.5 -60.5t-37 -22.5q-35 0 -35 43q0 42 53.5 126t110.5 155q207 254 334 254 q50 0 80.5 -36.5t30.5 -90.5q0 -37 -8.5 -71t-19 -59.5t-38.5 -64.5t-47.5 -63t-65.5 -79t-75 -91q108 -17 140 -45t32 -107q0 -97 -39.5 -197t-99.5 -176.5t-129 -138t-131 -94.5t-101 -33q-158 0 -158 127z" />
<glyph unicode="&#x413;" horiz-adv-x="1046" d="M-184 131q0 88 67 167t160 79q58 0 162 -53q11 -6 36.5 -28t51 -38t47.5 -16q59 0 185 197.5t230.5 409.5t151.5 333q0 11 -14 13.5t-58 2.5h-6h-5.5h-6.5h-53t-59 -1t-66.5 -3t-65.5 -5.5t-66.5 -9t-59.5 -13t-54 -19t-40.5 -25.5t-28.5 -32.5t-9 -40.5q0 -99 103 -99 q42 0 72.5 16t68.5 52q10 10 27 10q13 0 21.5 -8.5t8.5 -22.5q0 -42 -37.5 -77.5t-87.5 -53.5t-96 -18q-68 0 -120 45t-52 131q0 50 19.5 89.5t52 66.5t85.5 47t108 31t132 17.5t145.5 8.5t160.5 2q15 0 30 32.5t15 78.5q0 8 -8 8q-11 0 -36 -14.5t-38 -14.5q-10 0 -16.5 9 t-6.5 20q0 35 50.5 60.5t82.5 25.5q34 0 56 -22.5t22 -67.5q0 -17 -5 -42.5t-5 -31.5q0 -14 12 -17t51 -3q103 0 186 12.5t131.5 30.5t85 36.5t65 31t51.5 12.5q14 0 28.5 -11.5t14.5 -29.5q0 -38 -45.5 -68t-121 -48t-152.5 -28.5t-161 -15.5q-11 -1 -46 -2.5t-55 -3 t-45 -6.5t-38 -13q-10 -10 -18.5 -26t-18.5 -42t-16 -40q-15 -32 -76.5 -164.5t-88.5 -186t-82 -155.5t-109.5 -180.5t-118.5 -153.5q-1 -1 -14 -15t-21 -24t-16.5 -23.5t-8.5 -21.5q0 -7 25 -23t71 -30.5t91 -14.5q38 0 77.5 15t86.5 50t75.5 59t84.5 77t75 70q13 10 25 10 q15 0 25.5 -13.5t10.5 -31.5q0 -17 -10 -27q-151 -149 -268.5 -228t-224.5 -79q-81 0 -160 39q-18 8 -46 28.5t-36 20.5q-22 0 -73.5 -26.5t-61.5 -30.5q-114 -43 -217 -43q-79 0 -126.5 37.5t-47.5 99.5zM-90 170q0 -86 110 -86q44 0 130 26t86 50q0 28 -95.5 69t-122.5 41 q-51 0 -79.5 -28.5t-28.5 -71.5z" />
<glyph unicode="&#x414;" horiz-adv-x="1406" d="M-123 98q0 84 47 190t101 179q29 41 53 70.5t59.5 65.5t73.5 55.5t76 19.5q44 0 81.5 -30.5t61.5 -75t42.5 -89t34.5 -77t28 -35.5q15 -3 31.5 11.5t40.5 46.5t28 36q341 402 610 838q-6 6 -14 6q-26 0 -75.5 -58.5t-96.5 -129t-96.5 -129t-75.5 -58.5q-16 0 -25.5 10.5 t-9.5 22.5q0 28 20 58.5t60 71t43 44.5q11 13 73.5 83.5t98.5 118.5q-22 11 -57 11q-24 0 -52 -5t-60.5 -13.5t-43.5 -10.5q-78 -16 -155 -42t-140 -52.5t-136 -69t-122.5 -74t-121 -84.5t-111 -83.5t-111.5 -88.5q-2 -1 -26 -23t-40.5 -32t-31.5 -10q-14 0 -33 18t-19 41 q0 13 6.5 26.5t20 26.5t24.5 22t29.5 22t24.5 18q103 79 184 136t202 128.5t230.5 117t247.5 78.5t274 36q9 0 28 -1t28 -1q34 0 74.5 32.5t76.5 79t71.5 93.5t71.5 79.5t64 32.5q41 0 41 -45q0 -31 -17 -73.5t-40 -73.5q-5 -8 -44 -54t-65 -86t-26 -65q0 -20 15.5 -50 t16.5 -32q35 -98 35 -213q0 -144 -48.5 -289t-127.5 -305q-97 -203 -242 -336q-31 -29 -51 -45.5t-54 -39t-71 -33.5t-78 -11t-74.5 9.5t-61 30.5t-44.5 39t-43 50q-45 53 -63 53q-10 -9 -49.5 -47t-57.5 -51q-182 -141 -338 -141q-180 0 -180 155zM-29 141 q0 -57 20.5 -83.5t65.5 -26.5q51 0 103.5 21t80 40t78.5 58q85 64 127 139q-9 18 -25.5 54t-27 58.5t-27.5 52t-32 46t-35 29t-41 12.5q-37 0 -78 -35q-71 -60 -140 -168.5t-69 -196.5zM608 240q4 -36 56.5 -88t107.5 -52q58 0 123 41t122.5 107t104 133.5t82.5 136.5 q79 152 123.5 287t44.5 278q0 144 -47 144q-5 0 -19 -18.5t-39 -57t-28 -43.5q-35 -50 -116.5 -171t-130 -190t-129.5 -173.5t-161 -194.5q-32 -35 -63.5 -80.5t-30.5 -58.5z" />
<glyph unicode="&#x415;" horiz-adv-x="866" d="M-57 270q0 131 74.5 256t197.5 183q15 8 64.5 27t80.5 34.5t31 26.5q0 12 -29.5 51.5t-39.5 62.5q-33 73 -33 152q0 112 67 207.5t176 150t232 54.5q119 0 196.5 -68t77.5 -180q0 -125 -80 -218.5t-184 -93.5q-180 0 -180 201l-2 4q-14 0 -62.5 -97.5t-48.5 -145.5 q0 -20 19.5 -37t43 -26.5t43 -25.5t19.5 -36q0 -27 -34.5 -35.5t-77.5 -11t-54 -11.5q-13 -28 -18 -71.5t-4.5 -83t-1 -76t-12.5 -58.5t-35 -22q-19 3 -24 24.5t-5 61.5q0 29 2 57t3.5 41t7 53t7.5 56q-50 -10 -103.5 -42.5t-101 -81.5t-78 -118.5t-30.5 -142.5 q0 -99 67 -163.5t173 -64.5q124 0 271.5 86t281.5 220q14 14 30 14q15 0 26 -13t11 -30t-10 -27q-354 -354 -623 -354q-164 0 -247.5 88.5t-83.5 222.5zM383 1032q0 -65 33 -94q55 131 116 225q1 1 7 10.5t10 15.5t12.5 18t15 20t16 20t17 20t17.5 17t18.5 14.5t17.5 9 t17 3.5q17 0 26 -10.5t9 -22.5q0 -26 -21.5 -82t-21.5 -88q0 -49 31 -78t73 -29q71 0 117.5 73.5t46.5 152.5q0 78 -49 121t-133 43q-149 0 -262 -105t-113 -254z" />
<glyph unicode="&#x416;" horiz-adv-x="1722" d="M-86 170q0 97 61 198.5t152 127.5q33 9 100 14t122.5 15.5t88.5 35.5q12 9 24.5 29t20 37.5t19.5 46.5t18 43q82 189 119 356q29 138 29 187q0 18 -1 29.5t-5 26.5t-11 23.5t-20.5 14.5t-32.5 6q-41 0 -98 -17q-119 -43 -225.5 -179t-124.5 -275q-1 -10 -2 -38 t-3.5 -45.5t-8.5 -38.5t-19.5 -31.5t-34.5 -10.5q-53 0 -53 72q0 77 57 215q71 152 156 237q191 191 344 213q28 4 41 4q153 0 153 -200q0 -143 -59 -312q-38 -117 -133 -352q74 27 141 70q221 130 307 295q42 76 78 204q5 15 12.5 54.5t14 67.5t21 51.5t34.5 23.5 q33 0 45 -16t12 -49q0 -54 -34 -160q-12 -37 -27.5 -76.5t-35 -87t-28.5 -70.5q-55 -146 -94 -233l-54 -109q-54 -109 -65 -159q24 16 47.5 37t47.5 47t34 36q29 27 53 48t54 44t44 33.5t56.5 41.5t57.5 42q25 19 57.5 58t69 89t49.5 66q185 224 350 312q48 26 111 46.5 t118 20.5q57 0 94 -35t37 -94q0 -71 -47.5 -147.5t-95.5 -106.5q-75 -49 -131 -49q-21 0 -53 16.5t-49 16.5q-18 0 -38.5 -5t-45.5 -17t-39.5 -19.5t-43 -24.5t-34.5 -20q-10 -6 -44.5 -25t-50 -28.5t-39 -27t-38.5 -34.5q-14 -16 -27.5 -35.5t-29 -48.5t-23.5 -44.5 t-27.5 -55.5t-23.5 -49q-98 -230 -98 -330q0 -78 67 -78q36 0 81 20.5t99 63t86.5 69.5t87 79.5t56.5 54.5q32 20 55 -2t6 -54q-6 -6 -51 -50.5t-73 -70.5t-81 -69t-94.5 -68t-93.5 -45t-96 -20q-72 0 -114 43t-42 117q0 84 34 194t79 205q-25 -8 -50.5 -24t-39 -28 t-40.5 -38t-36 -35q-46 -43 -99 -101.5t-80 -90t-96 -117t-82 -101.5q-42 -59 -79 -59q-14 0 -21.5 13t-7.5 32q0 21 10 44t29 52t24 37q18 32 51.5 97t38.5 75q94 172 183 383q4 9 -6 5q-11 -3 -121 -75q-166 -107 -264 -141q-17 -6 -31.5 -25.5t-31 -52.5t-23.5 -45 q-153 -251 -299 -340q-45 -26 -91 -26q-64 0 -105.5 49.5t-41.5 126.5zM10 166q0 -70 49 -70q35 0 72 23q49 31 131 139q32 39 45 56.5t30.5 52.5t18.5 63q-122 0 -192 -20t-103 -74q-19 -31 -35 -80.5t-16 -89.5zM1577 918q38 10 129 60t137 50q14 0 38 -16.5t40 -16.5 q48 0 102 54q76 76 76 129q0 27 -15.5 44t-45.5 17q-39 0 -109 -27q-63 -25 -140.5 -80.5t-121.5 -107.5q-4 -5 -28 -28.5t-43 -45.5t-19 -32z" />
<glyph unicode="&#x417;" horiz-adv-x="851" d="M-154 160q0 98 65 168.5t136 70.5q35 0 52.5 -24.5t17.5 -65.5q0 -38 -15 -67t-41 -29q-32 0 -32 25q0 6 2 18.5t2 17.5q0 15 -17 15q-33 0 -55 -33t-22 -74q0 -48 33.5 -82t101.5 -34q106 0 209.5 57t183.5 139q201 205 201 410q0 51 -18.5 80t-45 37t-53.5 11.5 t-45.5 11.5t-18.5 28t34 47.5t36 30.5q53 64 96 164t43 186q0 41 -20 41q-38 0 -89 -40t-89.5 -85.5t-75.5 -98.5q-38 -56 -76.5 -139t-38.5 -145q0 -28 11.5 -43.5t25.5 -19.5t25.5 -14.5t11.5 -29.5q0 -31 -15 -44t-36 -13q-57 0 -83 42t-26 97q0 75 37 165.5t82 156.5 q35 50 72 96.5t90 104t108.5 92t102.5 34.5q88 0 88 -120q0 -100 -48.5 -221.5t-136.5 -206.5q-5 -5 1.5 -8t21.5 -6.5t33.5 -8t38.5 -15.5t37 -26.5t27.5 -43t10.5 -62.5q0 -134 -64.5 -269t-166 -235t-230.5 -163t-253 -63q-105 0 -165.5 48.5t-60.5 134.5z" />
<glyph unicode="&#x418;" horiz-adv-x="1118" d="M-111 528q0 56 70.5 197.5t151.5 273.5q133 214 258 332q40 37 61.5 55t64 39t83.5 21q57 0 57 -68q0 -13 -1.5 -26.5t-5.5 -30.5t-6.5 -26.5t-9 -31.5t-8.5 -28q-30 -100 -77 -221.5t-131 -319t-101 -239.5q-4 -8 -25 -64t-45 -135t-24 -115q0 -26 14 -26q31 0 127 82.5 t184 175t107 127.5q26 47 67 136.5t76.5 166t76 152t82 119.5t77.5 44q14 0 23 -4t13 -12t5.5 -15.5t1.5 -19.5q0 -20 -8 -40.5t-23 -46.5t-20 -38q-34 -71 -86 -154t-92.5 -146t-79 -137t-60 -159t-22.5 -180q0 -92 36 -92q95 0 392 297q18 18 39 10.5t25.5 -27.5 t-11.5 -41q-18 -17 -75.5 -73.5t-98.5 -93t-98 -81.5t-109.5 -68.5t-97.5 -23.5q-105 0 -105 187q0 50 12 143q-33 -29 -102.5 -96t-107.5 -100.5t-91 -64t-94 -30.5q-86 0 -86 123q0 78 44 203.5t131 333t134 336.5q15 41 36 97t30 80.5t19.5 54t14 44t3.5 23.5 q0 14 -10 14q-25 0 -80.5 -54t-91.5 -100q-109 -139 -186 -277t-118 -296q-12 -44 -35.5 -77.5t-52.5 -33.5q-41 0 -41 45z" />
<glyph unicode="&#x419;" horiz-adv-x="1380" d="M106 618q0 76 39 163t102 165.5t126.5 141t126.5 112.5q50 40 118.5 75.5t110.5 35.5q113 0 113 -99q0 -50 -56.5 -165t-137 -251.5t-160.5 -275.5t-136.5 -265.5t-56.5 -193.5q0 -26 16 -26q14 0 38 14t53.5 39t54 47.5t56.5 52.5t44 41q107 96 234 230 q38 40 103.5 104.5t123 124.5t112.5 127q2 2 17 20.5t23 27t22.5 22t27 20t23.5 6.5q16 0 24.5 -10.5t8.5 -23.5q0 -18 -11 -44t-22 -45t-26.5 -42.5t-16.5 -24.5q-65 -109 -107 -190.5t-81 -186.5q-3 -7 -12 -31t-14 -38.5t-12 -36t-10 -40.5t-3 -36q0 -60 32 -60 q7 0 21 3.5t20 3.5q10 0 17.5 -7.5t7.5 -19.5q0 -29 -41 -56.5t-84 -27.5q-39 0 -64.5 27t-25.5 86q0 66 33 160.5t65.5 165t32.5 77.5q0 8 -6 8q-13 0 -51.5 -43.5t-55.5 -66.5q-87 -100 -180 -190t-236 -218q-41 -38 -97 -74t-103 -36q-37 0 -58.5 26.5t-21.5 73.5 q0 92 84 293q125 291 332 618q1 2 28.5 44t54.5 86t50.5 92t23.5 69q0 16 -14 16q-15 0 -30 -2.5t-30 -8.5t-25.5 -10.5t-26.5 -15t-21.5 -14.5t-23 -16.5t-19.5 -14.5q-123 -94 -231.5 -233t-108.5 -231q0 -34 15.5 -67t15.5 -48q0 -20 -20.5 -35.5t-39.5 -15.5 q-32 0 -53 35t-21 83zM373 1698q0 9 4.5 18t9.5 15.5t16 15.5t16.5 13t18.5 12.5t15 9.5q76 46 127 73t130 50.5t156 23.5q105 0 191 -38t140 -118t54 -188q0 -44 -11 -100t-36.5 -103t-56.5 -47q-15 0 -26 8.5t-11 24.5q0 28 27.5 98.5t27.5 114.5q0 130 -84.5 199 t-218.5 69q-168 0 -377 -129q-6 -3 -26 -18t-36.5 -24t-27.5 -9q-22 0 -22 29z" />
<glyph unicode="&#x41a;" horiz-adv-x="1288" d="M-16 1004q0 39 6 88.5t22 108.5t39.5 107t62 80.5t85.5 32.5q39 0 78.5 -16.5t74.5 -39.5t74 -46.5t94 -40t117 -16.5q26 0 48 21t37 46.5t42.5 46.5t62.5 21q33 0 50.5 -15.5t17.5 -38.5q0 -26 -7.5 -47.5t-16 -34.5t-27.5 -26.5t-30.5 -19t-38 -17t-36.5 -16.5 q-16 -8 -33.5 -30t-28 -42.5t-26.5 -54t-22 -45.5q-10 -20 -70 -137.5t-84.5 -169.5t-63 -145t-59.5 -167q9 0 15.5 1.5t13 8t9 9.5t10 14.5t10.5 15.5q66 86 200.5 275.5t244.5 331t212 243.5q84 84 125 86q17 0 26 -12t9 -29q0 -18 -8 -42.5t-22 -54.5t-15 -32 q-16 -39 -46 -105t-47.5 -115t-33.5 -114q-33 -141 -80 -141q-43 0 -43 51q0 16 5 38.5t10.5 39t13 37.5t8.5 25q10 27 50 104.5t46 108.5q-24 -1 -50 -25.5t-58.5 -70t-36.5 -50.5q-40 -49 -99 -131q-11 -16 -105.5 -139.5t-133.5 -190.5q128 78 209 78q43 0 66.5 -28.5 t23.5 -79.5q0 -76 -54.5 -244.5t-54.5 -206.5q0 -37 27 -37q26 0 64 18.5t69.5 40.5t83 66.5t78.5 70t82 77.5q12 9 32.5 36t41 46.5t42.5 19.5q9 0 22 -10t13 -25q0 -11 -6.5 -23.5t-19.5 -27.5t-22.5 -25.5t-27 -27t-22.5 -21.5q-13 -13 -55.5 -56.5t-64.5 -64.5 t-63.5 -59.5t-72 -59.5t-69.5 -44.5t-76.5 -34t-73.5 -10.5q-92 0 -92 116q0 62 26 161.5t52 187t26 120.5q0 31 -18 31q-34 0 -71 -16t-57.5 -31.5t-58 -48.5t-47.5 -41q-7 -6 -39 -6q-23 0 -64 -58.5t-91 -147.5t-60 -104q-2 -3 -8 -13l-9 -15t-9 -13.5t-11 -13.5 t-11.5 -10t-13.5 -7.5t-14 -2.5q-37 0 -37 47q0 53 43 179.5t102 277.5t75 204q-8 -4 -25 -11.5t-23 -10.5t-19 -8.5t-19 -7.5t-16 -5.5t-17 -4.5t-15.5 -2t-17.5 -1q-77 0 -131 53t-77 132.5t-23 177.5zM80 985q0 -106 43.5 -175t101.5 -69q39 0 74.5 34t67.5 78.5t53 57.5 q1 0 3.5 1t4.5 1q3 0 4 -0.5t1.5 -2.5t0.5 -4t2 -5.5t6 -7.5q17 31 47 92t55 109t48 82q-70 -7 -129 6t-96.5 37t-66.5 49t-54 43t-45 18q-54 0 -87.5 -101t-33.5 -243z" />
<glyph unicode="&#x41b;" horiz-adv-x="1343" d="M-88 139q0 91 37 190.5t74 162.5q23 40 56 73t66 33q37 0 37 -37q0 -36 -27 -89.5t-60 -101.5t-60 -112t-27 -119q0 -67 60 -67q91 0 284 250q47 62 496 659q29 40 62 78.5t83.5 88.5t106 81t104.5 31q92 0 92 -115q0 -94 -69 -271q-26 -62 -129.5 -273t-147.5 -341 q-32 -98 -32 -164q0 -69 43 -69q25 0 62.5 29.5t53.5 29.5q12 0 20.5 -10t8.5 -27q0 -37 -63 -82t-119 -45q-123 0 -123 156q0 69 23 152t53 149q24 52 102.5 223.5t122.5 267.5l12 24t23 47.5t25 56t21.5 59.5t8.5 49q0 37 -27 37q-25 0 -47 -8.5t-43.5 -29t-31 -30.5 t-31.5 -37q-116 -142 -319.5 -419.5t-295.5 -395.5q-199 -256 -364 -256q-67 0 -94 45.5t-27 126.5z" />
<glyph unicode="&#x41c;" horiz-adv-x="1935" d="M-98 172q0 96 48.5 178t117.5 82q23 0 36 -13t13 -28q0 -25 -17 -56.5t-37.5 -57t-37.5 -58t-17 -59.5q0 -82 58 -82q11 0 22.5 3t24 10.5t23 14t25 19t22.5 19.5t22.5 22.5t19.5 20.5t19.5 21t15.5 17q125 133 265.5 308.5t280.5 353t253 301.5q68 74 116.5 123t122 110 t138.5 95q12 6 26 6q23 0 36 -14t13 -38q0 -26 -23 -75.5t-24 -51.5q-39 -105 -129.5 -355.5t-144.5 -389.5q-8 -21 -28.5 -68.5t-32 -76.5t-29 -79.5t-31.5 -103.5q-7 -25 3 -22q15 6 107 132q33 45 48 64q209 264 477 547q92 100 145 168q4 5 29 40t43 53t33 18 q35 0 35 -49q0 -28 -25 -111q-17 -60 -36 -116t-46 -115.5t-45 -98.5t-55 -104.5t-51.5 -91.5t-59 -100t-55.5 -93l-26 -39t-48 -74.5t-50.5 -87t-43 -95.5t-16.5 -81q0 -46 32 -65q9 -6 9 -15q0 -11 -12.5 -20.5t-30.5 -9.5q-39 0 -68 30t-29 78t12 96t43.5 110t51 95.5 t71.5 115t68 106.5q14 22 46.5 73.5t48 78t40.5 71.5t45.5 91t40.5 101q4 13 0 13q-15 0 -96 -93q-90 -97 -186 -209.5t-156.5 -187.5t-177.5 -222.5t-174 -217.5q-4 -5 -28.5 -41t-47 -57t-43.5 -21q-39 0 -39 45q0 50 20 127q68 221 229 609t226 597q8 27 -4 27 q-5 0 -12.5 -4.5t-17.5 -13t-18 -15.5t-18.5 -16.5t-13.5 -12.5q-119 -112 -246.5 -265.5t-222.5 -284t-227.5 -294t-257.5 -288.5q-47 -47 -118.5 -89t-123.5 -42q-73 0 -109 50.5t-36 127.5z" />
<glyph unicode="&#x41d;" horiz-adv-x="1298" d="M-88 186q0 76 38.5 148t90.5 72q18 0 31.5 -12.5t13.5 -31.5q0 -22 -34 -81t-34 -103t19.5 -64t42.5 -20q71 0 162 193q49 104 113 269t91 230q6 16 33 76t46.5 108t19.5 60q0 11 -12.5 25t-31.5 29.5t-26 23.5q-23 24 -60.5 70t-60 72t-58.5 47.5t-73 21.5 q-40 0 -68 -22.5t-28 -65.5q0 -52 21 -79.5t75 -27.5q12 0 37.5 6.5t40.5 6.5q28 0 42.5 -15.5t14.5 -38.5q0 -31 -26.5 -55t-75.5 -24q-91 0 -156 54.5t-65 166.5q0 88 64 150.5t145 62.5q70 0 115.5 -39.5t111.5 -134.5q2 -3 13.5 -21.5t20.5 -31.5t22.5 -29t27.5 -25 t27 -10q11 -1 34 38.5t54 96t68 113t85.5 96t96.5 39.5q28 0 45.5 -17t22.5 -36.5t5 -40.5q0 -9 -1 -18.5t-2.5 -17.5t-5 -18.5t-5.5 -17.5t-7 -18t-7 -16.5t-8 -16.5t-8 -14.5t-8 -15t-7 -13.5q-69 -134 -168 -185q-15 -8 -45 -17.5t-41 -14.5q-10 -4 -27 -38.5t-42 -97 t-31 -75.5q61 22 98 22q36 0 62 -17.5t26 -53.5q0 -26 -16.5 -99.5t-16.5 -103.5q0 -60 53 -60q48 0 99.5 38t83.5 75q14 15 28.5 38.5t22 37.5t25 52t22.5 48q34 74 87 167.5t118 179t100 85.5q45 0 45 -41q0 -17 -7.5 -41.5t-15.5 -42t-18.5 -38.5l-11.5 -23 q-41 -93 -80.5 -157.5t-103.5 -147.5q-13 -17 -40.5 -52t-49 -63.5t-33.5 -46.5q-19 -30 -37.5 -69t-42.5 -97.5t-35 -83.5q-3 -6 -20.5 -44t-25 -57.5t-16.5 -55t-10 -66.5q0 -45 33 -45q26 0 81 37t120.5 96.5t103 95t70.5 68.5q11 8 27 8q18 0 31.5 -12t13.5 -27 q0 -9 -35 -48.5t-91.5 -92t-118.5 -103t-125 -85.5t-103 -35q-49 0 -82 28.5t-33 83.5q0 59 21 125.5t53.5 142.5t44.5 115q-79 -37 -121 -37q-47 0 -86 32.5t-39 84.5q0 29 12 87t12 85q0 41 -18 41q-8 0 -35 -13.5t-43 -13.5t-22 15q-20 -43 -43 -112t-35 -101 q-94 -239 -151 -341q-114 -202 -224 -202q-89 0 -132.5 52.5t-43.5 131.5zM735 1171q53 20 102 95t58 129q-36 -22 -86 -90t-74 -134z" />
<glyph unicode="&#x41e;" horiz-adv-x="915" d="M-39 315q0 140 33.5 279t92 260.5t128 223.5t152.5 194q92 103 202 175.5t201 72.5q49 0 73.5 -15.5t24.5 -58.5q0 -14 -8 -45t-8 -53q0 -20 42 -55t52 -54q49 -91 49 -205q0 -108 -40.5 -233.5t-107.5 -243t-156 -227.5t-182.5 -191.5t-191 -130.5t-178.5 -49 q-50 0 -87 38t-55.5 96.5t-27 114.5t-8.5 107zM78 311q0 -233 98 -233q71 0 154 47t161.5 124.5t152 180t128.5 209.5t88 217.5t33 200.5q0 53 -16.5 101t-51.5 48q-15 0 -30 -30t-31.5 -83t-18.5 -57q-45 -107 -85 -183.5t-91 -145.5q-4 -5 -20.5 -30.5t-28.5 -41.5 t-31.5 -31.5t-37.5 -15.5q-43 0 -43 86q0 217 67 389.5t182 234.5q5 3 40 16t52 27t17 35q0 41 -39 41q-37 0 -125 -61q-79 -54 -174 -164q-165 -190 -257.5 -419.5t-92.5 -461.5zM528 881q0 -21 2 -29q17 14 33.5 35.5t25.5 36t27 47t23 41.5q78 143 78 194q0 4 -7 7.5 t-12 3.5q-45 0 -86.5 -64t-62.5 -141t-21 -131z" />
<glyph unicode="&#x41f;" horiz-adv-x="1452" d="M-76 170q0 51 14 108t40 108.5t68.5 85.5t92.5 34q33 0 62.5 -21t50.5 -52t38.5 -62t33.5 -55.5t28 -28.5q2 -1 7.5 3t13 12.5t14.5 17t16 21.5t15 21t14 19.5t10 13.5q67 88 168 254q64 110 74 137q1 3 -4 6t-15 4.5t-22 3t-27 3t-29 2.5t-27.5 2t-22.5 2 q-51 6 -103.5 23t-102.5 46.5t-81 76.5t-31 104q0 89 88 155q60 45 147.5 72.5t213.5 52.5q19 4 142.5 28t158.5 30.5t147.5 27t164 28.5t151 23t166 22t151 14t160.5 10q31 2 88 2q40 0 69.5 -3t58 -13t47 -26.5t29.5 -44.5t11 -67q0 -43 -46.5 -98t-94.5 -55q-37 0 -37 28 q0 21 12 36t26 23t24.5 24t8.5 38q-5 55 -151 55q-68 0 -275 -22q-562 -63 -872 -127q-31 -7 -100.5 -20.5t-111 -22.5t-95 -25t-90.5 -35q-37 -18 -70 -48.5t-33 -61.5q0 -27 30.5 -54t55.5 -40q39 -22 126 -44t153 -22q52 0 78 16q5 3 9.5 10t10 18.5t10 21.5t11 26 t10.5 25q2 4 16 43t28.5 60t35.5 30q19 8 55 8q66 0 122 -29t56 -81q0 -57 -46 -104.5t-101 -72.5q-16 -7 -63.5 -19.5t-67.5 -25.5q-13 -8 -23.5 -23.5t-23.5 -43.5t-19 -39q-119 -229 -268 -418q-4 -5 -38.5 -49.5t-45.5 -61.5q-2 -3 3 -11.5t16.5 -19t27.5 -20.5t39 -17 t47 -7q44 0 86.5 19t82 56t65.5 67t61 75q64 84 129 186.5t148.5 248t95.5 165.5q2 4 21 38t34 49t33 15q67 -3 67 -104q0 -62 -33 -178q-63 -211 -131 -372.5t-163 -295.5q-45 -70 -91 -70q-17 0 -33 10t-16 27q0 18 15.5 44t40.5 57.5t32 42.5q34 49 90 172 q106 234 140 389q-18 -19 -34.5 -41t-25.5 -36.5t-24.5 -40.5t-22.5 -38q-59 -103 -102 -172t-109 -156t-129 -143q-114 -106 -239 -106q-52 0 -93 16q-17 6 -62.5 42t-53.5 36q-12 0 -59.5 -41t-65.5 -49q-59 -27 -111 -27q-72 0 -121 43t-49 127zM4 211q0 -47 21.5 -82 t68.5 -35q55 0 113.5 41t56.5 68q-1 16 -28 56t-33 54q-15 33 -41 58.5t-45 25.5q-46 0 -79.5 -63.5t-33.5 -122.5zM895 940q29 -2 77 30t48 62q0 14 -13 28.5t-28 14.5q-22 0 -44.5 -35t-39.5 -100z" />
<glyph unicode="&#x420;" horiz-adv-x="888" d="M14 2q0 66 19 117q45 137 118.5 293t123 245.5t159 275.5t139.5 238q105 187 72 187q-16 1 -42.5 -32t-50.5 -73t-54 -73t-52 -33q-30 0 -30 24q0 16 34.5 61.5t34.5 59.5q0 11 -53 -34q-3 -2 -4 -3q-39 -35 -78.5 -85.5t-52.5 -84.5q-5 -12 -13.5 -37t-15 -41.5t-16 -35 t-20.5 -28t-23 -9.5q-39 0 -39 45q0 42 33 111q72 144 159 225t205 115q9 4 62.5 51t83.5 47q25 0 39 -16t19.5 -35t8.5 -21q16 -11 63 -21t48 -10q49 -18 87.5 -40.5t72 -57.5t51.5 -86t18 -115q0 -92 -45 -194t-114 -183t-157.5 -134.5t-170.5 -53.5q-68 0 -108 40 t-40 101q0 65 48.5 120t109.5 55q64 0 64 -37q0 -24 -21.5 -37t-46.5 -19t-46.5 -29t-21.5 -63q0 -19 15 -33t45 -14q28 0 74.5 23.5t99.5 68t99.5 100.5t77 129.5t30.5 145.5q0 109 -65 173.5t-159 64.5q-14 0 -32 -26.5t-43.5 -80.5t-26.5 -55q-44 -81 -126.5 -225.5 t-135 -240.5t-114.5 -217t-102.5 -225.5t-60.5 -193.5q-2 -7 -6 -27t-7 -31t-8 -29t-11 -29t-14 -22t-18.5 -16.5t-23.5 -5.5q-45 0 -45 76z" />
<glyph unicode="&#x421;" horiz-adv-x="724" d="M-45 346q0 146 47.5 311.5t110.5 264.5q55 86 101.5 151t115.5 142t135 126.5t151 83t172 33.5q83 0 122.5 -50t39.5 -134q0 -92 -42 -194.5t-112.5 -174t-144.5 -71.5q-53 0 -73.5 47.5t-8.5 111.5q-50 -33 -101 -124.5t-67 -192.5q-1 -6 -3 -18.5t-3 -18t-3.5 -15 t-5.5 -14t-7 -9.5t-10.5 -7t-14.5 -2q-26 0 -26 45q0 47 24 125t39 108q52 102 98 163.5t119 113.5q53 37 88 37q10 0 19.5 -7.5t9.5 -19.5q0 -18 -37 -93t-37 -122q0 -24 11 -24q41 0 87.5 61.5t76.5 147.5t30 155q0 98 -98 98q-100 0 -248 -125q-193 -160 -320 -410 t-127 -478q0 -115 40.5 -189t119.5 -74q56 0 118 22t128.5 65.5t94.5 64t79 61.5q5 4 22.5 22.5t33.5 30.5t30 13q13 0 25 -15t12 -28q0 -22 -73.5 -87t-171 -132t-159.5 -92q-76 -31 -163 -31q-118 0 -181 98t-63 250z" />
<glyph unicode="&#x422;" horiz-adv-x="1449" d="M-137 72q0 31 16 89t41 119t63.5 105.5t77.5 44.5q23 0 48 -13.5t46.5 -28.5t32.5 -17q27 -6 146 186q45 69 61 98q16 24 36 62t20 49q0 12 -19.5 15t-50 1.5t-68.5 3.5q-93 12 -179 51.5t-136 92.5q-34 34 -57 91.5t-23 117.5q0 59 27 114q48 95 160 160.5t245 65.5 q79 0 187.5 -23t239.5 -58.5t204 -49.5q128 -23 248 -23q242 0 424 72q22 8 70 37.5t85 44.5q22 8 44 -1t26 -32q4 -20 -5.5 -37.5t-32.5 -33t-39 -23.5t-46 -21q-211 -96 -526 -96q-247 0 -494 76q-245 75 -385 75q-122 0 -209 -51q-55 -32 -93 -86.5t-38 -115.5 q0 -68 49 -121t123 -86q48 -24 111.5 -38t105.5 -1q8 3 21 25.5t33.5 57.5t40.5 58q12 14 29.5 29.5t46.5 33t51 17.5q21 0 33 -13.5t12 -37.5q0 -19 -6 -44t-15.5 -52t-11.5 -37q-5 -21 16 -21q18 0 69.5 16t69.5 19q28 5 71.5 21t55.5 16q6 0 13.5 -12t7.5 -15 q0 -27 -52.5 -54.5t-99.5 -41.5q-86 -35 -188 -57q-8 -2 -22 -23t-34 -58.5t-22 -41.5q-50 -94 -162 -252q-5 -7 -28 -34t-37.5 -49.5t-14.5 -39.5q0 -16 16 -25.5t38 -9.5q18 0 39 8t37.5 18t39 28t33 27.5t30.5 29t21 20.5q40 37 80 78.5t86 92t75 83t83 95t74 85.5 q1 1 17.5 24t31.5 33.5t33 10.5q20 0 32.5 -12.5t12.5 -34.5q0 -36 -41 -121q-18 -36 -55.5 -102.5t-43.5 -77.5q-18 -33 -57.5 -100.5t-65.5 -117.5t-44 -102q95 77 167 162q51 59 138 170t133 166q97 115 160 115q18 0 29 -11.5t11 -31.5q0 -22 -12 -55.5t-24.5 -57 t-29.5 -54.5l-17 -30q-39 -72 -75 -136t-93.5 -163t-90.5 -156q-12 -20 -34 -73.5t-42 -80t-48 -26.5q-18 0 -30.5 11.5t-12.5 31.5q0 45 30 94q25 44 78 125t94.5 152t65.5 133q-28 -6 -70 -53q-31 -34 -96 -112.5t-120 -138.5t-111 -106q-23 -19 -70.5 -43t-79.5 -24 q-15 0 -26 9t-11 26q0 25 18 65t42.5 81t27.5 48q7 13 44 79t60 113t33 83q-29 -14 -65.5 -52.5t-75.5 -87.5t-57 -67q-9 -9 -38 -40t-46 -47t-46 -37.5t-60.5 -31.5t-65.5 -10q-19 0 -27 2q-16 2 -47.5 23.5t-48.5 21.5q-13 0 -33.5 -17t-36 -35t-37 -45t-26.5 -32 q-32 -37 -76 -72t-80 -35q-57 0 -57 95zM-43 129q0 -11 4 -27q7 2 13 4t12 6l10.5 7t11 9.5l9.5 9.5t10 11t9 10.5t9.5 12.5t9.5 12t11 13t15 19.5t14 20t12 23t4 21.5q0 12 -10 22t-23 10q-16 0 -35 -10.5t-29 -23.5q-22 -29 -39.5 -72t-17.5 -78zM481 895q0 -14 13 -14 q28 0 38 43q5 25 5 30q-16 4 -36 -18.5t-20 -40.5z" />
<glyph unicode="&#x423;" horiz-adv-x="1099" d="M-106 168q0 53 22.5 114t71 109.5t108.5 48.5q28 0 59.5 -9.5t51 -19.5t52 -29t42.5 -24q11 -6 31.5 -22.5t38 -27.5t30.5 -11q28 0 103 65q150 123 280 289q-82 -35 -161 -35q-53 1 -93.5 27t-66 73.5t-41.5 99t-27 118.5q-20 136 -22 203q-6 170 -51 170q-34 0 -69 -62 t-57 -152t-22 -169q0 -31 -1.5 -50t-6.5 -39t-16 -29t-29 -9q-47 0 -47 116q0 51 10 119q18 117 84 228q34 56 83.5 102.5t102.5 46.5q29 0 51.5 -21t35.5 -50.5t22 -73.5t12.5 -76.5t7 -75t4.5 -53.5q1 -9 4.5 -43t6 -54.5t9 -55.5t13.5 -58t20.5 -50.5t30 -43.5 t40.5 -27.5t53 -11.5q68 0 132 30.5t112 77t92 112.5t73.5 126t56.5 129q6 13 17 55.5t21.5 75t33 60.5t51.5 28q45 0 45 -53q0 -63 -45 -150q-171 -366 -503 -725q-71 -79 -134 -137q-3 -3 -24 -19.5t-38 -31t-32 -31.5t-14 -26q3 -33 74 -62t120 -29q44 0 91.5 18.5 t98 54.5t89 69t90.5 82q18 17 40 11t27.5 -25t-10.5 -40q-122 -126 -222 -192t-214 -66q-86 0 -168 43q-14 6 -39 21.5t-45 25.5t-34 11q-14 0 -34 -10t-44.5 -27t-32.5 -21q-51 -33 -121 -61.5t-131 -28.5q-66 0 -107.5 44.5t-41.5 113.5zM-10 201q0 -37 20.5 -64.5 t59.5 -27.5q95 0 235 108q-26 38 -99.5 72.5t-125.5 34.5q-17 0 -23 -2q-28 -7 -47.5 -43.5t-19.5 -77.5z" />
<glyph unicode="&#x424;" horiz-adv-x="1200" d="M-63 141q3 63 52 95.5t117 27.5q36 -1 97.5 -24.5t85.5 -26.5q27 -3 83.5 89t100.5 187q-11 -5 -42.5 -20.5t-52.5 -25t-54.5 -17t-63.5 -6.5q-57 2 -87 43.5t-31 98.5t11 113.5t33 94.5q-28 9 -28 39q16 92 190 166q21 9 75 38.5t97.5 47.5t77.5 18q45 0 45 -47 q-1 -36 -36 -53.5t-88.5 -26.5t-67.5 -16q-77 -35 -147.5 -124t-74.5 -206q-5 -91 66 -94q35 -1 82.5 21t85.5 53q85 67 119.5 115.5t91.5 164.5q116 240 268 492q-68 10 -121 10q-114 0 -188.5 -34.5t-77.5 -96.5q0 -12 25 -16q5 0 16 1t16 1q37 -4 37 -27q-1 -23 -28 -34 t-64 -11q-47 0 -67.5 24.5t-20.5 61.5q0 42 17.5 76t49 57t70.5 40t85.5 26t90.5 13.5t90 4.5q25 0 51 -1.5t66.5 -6t66 -17.5t25.5 -32q0 -15 -8 -25.5t-23 -21.5t-20 -17q-16 -21 -39 -66t-28 -53q-133 -219 -172 -311q11 9 47.5 41t63 53t64.5 46.5t74.5 39t69.5 13.5 q70 0 103.5 -42.5t33.5 -111.5q0 -76 -39 -172.5t-99.5 -179.5t-140 -140t-153.5 -57q-41 0 -68.5 31.5t-27.5 75.5q0 45 29.5 93t72.5 48q11 0 20 -7.5t9 -21.5q0 -17 -27 -56t-28 -60q0 -23 18 -23q51 0 111 53.5t107 127.5t78.5 155t31.5 135q0 70 -51 70 q-39 0 -102.5 -45.5t-125 -109t-113.5 -126t-77 -102.5q-40 -59 -109 -191t-92 -172q-2 -3 -14.5 -23.5t-19 -31.5t-13 -26.5t-6.5 -24.5q-1 -19 45 -39.5t100.5 -32.5t85.5 -12q252 0 520 291q19 20 44.5 14.5t30.5 -27t-17 -45.5q-150 -160 -289 -241.5t-287 -81.5 q-98 0 -190 32q-11 3 -61 27t-74 25q-21 -1 -45.5 -16t-44 -32.5t-53.5 -31t-74 -12.5q-75 5 -125 47.5t-47 113.5zM27 125q-1 -26 18.5 -41t52.5 -18q40 0 77.5 16t51.5 45q-55 35 -127 35q-73 4 -73 -37z" />
<glyph unicode="&#x425;" horiz-adv-x="1286" d="M-322 -129q0 28 29 52t90 54q73 36 146 81.5t152.5 108t132.5 106t147 125.5t135 116q90 77 225 217q1 1 8.5 7.5t9 9.5t4.5 10t3 16q0 38 -28 176t-32 176q-3 31 -8 31q-8 0 -20 -59.5t-21.5 -143.5t-9.5 -143q0 -9 2 -32t2 -36q0 -63 -37 -63q-28 0 -40.5 32.5 t-12.5 73.5q0 90 30 235.5t60 238.5q1 3 7.5 25t11.5 33.5t19.5 23.5t35.5 12q34 0 44 -19t27 -110q2 -10 3 -15.5t2.5 -15.5t3.5 -18q2 -9 5 -28.5t5 -27.5q1 -4 7.5 -72t17.5 -122t26 -54q6 0 47.5 41.5t61.5 63.5q97 107 237 268q86 102 287 342q85 102 168 207q1 2 7 11 t10.5 15t11 13.5t14 11.5t14.5 4q25 0 25 -12q0 -16 -4.5 -33t-9.5 -29t-17.5 -30.5t-17.5 -26t-20.5 -27t-18.5 -22.5q-368 -484 -676 -817q-4 -5 -22 -24t-26.5 -29t-20.5 -26t-17.5 -28t-5.5 -22q0 -24 24 -127q5 -23 22.5 -102.5t24 -106.5t23 -90t29.5 -98t33.5 -83 t43.5 -89q35 -63 70 -105q10 -13 10 -26q0 -24 -20.5 -40t-46.5 -16q-14 0 -27.5 8t-23 17t-22 28t-18 30t-17.5 34t-15 29q-48 92 -78 187t-65 239q-4 18 -14.5 85t-21 105.5t-24.5 38.5q-7 0 -33.5 -26t-60 -62t-43.5 -45q-426 -393 -799 -635q-65 -49 -114 -49 q-19 0 -32.5 13t-13.5 34z" />
<glyph unicode="&#x426;" horiz-adv-x="1234" d="M-21 551.5q-5 15.5 3 42.5q2 11 6.5 22t9 18.5t9 13.5t7 9t2.5 2q108 176 206 311t218 265q98 106 153 149q87 67 150 68q26 0 51 -17.5t25 -45.5q0 -11 -2.5 -23t-8.5 -27t-10 -25.5t-12.5 -28.5t-11.5 -25q-48 -104 -152.5 -319t-156.5 -331q-9 -20 -40 -89.5 t-47.5 -109t-33 -88t-16.5 -71.5q0 -35 20 -35q48 0 131.5 51.5t151.5 116.5q2 2 35.5 31t43.5 38l40 36t45 42.5t37 38.5t37.5 42.5t27.5 37.5q11 16 94 164t146 215q15 16 39.5 29.5t44.5 13.5q16 0 30.5 -13.5t14.5 -33.5q0 -22 -7 -45.5t-24 -51t-27.5 -43t-35 -47 t-29.5 -38.5q-24 -32 -83.5 -95.5t-82.5 -101.5q-12 -22 -22 -45t-20 -51.5t-16 -47t-17.5 -56t-16.5 -52.5q-3 -11 -15.5 -46.5t-19 -61.5t-6.5 -49q0 -57 43 -89q27 5 58.5 23t68.5 51t64 59.5t69 70.5t59 61q20 20 42 10.5t25.5 -31.5t-13.5 -39q-31 -24 -113.5 -102.5 t-106.5 -99.5q-57 -57 -57 -93q0 -19 14.5 -59.5t14.5 -67.5q0 -86 -66.5 -207t-159.5 -210.5t-163 -89.5q-53 0 -80 37t-27 96q0 36 8 67q21 91 77 170.5t140 165.5q5 5 18 17.5t19 18.5t14.5 16.5t12.5 19.5t6 18q3 20 -21 55t-28 52q-6 18 -2.5 60.5t8.5 72.5t13.5 77 t11.5 74q-17 -5 -37 -17.5t-32 -23t-33.5 -31t-28.5 -26.5q-4 -3 -32.5 -27t-40 -33t-41 -32t-46.5 -34t-45.5 -28t-49 -25.5t-45 -15t-45.5 -6.5q-50 0 -74 33.5t-24 89.5q0 37 11 82t20 69t35.5 84t31.5 72q66 150 242 510l18 36l19.5 39t17 35.5t17 39t13.5 36t12.5 40 t7.5 37.5q-25 -6 -47 -17.5t-44.5 -32.5t-35 -34t-37 -42.5t-31.5 -37.5q-243 -284 -369 -537q-8 -16 -13.5 -25.5t-15.5 -24.5t-19 -20t-23 -10.5t-27 2.5q-7 1 -12.5 6.5t-10.5 21zM600 -483q0 -52 29 -52q47 0 147 117q57 68 101.5 158t44.5 145q0 49 -37 49 q-17 0 -74 -57q-211 -198 -211 -360z" />
<glyph unicode="&#x427;" horiz-adv-x="632" d="M55 131q0 49 12.5 96.5t42.5 102t49.5 85t66 95t59.5 82.5q110 159 209 278q2 2 10.5 11.5t13 14.5t13 14.5t13 16t9.5 15t7.5 16t2.5 13.5q0 7 -12 15.5t-29 19.5t-24 20t-12.5 20.5t-9 22t-7 28t-5 29.5t-3.5 36.5t-3 38t-2.5 44.5t-2.5 47q0 2 -0.5 16t-2 23 t-4.5 20.5t-10.5 18t-17.5 6.5q-19 0 -38.5 -28.5t-29.5 -63.5q-41 -143 -41 -256q0 -28 13.5 -85.5t13.5 -88.5q0 -49 -43 -49q-83 0 -70 258q7 143 51 244q75 174 146 190q24 4 33 4q28 0 47.5 -16t29.5 -38t15.5 -60.5t6.5 -68t1 -75.5q0 -157 47 -172q20 -6 75.5 23.5 t78.5 29.5q26 0 43 -28q8 -16 -6.5 -38t-44.5 -50l-31 -27q-209 -227 -439 -578q-41 -63 -75.5 -141.5t-34.5 -126.5q0 -51 43 -51q26 0 67 20q25 12 55 32.5t70 53.5t64 53.5t75 66.5t66 59q20 18 41.5 10t24.5 -28t-15 -42q-146 -146 -228 -211q-144 -112 -230 -112 q-70 0 -107 38.5t-37 106.5z" />
<glyph unicode="&#x428;" horiz-adv-x="1384" d="M-180 -102q0 19 13 32.5t24.5 19t38.5 13.5t32 10q13 4 93 32t112 36q-22 19 -22 84q0 44 10 82q24 90 57.5 189t62.5 175t77.5 185.5t75.5 167.5t84 177t77 163q14 25 14 36q0 5 -4 5q-13 0 -67 -62.5t-82 -101.5q-56 -81 -91 -154t-61 -178q-2 -10 -4.5 -43t-6 -56 t-19 -43t-41.5 -20q-37 0 -37 70q0 84 51 219q76 207 276 407q31 31 46 45t48.5 43t61.5 42.5t51 13.5q55 0 55 -64q0 -43 -24 -86q-88 -158 -168 -331q-9 -20 -79.5 -166.5t-95.5 -204t-67.5 -177.5t-66.5 -227q-6 -22 2 -22q7 0 29.5 31t52 77.5t34.5 53.5 q100 138 269 418t248 397q72 104 118 104q16 0 26.5 -10.5t10.5 -28.5q0 -31 -20 -71q-27 -63 -86.5 -195.5t-92.5 -209t-78.5 -199.5t-80.5 -242q-3 -9 -4 -15t-0.5 -9t2.5 -3q6 0 25.5 25t43.5 59.5t33 44.5q95 108 270 343t271 345q2 2 16.5 19.5t22 25.5t21 21 t25.5 18.5t23 5.5q16 0 26.5 -10t10.5 -28q0 -29 -30 -89q-20 -42 -138 -276.5t-170 -366.5q-71 -186 -77 -294q10 -7 39 -13t48 -17.5t19 -35.5q0 -19 -13 -26.5t-30 -6.5t-38.5 -1.5t-33.5 -12.5q-1 -8 0.5 -33.5t1.5 -36.5q0 -67 -43 -67q-24 0 -35.5 20.5t-12.5 45.5 t-5 49t-14 30q-27 6 -43 6.5t-64.5 -3.5t-62.5 -5q-431 -22 -809 -172q-42 -21 -82 -21q-21 0 -35 12t-14 36zM236 61q32 6 94 16t110 19t86 19q-7 64 16.5 153t56.5 164.5t67 163t43 139.5q-4 11 -11 4q-41 -54 -102.5 -150t-131.5 -208t-97 -154q-75 -114 -131 -166z M623 129q24 -2 92.5 1.5t143.5 8.5t91 6q14 121 75 300t136 315q-2 7 -7.5 6t-8.5 -6q-36 -36 -82.5 -95t-101.5 -133.5t-78 -103.5q-6 -7 -34 -44t-41 -53.5t-39.5 -50.5t-43 -52.5t-38 -42t-37 -37t-27.5 -19.5z" />
<glyph unicode="&#x429;" horiz-adv-x="1673" d="M-2 -63q1 28 24 44t52 20t62 12t48 22q17 16 36 67.5t37 115.5t24 79q50 135 102 258q41 96 127 276t117 252q-14 -5 -29 -15.5t-26.5 -20.5t-28 -28t-24 -26.5t-24 -29t-18.5 -23.5q-6 -8 -34 -42t-37 -45t-32 -40t-35 -47.5t-30 -45.5t-33 -54q-4 -7 -15 -34.5 t-20 -46.5t-26 -36t-35 -17q-17 0 -27 11t-10 30q0 22 10.5 51t16.5 38q45 89 113.5 182.5t117.5 149t139 151.5q6 6 9.5 10t8.5 9t9 10q13 14 42.5 48t48 54t46.5 43t52 35q6 4 20 4q51 0 51 -55q0 -47 -30 -105q-28 -53 -57 -112t-50 -103.5t-52 -114.5t-46 -104 t-50.5 -116t-47.5 -109q-80 -180 -117 -303q-7 -23 19 2q9 9 86 102q7 9 12 14q218 237 626 709q5 5 21.5 25t28 33t28.5 24.5t31 11.5q13 0 24 -12t11 -27q0 -22 -12.5 -53t-33.5 -67l-20 -37q-106 -228 -172 -377q-42 -94 -74 -201q-10 -34 20 -7q10 9 74 79q3 4 5 6 q74 74 155.5 164.5t180 201.5t155.5 174q5 5 18 19.5t21.5 23.5t21.5 17t25 8q15 0 25 -12t10 -29q0 -11 -3.5 -25t-6.5 -22.5t-9.5 -23.5t-7.5 -17q-42 -94 -103 -204t-97.5 -169t-118.5 -188q-11 -18 -75 -102t-83 -132q27 -8 123 2.5t119 10.5q30 0 45.5 -9.5t15.5 -39.5 q0 -59 -30 -140q-78 -214 -199.5 -400.5t-288.5 -381.5q-30 -36 -67.5 -62t-59.5 -14q-12 7 -13 17.5t7 24t17 24.5t23 26t19 21q28 32 57 67t97.5 129t122.5 183t110 212t82 234q6 23 -73 23q-76 0 -170 -17q-11 -2 -35.5 -11t-34.5 -9q-11 -1 -35 3.5t-35 4.5 q-59 0 -187.5 -17.5t-152.5 -19.5q-28 -3 -108 -11t-129 -15.5t-90 -18.5q-10 -3 -33.5 -15t-36.5 -14q-10 -2 -24 -0.5t-21 0.5t-56.5 -16.5t-74.5 -15.5q-45 0 -45 37zM375 61q66 3 167 18t177 34q9 6 20 25t18 35.5t17.5 44t13.5 34.5q1 1 119 299q40 106 70 190 q-18 0 -58 -38.5t-91.5 -99t-55.5 -64.5q-233 -254 -270 -295q-110 -124 -127 -183zM858 111q31 1 57.5 5t45 7.5t37 14.5t27.5 15.5t24 21.5t18.5 21t18.5 26t18 26q9 12 66 90t81.5 112.5t61.5 95t57 105.5q6 15 0 15q-4 0 -11 -4t-16.5 -12t-18.5 -16t-21 -19 t-19.5 -18.5t-17.5 -18t-13 -13.5q-57 -57 -160 -174t-112 -127q-7 -8 -41.5 -41.5t-55 -59.5t-26.5 -52z" />
<glyph unicode="&#x42a;" horiz-adv-x="724" d="M-98 1042q0 71 19 147t54.5 144t94.5 112t131 44q39 0 75.5 -16t63 -40t54 -51.5t50 -51.5t51 -40t56.5 -16q21 0 43 14t49.5 39.5t42.5 36.5q85 59 133 59q21 0 33 -12t12 -33q0 -56 -45.5 -105.5t-104 -76.5t-108.5 -31q-22 -13 -52 -41.5t-46.5 -47.5t-51 -61 t-36.5 -44q-135 -163 -160 -234q5 1 53.5 13.5t81 18t62.5 5.5q89 0 135.5 -55t46.5 -137q0 -78 -54 -185t-131.5 -199.5t-171.5 -157.5t-167 -65q-76 0 -115 65t-39 165q0 118 70 321q-11 -4 -31 -11.5t-31 -11t-18 -3.5q-21 0 -21 24q0 26 28 50.5t69 48.5t53 36 q14 14 28.5 36.5t33 55t28.5 48.5q85 135 197 262q2 3 46 54.5t60 74.5q-45 22 -107 74.5t-111 90.5t-81 38q-54 0 -97 -47.5t-64 -114.5t-21 -135q0 -42 18.5 -117t18.5 -100q0 -22 -12.5 -39t-36.5 -17q-21 0 -37 21.5t-24.5 56t-12.5 70.5t-4 71zM66 201q0 -64 18 -95.5 t66 -31.5q63 0 154.5 95.5t157.5 213.5t66 184q0 113 -118 113q-63 0 -111 -12t-102 -50q-33 -23 -67 -111.5t-46 -150.5q-18 -83 -18 -155z" />
<glyph unicode="&#x42b;" horiz-adv-x="1200" d="M-31 309q0 107 22 213t54.5 189t85 176t96 155.5t105.5 145.5q169 227 235 227q23 0 35 -10t12 -37q0 -44 -75 -113q-140 -131 -237.5 -275.5t-164.5 -340.5q-59 -169 -59 -324q0 -25 0.5 -39.5t3 -42t9.5 -44.5t17.5 -35.5t29 -27.5t42.5 -9q48 0 125 77.5t143 191.5 t84 208q-8 4 -16 4q-21 0 -84.5 -13.5t-81.5 -13.5q-64 0 -103.5 27.5t-39.5 81.5q0 69 75 115.5t169 46.5q38 0 66.5 -9.5t44.5 -23.5t28.5 -28t26.5 -23.5t30 -9.5q64 0 235 82.5t232 132.5q19 15 48.5 50.5t53 64.5t57.5 52t66 23q47 0 47 -53q0 -36 -33.5 -69t-85.5 -66 t-69 -50q-19 -19 -38.5 -49t-43 -72.5t-33.5 -58.5q-105 -167 -196 -389q-3 -8 -15 -34.5t-18 -42.5t-14.5 -40.5t-12.5 -46t-4 -41.5q0 -27 10 -37.5t22 -9.5t22 -6t10 -27q0 -22 -23.5 -34.5t-56.5 -12.5q-41 0 -67.5 31.5t-26.5 73.5q0 59 28 145.5t73 179.5t87.5 171.5 t85.5 154.5q12 20 17 29q-42 -22 -94 -45.5t-89 -38t-92 -36t-76 -30.5q-9 -15 -18.5 -55t-11.5 -45q-16 -50 -47 -114.5t-79 -138t-102.5 -134.5t-122.5 -101.5t-133 -40.5q-59 0 -98.5 41.5t-55.5 104.5t-16 143zM307 698q0 -30 74 -30q97 0 143 34q-19 54 -82 54 q-51 0 -93 -16.5t-42 -41.5z" />
<glyph unicode="&#x42c;" horiz-adv-x="698" d="M-47 203q0 40 8 110q3 21 18 67.5t15 68.5q0 16 -20 34.5t-19 38.5t24 39.5t53.5 40t41.5 35.5q14 17 33 57t28 54q148 246 367 475q6 6 55 62t80.5 83t52.5 27q60 0 60 -45q0 -20 -14.5 -43.5t-29.5 -38.5t-38.5 -36t-28.5 -26q-77 -78 -116 -119t-114.5 -124t-121 -147 t-62.5 -111q139 57 230 57q82 0 120.5 -40t38.5 -126q0 -103 -52 -221t-126.5 -209t-158.5 -152t-146 -61q-53 0 -89.5 19.5t-55 56.5t-26 78.5t-7.5 95.5zM47 182q0 -133 78 -133q60 0 129.5 60.5t123.5 144t90 173t36 146.5q0 46 -26 70.5t-75 24.5q-66 0 -147 -34.5 t-109 -70.5q-36 -48 -68 -158t-32 -223z" />
<glyph unicode="&#x42d;" horiz-adv-x="884" d="M-129 180q0 54 22.5 105.5t68.5 88t104 36.5q36 0 36 -39q0 -26 -12.5 -39.5t-30 -20t-35 -16t-30 -36t-12.5 -71.5q0 -56 32 -90.5t90 -34.5q66 0 126 24.5t104.5 61t89.5 94.5t75 108t66 118q5 9 22.5 41t27.5 54.5t10 35.5q0 37 -123 37q-17 0 -50.5 -1t-48.5 -1 q-71 0 -98 -6q-7 -2 -44.5 -19t-57.5 -16q-15 0 -27 13.5t-12 33.5q0 25 22.5 42.5t58 25t64.5 10t58 2.5q37 0 129.5 3t146.5 3q29 0 55.5 117t26.5 246q0 305 -172 305q-97 0 -170 -78.5t-84 -188.5q-1 -7 -2 -23.5t-2 -22.5t-3.5 -18t-6 -16.5t-9 -11t-14 -8.5t-20.5 -2 q-49 0 -49 61q5 156 118 275t260 119q75 0 129.5 -30.5t85 -85t44.5 -120.5t14 -145q0 -163 -49 -342q0 -1 -1 -3t-1 -3q0 -13 26.5 -29.5t26.5 -34.5q0 -16 -13 -26t-28.5 -14t-29.5 -10t-15 -15q-27 -79 -63 -157t-97 -170.5t-131 -161.5t-168.5 -116t-206.5 -47 q-92 0 -157.5 58t-65.5 151z" />
<glyph unicode="&#x42e;" horiz-adv-x="1701" d="M-74 961q0 83 33.5 159t102.5 127t159 51q55 0 162 -32.5t168 -32.5q140 0 256 153l13 19q14 19 26 33t30 27.5t33 13.5q19 0 31 -19t12 -41q0 -27 -15.5 -61t-38 -69t-26.5 -42q-14 -27 -27.5 -55t-21.5 -46.5t-21 -50.5t-20 -48q-108 -260 -143 -443q25 -8 77.5 11 t90.5 42q22 13 79 61t95 66q90 41 160 41q63 0 63 -45q0 -35 -43 -68.5t-90 -45.5q-149 -43 -190 -86q-52 -55 -52 -205q0 -47 6.5 -90t23.5 -89t53 -74t87 -28q105 0 213 92q128 108 250 365q135 272 135 491q0 98 -52.5 160t-151.5 62q-88 0 -168.5 -63.5t-110.5 -153.5 q-3 -11 -9 -40.5t-11 -50.5t-18 -39t-32 -18q-45 0 -45 66q0 64 27 125q66 156 207 227q77 39 178 39q78 0 143 -28.5t97 -84.5q53 -90 53 -215q0 -200 -152 -506q-123 -242 -282 -409q-62 -65 -140 -105.5t-161 -40.5q-62 0 -110 30t-76 80t-42 108t-14 120q0 33 5 67 t12.5 76t11.5 70q-52 -5 -111 -34.5t-80 -63.5q-10 -19 -27 -70.5t-22 -64.5q-65 -181 -104 -252q-43 -75 -86 -109q-51 -39 -113 -39q-60 0 -101.5 38t-41.5 108q0 79 73 180q49 66 168 164q15 12 56.5 41t67 51.5t40.5 46.5q10 16 19 38t14 39t13 46t11 41q57 182 115 328 q6 15 18 49t24 65t28 62q-71 -34 -112.5 -46t-102.5 -12q-49 0 -146 29t-153 29q-84 0 -138.5 -54.5t-54.5 -144.5q0 -95 58 -167.5t157 -72.5q42 0 108 31t97 31q19 0 31 -13.5t12 -33.5q0 -34 -44 -64t-97.5 -44.5t-93.5 -14.5q-139 0 -225.5 94.5t-86.5 231.5zM164 18 q0 -45 53 -45q33 0 82 69.5t83 150t34 116.5q0 19 -10 19q-42 0 -156 -133q-30 -38 -58 -90t-28 -87z" />
<glyph unicode="&#x42f;" horiz-adv-x="1374" d="M-158 158q0 72 65 148.5t113 76.5q35 0 62 -20t43.5 -48.5t30 -57.5t30.5 -49t37 -20q39 0 123 66q152 124 215 182q141 131 141 236q0 27 -26.5 84.5t-53 134.5t-26.5 151q0 70 33 143t90.5 134.5t144 101t183.5 39.5q129 0 197.5 -73.5t68.5 -178.5q0 -71 -30.5 -133.5 t-94 -104.5t-146.5 -42q-68 0 -114.5 39.5t-46.5 79.5q0 17 12.5 28.5t30.5 11.5q19 0 39.5 -18.5t45 -37.5t54.5 -19q78 0 123 53t45 125q0 77 -53 133.5t-152 56.5q-132 0 -231 -98.5t-99 -241.5q0 -45 18.5 -94.5t40 -87t40 -86t18.5 -92.5q0 -66 -41 -137.5t-109.5 -137 t-132.5 -117.5t-137 -105.5t-96 -73.5q-23 -21 11 -37q22 -9 50 -9q51 0 103 21t93.5 49.5t90 77t79 84.5t73.5 90q45 56 80.5 106t81 117.5t75.5 110.5q27 38 73 94t115.5 121.5t104.5 66.5q10 0 19 -6q18 -15 18 -47q0 -19 -6 -43.5t-16 -50.5t-18.5 -45t-19.5 -42 t-12 -26q-43 -93 -118 -240t-107 -214q-27 -55 -41 -86t-31.5 -87t-17.5 -96q0 -16 8.5 -25t18 -11t18 -6.5t8.5 -12.5q0 -20 -30.5 -39.5t-63.5 -19.5q-31 0 -41 32.5t-10 92.5q0 68 29.5 150.5t67.5 152t105.5 191.5t114.5 218q17 35 8 35q-13 0 -73 -64.5t-78 -90.5 q-24 -34 -77 -110.5t-81 -115t-74.5 -97t-93.5 -106t-102 -92.5q-162 -133 -293 -133q-63 0 -115 37q-4 3 -15 11.5t-18 13.5t-20.5 9.5t-28.5 4.5q-27 0 -80.5 -15.5t-78.5 -15.5q-69 0 -104.5 42t-35.5 104zM-80 162q0 -62 111 -62q23 0 42 16t19 40q0 35 -27 77.5 t-47 42.5q-39 0 -68.5 -36t-29.5 -78z" />
<glyph unicode="&#x430;" horiz-adv-x="1054" d="M-39 338q0 19 21 37q60 56 172 145q15 12 55 44.5t58.5 46.5t54 40t59.5 39t55.5 28t61 21t59.5 6q19 0 31 -13.5t12 -29.5t-14 -34.5t-25 -27t-35 -26.5q-50 -37 -167.5 -97t-139.5 -81q-43 -39 -83 -123t-40 -147q0 -86 80 -86q49 0 113 39t119.5 95.5t100 115.5 t62.5 102q15 36 39.5 81.5t58.5 98t73.5 88t72.5 35.5q43 0 43 -47q0 -34 -38 -82.5t-95 -117t-86 -130.5q-57 -120 -57 -194q0 -39 17.5 -58.5t47.5 -19.5q40 0 101 33q35 20 107.5 87t131.5 123t70 56q13 0 26 -12.5t13 -26.5q0 -18 -75 -94t-174 -154.5t-153 -97.5 q-50 -16 -80 -16q-50 0 -79.5 26.5t-36 57.5t-11 66.5t-8.5 43.5q0 3 -6 -3q-1 -2 -2 -3q-61 -71 -158 -135t-170 -64q-81 0 -119 48t-38 124q0 70 34 150l3 6q-18 -8 -40 4t-22 33z" />
<glyph unicode="&#x431;" horiz-adv-x="759" d="M-86 104q0 99 30.5 193t79 164.5t107.5 124.5t118 82t109 28q23 0 37.5 -14.5t14.5 -42.5q0 -21 -16 -35t-36.5 -21t-64.5 -19q-4 -1 -6.5 -1.5t-6 -1.5t-6.5 -2q-65 -18 -126 -100.5t-94.5 -174.5t-33.5 -155q0 -66 48 -66q64 0 145.5 51t155 133t127.5 198t63 233 q2 31 2 88q0 45 -4 124.5t-4 117.5q0 86 18 159t47.5 128t77 102t97.5 80t118 62t130 49t141 40q292 75 581 98q24 2 53 2.5t53.5 -13.5t24.5 -42q0 -76 -174 -76q-129 0 -235 -15t-246 -46q-95 -22 -163.5 -42t-146 -51.5t-133.5 -75.5t-89 -99q-62 -107 -62 -365 q0 -32 -3 -96t-3 -92q0 -101 -33.5 -203.5t-86.5 -185.5t-111 -147.5t-115 -106.5q-149 -109 -246 -109q-65 0 -99 37.5t-34 103.5z" />
<glyph unicode="&#x432;" horiz-adv-x="980" d="M-35 332.5q-4 20.5 12 36.5q43 32 86 77.5t50 67.5q66 193 185.5 367.5t276.5 318.5q74 68 166 136.5t206.5 127t189.5 58.5q69 0 69 -68t-59 -174q-34 -61 -83.5 -121.5t-117 -119t-128.5 -106.5t-150 -106t-148 -94.5t-155 -93.5q-99 -59 -144 -170q-18 -48 -33.5 -125 t-15.5 -149q0 -43 6 -80q3 -21 33 -21q137 0 375 383q17 87 44 126.5t70 39.5q37 0 37 -45q0 -54 -41 -127q-4 -46 -4 -82q0 -6 0.5 -21t0.5 -23t1 -22t2.5 -22.5t3.5 -19.5t6 -17.5t8.5 -13t11.5 -9.5t15 -3q36 0 98.5 42t114.5 93q10 10 27 10q14 0 25.5 -9.5t11.5 -25.5 q0 -25 -19 -41q-76 -68 -152 -111.5t-130 -43.5q-30 0 -51 16t-32 47.5t-15.5 54t-8.5 58.5q-3 12 -8 12q-8 0 -23 -21t-33.5 -49.5t-27.5 -38.5q-33 -40 -67.5 -76t-82 -76.5t-99 -64.5t-97.5 -24q-109 0 -109 186q0 53 13 146q3 22 -2 22q-3 0 -8.5 -4.5t-16 -15 t-16.5 -15.5q-20 -16 -42 -6.5t-26 30zM317 719q0 -12 11 -12q15 0 39 16q331 196 536 401q58 58 129.5 150t71.5 139q0 10 -14 10q-39 0 -140.5 -59.5t-175.5 -114.5q-139 -107 -260.5 -240.5t-181.5 -246.5q-15 -30 -15 -43z" />
<glyph unicode="&#x433;" horiz-adv-x="897" d="M-39 348q0 16 10 23q75 64 163.5 165t186 220t156.5 182q82 90 152.5 135t144.5 45q23 0 44.5 -8t41 -37.5t19.5 -77.5q0 -29 -11 -64t-38.5 -82t-47.5 -80t-65.5 -94t-64.5 -85.5t-70 -89.5t-112.5 -167.5t-61.5 -150.5q0 -63 57 -63q48 0 105.5 25t117 70.5t98 79 t86.5 79.5q19 17 40 8.5t25 -29t-13 -41.5q-119 -119 -269.5 -208t-234.5 -89q-59 0 -89 32.5t-30 86.5q0 149 186 397q4 6 48.5 64.5t73 98t67 96.5t58.5 100t20 67q0 35 -11 48.5t-34 13.5q-29 0 -85 -44.5t-104 -99.5q-64 -73 -153 -185.5t-169 -204.5t-171 -175 q-8 -8 -21 -8q-17 0 -31 15t-14 32z" />
<glyph unicode="&#x434;" horiz-adv-x="800" d="M-279 1176q0 36 37.5 90t63.5 80q45 43 88 75.5t102 64.5t132 49t155 17q99 0 179 -30.5t134.5 -82.5t91.5 -124.5t53.5 -153.5t16.5 -172q0 -102 -24.5 -218t-67.5 -227t-105.5 -213t-133.5 -178.5t-156 -122.5t-170 -46q-59 0 -86 37t-27 98q0 97 45 182q4 8 4 10 q0 4 -4 4q-3 0 -19 -6t-28 -6q-15 0 -28 10.5t-13 26.5q0 27 35 51q239 188 319 242q4 2 26 14.5t38 21t37.5 16t36.5 7.5q36 0 36 -45q0 -26 -25.5 -52t-51.5 -40t-68 -32t-47 -21q-48 -26 -118 -163t-70 -214q0 -49 36 -49q48 0 101 30.5t97.5 75.5t86.5 100t69 99.5 t44 79.5q127 264 127 520q0 179 -68 307q-39 76 -119 124t-176 48q-260 0 -459 -258q-16 -26 -39.5 -46.5t-46.5 -20.5q-18 0 -29.5 11.5t-11.5 29.5z" />
<glyph unicode="&#x435;" horiz-adv-x="675" d="M-55 246q0 73 42.5 167.5t108 177.5t152.5 140t168 57q52 0 88.5 -31.5t36.5 -86.5q0 -39 -17 -75t-40 -61t-65 -54t-72.5 -45.5t-84 -44.5t-78.5 -42q-17 -9 -49.5 -22t-53 -22.5t-22.5 -18.5q-4 -32 -4 -45q0 -82 47.5 -120t110.5 -38q147 0 434 287q19 19 40.5 11.5 t25.5 -28t-13 -43.5q-62 -63 -100.5 -100.5t-96.5 -84.5t-104.5 -72.5t-105.5 -43.5t-119 -18q-110 0 -169.5 76t-59.5 180zM117 430q0 -14 18 -14q33 0 102 40t127 98t58 99q0 15 -7.5 29t-21.5 14q-64 0 -156 -94t-116 -158q-4 -12 -4 -14z" />
<glyph unicode="&#x436;" horiz-adv-x="1622" d="M-37.5 338q-3.5 21 29.5 51q36 30 133 132.5t186.5 188t137.5 103.5q38 14 75 14q57 0 91 -36.5t34 -98.5q0 -36 -12 -76q-4 -16 -10 -32t-15.5 -36t-15.5 -33.5t-19.5 -38t-18.5 -34.5t-21.5 -37.5l-19.5 -32.5l-21 -35l-19 -30q12 -18 35 -18q26 0 58 21t55 46 q43 47 113 134.5t96 117.5q84 99 137 99q23 0 35 -20t12 -48q0 -31 -12 -74q-15 -54 -58.5 -138t-76.5 -159.5t-33 -132.5q0 -13 0.5 -18.5t2 -15.5t6.5 -14.5t13 -4.5q30 0 92 70q180 203 318 417q57 99 112 99q25 0 38.5 -16t13.5 -44q0 -40 -21 -71q-147 -225 -147 -369 q0 -37 20 -37q58 0 301 229q32 31 62 16q25 -12 16 -39q-4 -13 -18 -26q-7 -7 -57.5 -56t-83.5 -77.5t-84 -68.5t-95 -60t-80 -20q-82 0 -82 102q0 69 39 188q3 15 -4 15q-11 0 -60.5 -68.5t-117.5 -151.5t-117 -108q-50 -26 -88 -26q-41 0 -63.5 33t-22.5 83 q0 53 17.5 114.5t55.5 155.5t46 117q-24 -4 -44 -24t-42.5 -53.5t-28.5 -40.5q-59 -75 -98 -111q-53 -49 -121 -49q-18 0 -43 6.5t-33 7.5q-9 2 -36 -27t-58.5 -67.5t-40.5 -46.5q-76 -76 -133 -76q-34 0 -53 24.5t-19 65.5q0 44 21 113q11 35 30 71.5t46.5 73t65.5 59.5 t79 23q18 0 36.5 -15.5t33.5 -15.5q33 0 94 148q31 75 31 123q0 23 -10.5 40t-32.5 17q-48 0 -138 -82t-190.5 -193t-128.5 -135q-18 -15 -44.5 -8.5t-30 27.5zM205 125q0 -12 8 -12q6 0 17 8t23 19.5t22 22.5t18 21l8 9q1 1 16.5 21t21 28.5t12.5 26t7 32.5q-2 9 -10 18 t-18 9q-30 0 -70 -64q-55 -85 -55 -139z" />
<glyph unicode="&#x437;" horiz-adv-x="739" d="M-319 -512q0 63 28.5 117t83.5 121q34 40 83 78t83 38q17 0 29 -13t12 -32q0 -25 -31 -51.5t-75 -56.5t-62 -54q-74 -93 -74 -165q0 -39 24.5 -60.5t67.5 -21.5q78 0 183 52.5t196 149.5q98 106 185.5 251.5t87.5 244.5q0 61 -33 61q-22 0 -108 -44t-128 -44 q-41 0 -64.5 31t-23.5 76q0 80 45 186q21 50 77.5 131.5t56.5 106.5q0 16 -11 16q-17 0 -63 -49.5t-110 -123.5t-103 -109q-35 -31 -62 -9q-22 18 -12 45q4 9 12 17q36 32 88 91t91.5 104.5t95 89t108.5 59.5q16 4 29 4q34 0 54 -20t20 -56q0 -37 -23.5 -84.5t-57 -94.5 t-67 -95.5t-57 -101t-23.5 -97.5q0 -16 17 -16q16 0 108.5 41t143.5 41q56 0 82 -41q20 -33 20 -86q0 -79 -39.5 -182.5t-83.5 -174.5q-95 -153 -236.5 -275t-281.5 -159q-49 -14 -100 -14q-83 0 -132.5 45t-49.5 133z" />
<glyph unicode="&#x438;" horiz-adv-x="1140" d="M-31 319q-20 25 2 56q11 11 64.5 67.5t91.5 95.5t93 90.5t97 84.5q82 69 144 69q57 0 57 -67q0 -39 -16 -79.5t-47.5 -97t-46.5 -89.5q-58 -123 -76 -166q-27 -71 -27 -125q0 -33 19 -33q11 0 28 10t39 28.5t38 33.5t39.5 38.5t29.5 28.5q145 138 385 393q50 56 78 56 q15 0 26.5 -12t11.5 -29q0 -10 -3 -22.5t-9 -26t-10.5 -22.5t-11.5 -22t-9 -16q-26 -48 -69 -131q-30 -59 -44 -88t-31 -81.5t-17 -92.5q0 -45 16 -45q33 0 120.5 74t180.5 174q34 21 61 -4.5t-6 -59.5q-74 -72 -170 -155.5t-137 -104.5q-46 -22 -90 -22q-86 0 -86 77 q0 39 7.5 79t16.5 66.5t26 73t26 72.5q4 8 -2 8t-31 -24.5t-58.5 -60.5t-39.5 -42q-4 -5 -40 -43.5t-55.5 -59t-59.5 -57t-69 -56.5t-65 -36t-66 -16q-75 0 -75 103q0 59 21 135.5t44 128.5q13 31 57 122t58 138q-40 2 -113 -67q-4 -3 -6 -5q-32 -30 -121.5 -129 t-115.5 -125q-34 -15 -54 10z" />
<glyph unicode="&#x439;" horiz-adv-x="1169" d="M-37 344q0 8 3.5 16t7.5 14.5t11 13.5t11.5 10.5t11.5 9t8 6.5q50 46 142 143.5t147 161.5q2 2 21.5 27t32 38.5t33 28t36.5 14.5q22 0 33.5 -17t11.5 -42q0 -48 -37 -133q-20 -42 -77.5 -151.5t-86.5 -180.5q-3 -7 -12.5 -30t-13.5 -34t-10 -32t-8.5 -40.5t-2.5 -41.5 q0 -23 21 -23q30 0 87.5 42t102.5 85q133 121 340 361q4 4 22 26t30.5 35.5t32 31.5t38.5 27t37 9q23 0 37 -15.5t14 -41.5q0 -38 -26 -97q-68 -137 -115 -246q-2 -4 -11.5 -25.5t-13 -30.5t-12 -29.5t-12.5 -33t-9.5 -29.5t-7.5 -30.5t-2 -25.5q0 -21 21 -21t52.5 16.5 t51.5 32.5q39 30 130.5 121.5t101.5 100.5q20 20 36 20q14 0 25.5 -12t11.5 -27q0 -23 -18 -41q-21 -19 -85 -81.5t-113 -106.5t-89 -72q-87 -65 -135 -65q-102 0 -102 98q0 59 49 184q9 22 29.5 66t34.5 79t18 64q-23 -10 -47 -32.5t-56 -60t-41 -46.5q-99 -107 -245 -234 q-3 -3 -21.5 -19.5t-24.5 -21.5t-23 -18.5t-27.5 -18.5t-26.5 -12.5t-31.5 -10.5t-32.5 -3q-50 0 -77 37t-27 102q0 45 16.5 101.5t33 93t46.5 98.5l10 20q33 68 33 76q0 4 -4 4q-13 0 -77 -64t-114 -120q-6 -10 -26 -25.5t-37 -15.5q-13 0 -24 14t-11 29zM104 1276 q0 41 62 108q229 234 448 234q116 0 190.5 -82t74.5 -207q0 -41 -9 -90q-13 -68 -41 -100.5t-61 -32.5q-15 0 -26 9.5t-11 25.5q0 11 3.5 24.5t11 34.5t8.5 25q22 64 22 121q0 83 -47.5 135.5t-148.5 52.5q-81 0 -176.5 -56.5t-172.5 -131.5q-19 -19 -42 -46.5t-35 -39 t-23 -11.5q-9 0 -18 8.5t-9 18.5z" />
<glyph unicode="&#x43a;" horiz-adv-x="1255" d="M-34 353q5 18 22 34q22 22 120.5 132.5t145.5 148.5q88 69 135 69q24 0 36.5 -18t12.5 -45q0 -45 -26 -99q-22 -40 -113 -190.5t-129 -243.5q-15 -36 -5 -31q16 8 139 180q36 49 52 70q210 279 402 488q1 1 14 15.5t19.5 22t23 24.5t27 27t28.5 26.5t31 26.5t30.5 22 t32 19t30 11.5t28.5 4.5q32 0 52 -24t20 -58q0 -63 -64 -158q-9 -17 -58 -64t-83 -47q-14 0 -24.5 11t-10.5 26q0 16 16.5 37t36.5 38t35 40.5t12 44.5q-12 -3 -24.5 -10t-22 -13t-21.5 -17.5t-18.5 -18t-19.5 -20.5t-17 -19q-10 -11 -77.5 -81.5t-94 -100.5t-71.5 -87.5 t-72 -107.5q13 4 45 15t52.5 17.5t48 12.5t47.5 6q31 0 54 -19t23 -57q0 -24 -20.5 -111t-20.5 -128q0 -74 58 -74q30 0 71.5 18t75.5 39t84.5 61t74 61t70 63.5t48.5 44.5q39 35 63 8q19 -20 9 -46q-4 -10 -11 -16q-11 -9 -127.5 -111.5t-167.5 -138.5q-124 -90 -225 -90 q-139 0 -139 189q0 28 21.5 97t21.5 87q0 19 -17 19t-53 -24t-53 -24q-23 0 -42 17.5t-26 46.5q-44 -57 -139.5 -182t-134.5 -176q-6 -7 -28 -37.5t-33 -42.5t-32 -25.5t-42 -13.5q-22 0 -42 27.5t-20 66.5q0 43 18.5 96t33 81.5t49.5 90.5q5 8 100 159q76 120 57 120 q-4 0 -12 -4q-16 -9 -50 -41.5t-62 -62t-64.5 -69t-40.5 -44.5q-32 -33 -59 -17q-23 14 -14 46z" />
<glyph unicode="&#x43b;" horiz-adv-x="937" d="M-125 139q0 86 39.5 163t87.5 77q15 0 27 -12.5t12 -30.5q0 -15 -6 -27q-58 -103 -58 -180q0 -47 33 -47q13 0 33 14t46.5 42t49.5 54.5t55.5 69t51 67.5t49.5 66.5t37 50.5q44 60 78.5 102.5t81.5 92.5t90.5 77t79.5 27q29 0 37 -16t8 -47q0 -25 -10.5 -65t-21 -71.5 t-34 -94.5t-33.5 -91q-21 -59 -43 -136t-22 -99q0 -23 20 -23q14 0 39 12.5t44.5 27t40.5 30t22 16.5q16 12 71.5 63t103 93.5t52.5 42.5q16 0 29.5 -13.5t13.5 -31.5q0 -17 -10 -27q-111 -126 -248.5 -225.5t-198.5 -99.5q-82 0 -82 119q0 84 26.5 180t98.5 258 q3 3 6.5 19.5t-2.5 17.5q-34 0 -131 -129q-24 -33 -64.5 -92t-71.5 -104.5t-73 -99t-77.5 -88.5t-77 -59t-78.5 -24q-62 0 -91.5 42t-29.5 109z" />
<glyph unicode="&#x43c;" horiz-adv-x="1372" d="M-120 141.5q-1 41.5 10.5 83.5t28 76.5t40 56t47.5 21.5q22 0 34 -21t-1 -49q-25 -47 -41.5 -95.5t-14.5 -88t31 -43.5q29 -3 75 36.5t99.5 108.5t101.5 137t100.5 145t76.5 109q21 27 48.5 68.5t41.5 60t39.5 33.5t58.5 15q60 0 60 -64q-1 -38 -20.5 -92.5t-47 -116 t-35.5 -84.5q-51 -133 -71 -237q-8 -42 28 -21q46 28 124 122q4 5 7 9q26 32 71.5 89t81.5 99.5t81 90.5q82 82 139 82q45 0 45 -54q-1 -15 -62 -163q-104 -249 -94 -317q5 -32 33 -32t80.5 34t108.5 83.5t95 86.5t62 61q31 25 57.5 -0.5t0.5 -57.5q-59 -58 -131.5 -121.5 t-164 -127.5t-132.5 -64q-67 0 -94 27.5t-27 113.5q0 83 106 328q13 28 -4 16q-22 -16 -63 -67q-7 -8 -74 -90.5t-115.5 -138t-115 -109t-107.5 -53.5q-63 0 -63 86q-1 39 16 105.5t34.5 113.5t51.5 132t41 103q6 15 6 23l-2 4q-52 -53 -131 -166t-140.5 -204t-141 -163.5 t-148.5 -72.5q-42 0 -70 21.5t-38.5 56t-11.5 76z" />
<glyph unicode="&#x43d;" horiz-adv-x="1269" d="M-29 8q0 16 16 39.5t37 47t25 30.5q54 78 122.5 202t107.5 214q12 28 -16 6q-26 -20 -163 -161q-48 -50 -67 -67q-32 -29 -58 -4.5t0 58.5q4 4 32 31.5t54 53.5t61.5 62.5t72 76t67.5 75.5q6 7 32.5 39.5t42 49t38.5 33.5t41 17q20 0 32.5 -15.5t12.5 -37.5 q0 -34 -23.5 -88t-63.5 -128t-55 -108q77 43 125 43q33 -1 60 -24.5t43.5 -51t45.5 -50.5t64 -23q93 0 197 133q67 83 98 149q11 25 18.5 39.5t23.5 29.5t34 15q21 0 38 -14.5t17 -36.5q0 -41 -34 -90q-46 -67 -65 -96.5t-47 -83t-48 -109.5q-33 -95 -33 -137q0 -35 23 -35 q25 0 71.5 33t121.5 95q3 3 5 4.5t5 4t5 4.5q93 75 158 140q21 13 41.5 5t23 -27.5t-19.5 -43.5q-159 -154 -240 -215q-138 -106 -219 -106q-45 0 -68.5 32t-23.5 82q0 63 33 168q-68 -35 -127 -35q-38 0 -78 19q-21 11 -48 43.5t-54 57t-57 24.5q-11 0 -21 -2.5t-20 -9 t-17.5 -11.5t-17.5 -15.5t-14.5 -15t-14.5 -16.5t-12 -14q-66 -77 -101.5 -125t-74.5 -123q-18 -31 -47.5 -53.5t-55.5 -22.5q-15 0 -28 11.5t-13 27.5z" />
<glyph unicode="&#x43e;" horiz-adv-x="765" d="M-49 340q0 17 12.5 31t36.5 31.5t37 31.5q26 26 61.5 73.5t74 85.5t95.5 75q61 34 82 34q31 0 31 -40q0 -81 -162 -199q-156 -112 -156 -293q0 -41 23.5 -68.5t60.5 -27.5q85 0 180.5 83t157.5 197t62 203q0 53 -45 68q-53 18 -53 59q0 27 18 44t47 17q63 0 96 -49 t33 -118q0 -94 -45.5 -201.5t-118 -196.5t-172 -148t-198.5 -59q-56 0 -91.5 34t-47 76.5t-11.5 92.5q0 21 6 56t6 47q0 11 -10 27t-10 34z" />
<glyph unicode="&#x43f;" horiz-adv-x="1265" d="M-38.5 336q-3.5 21 13.5 39q101 83 293 321q96 121 158 121q28 0 44.5 -22t16.5 -54q0 -71 -59 -200q-5 -12 -21 -40t-25 -51t-5 -42q25 10 61.5 40t86 76.5t71.5 65.5q45 38 80.5 63.5t91 49.5t104.5 24q62 0 105 -30t43 -91q0 -58 -32 -133t-70 -133.5t-70 -118 t-33 -90.5q0 -43 37 -43q34 0 92 35q57 34 141.5 106.5t153.5 141.5q26 26 52 3t9 -55q-240 -228 -335 -282q-91 -53 -168 -53q-44 0 -75.5 29t-31.5 77q0 52 33 135q7 17 53 103t81.5 164t35.5 112q0 33 -29 33q-65 0 -280 -166q-73 -55 -145.5 -121t-120.5 -114t-134 -138 q-4 -5 -24.5 -28.5t-33.5 -37t-34 -27t-39 -13.5q-13 0 -23 9.5t-10 23.5q0 18 14.5 42t39 53t26.5 32q195 257 254 483q-14 -3 -29 -13t-23 -18t-25 -27t-21 -24q-139 -165 -231 -242q-19 -16 -39.5 -6t-24 31z" />
<glyph unicode="&#x440;" horiz-adv-x="1204" d="M-268 -408q0 26 39 82q315 495 485 858q-14 0 -59 -45t-96 -100t-68 -68q-32 -29 -57 -2.5t1 60.5q87 68 222 225q66 77 109.5 118t99.5 73q28 14 43 14q22 0 36.5 -20t14.5 -46q0 -35 -17 -66t-49 -71q-64 -80 -126.5 -183.5t-92.5 -193.5q12 7 36.5 30.5t45 46.5 t52 57.5t42.5 46.5q63 67 109.5 112.5t115 105t136 98.5t131.5 56q24 6 47 6q39 0 65.5 -21.5t26.5 -62.5q0 -48 -35 -131q-26 -62 -81.5 -166t-73.5 -145q-33 -82 -33 -92q0 -18 26 -18q39 0 103 28q52 24 108 70.5t138 126.5q17 16 39.5 8.5t28.5 -26.5t-7 -38 q-186 -193 -346 -249q-61 -21 -103 -21q-44 0 -68 26t-24 75q0 54 26.5 120t74.5 158q94 177 94 203q0 16 -23 16q-26 0 -71 -19t-76 -40q-194 -137 -451 -418q-70 -77 -144 -171.5t-119.5 -157.5t-131.5 -187q-2 -3 -11 -17t-13.5 -19.5t-13.5 -18t-16.5 -18.5t-17 -13.5 t-20 -10.5t-21.5 -3q-12 0 -21 12t-9 26z" />
<glyph unicode="&#x441;" horiz-adv-x="663" d="M-55 250q0 64 28 135.5t78 135.5t112.5 116.5t136.5 83.5t144 31q62 0 99 -26t37 -81q0 -70 -46.5 -136.5t-101.5 -66.5q-17 0 -32 11.5t-15 25.5q0 32 20.5 60.5t41 51.5t20.5 42q0 16 -10 23.5t-19 7.5q-67 0 -137 -40t-122.5 -101.5t-86 -138t-33.5 -146.5 q0 -60 33 -96t101 -36q171 0 444 267q14 13 34.5 7t27 -24.5t-10.5 -42.5q-30 -37 -91.5 -90t-127.5 -96q-189 -127 -313 -127q-99 0 -155 70.5t-56 179.5z" />
<glyph unicode="&#x442;" horiz-adv-x="1687" d="M-39 355q4 12 14 20q47 37 170.5 172t188.5 182q68 47 117 47t72.5 -44.5t23.5 -113.5q0 -42 -10 -94q15 11 58 52.5t80 74.5t92.5 61.5t106.5 28.5q50 0 76.5 -30.5t26.5 -85.5q0 -92 -51 -238q-9 -29 50 22q3 3 77 72q19 17 59 56.5t73 67t72 52.5q71 37 109 37 q32 0 51 -23t19 -59q0 -75 -72 -221q-88 -192 -88 -266q0 -29 18 -29q43 0 166 98.5t201 176.5q18 18 40.5 10t27.5 -28t-13 -42q-198 -187 -295 -250q-110 -77 -182 -77q-39 0 -62.5 28t-23.5 70q0 23 5 50.5t15.5 57.5t18.5 50.5t21 51t16 38.5q8 20 34.5 74.5t38.5 91 t13 75.5q-66 -4 -151 -79q-1 -1 -31 -29q-20 -19 -40 -39t-43 -43.5t-38 -40t-41.5 -46t-37.5 -41.5t-42 -47t-39 -44q-2 -3 -32 -47.5t-56 -69.5t-51 -25q-17 0 -28 12t-11 31q0 39 24 87q7 14 38.5 74t47 92.5t38 84t32.5 91t10 71.5q0 66 -43 66q-33 0 -81.5 -29 t-82.5 -59q-100 -88 -184 -202t-131 -237q-9 -23 -16.5 -38t-22 -28t-31.5 -13q-21 0 -35 12.5t-14 36.5q0 11 3 24.5t6.5 22.5t9.5 24.5t8 20.5q24 55 84 154.5t88 179.5q22 73 22 125q0 59 -30 59q-24 1 -65.5 -35.5t-84.5 -85.5t-109 -121t-120 -121q-31 -29 -59 -8 q-23 18 -15 44zM578 889q0 8 5.5 16t17 14t22 11t29 10t29.5 7.5t31 7t27 6.5q212 51 555 51q52 0 154 -4q131 -5 131 -78q0 -41 -86 -41q-46 0 -156 15.5t-184 15.5q-161 0 -399 -31q-38 -5 -73 -11.5t-53 -10t-26 -3.5q-9 0 -16.5 7.5t-7.5 17.5z" />
<glyph unicode="&#x443;" horiz-adv-x="899" d="M-1348 -748q0 13 11 20t22 -3q90 -83 193 -115.5t229 -32.5q525 0 1272 1051q5 5 21 30.5t16 35.5q0 8 -6 8q-4 0 -27 -13.5t-53.5 -32t-38.5 -22.5q-135 -76 -209 -76q-67 0 -98 41t-31 142q0 57 55 171t127 207t115 93q24 0 37.5 -12.5t13.5 -30.5q0 -25 -64 -115 t-128 -191t-64 -153q0 -32 14.5 -45.5t44.5 -13.5q81 0 263.5 134.5t259.5 239.5q6 8 39 70t68 104.5t69 42.5q19 0 33 -14t14 -31q0 -31 -80 -143l-102 -152q-260 -385 -403 -572q-390 -506 -741 -703q-247 -138 -489 -138q-84 0 -170 25.5t-148.5 77.5t-64.5 116z" />
<glyph unicode="&#x444;" horiz-adv-x="1376" d="M-66 193q0 92 46.5 198.5t115 191t151.5 141t152 56.5q119 0 119 -114q0 -52 -21 -94t-57 -42q-28 0 -28 25q0 12 12 46.5t12 49.5q0 20 -17 30.5t-34 10.5q-75 0 -215 -182q-53 -71 -91 -157t-38 -160q0 -41 20 -78t66 -37q34 0 80.5 34t100.5 96t108 133.5t116 163.5 t111.5 168t106.5 165t90 137q17 25 42 88t49 103t52 40q49 0 49 -55q0 -24 -9 -57t-18.5 -57.5t-22.5 -54t-15 -34.5q-31 -76 -140 -264.5t-141 -290.5q36 26 81 70t83 82.5t80 75.5t88 59t92 22q58 0 95.5 -43t37.5 -102q0 -97 -32.5 -189t-83 -159.5t-110 -119.5 t-116 -78.5t-98.5 -26.5q-43 0 -65.5 19.5t-22.5 51.5q0 38 22.5 74t55 62.5t78 52.5t81 41.5t76 32.5t51.5 22q23 11 46.5 66.5t23.5 107.5q0 96 -57 96q-39 0 -90.5 -31.5t-105 -83.5t-98.5 -103t-87 -105q-54 -70 -99 -134.5t-93 -147.5t-72 -126t-84.5 -158t-81.5 -155 q-1 -1 -12.5 -25t-19.5 -38.5t-21.5 -34.5t-27.5 -30.5t-28 -10.5q-25 0 -36 15t-11 32q0 29 14 57q50 99 108 195.5t102.5 168t128 236t186.5 399.5q7 16 10.5 27.5t3.5 15.5t-2 5q-9 0 -52.5 -60.5t-82.5 -124.5q-40 -66 -76.5 -119.5t-82.5 -111t-87.5 -96.5t-88 -64 t-87.5 -25q-83 0 -134 58.5t-51 157.5zM815 88q0 -12 16 -12q23 0 67 27.5t85 70.5q44 44 66 82q-36 -9 -93 -45q-56 -34 -98.5 -69.5t-42.5 -53.5z" />
<glyph unicode="&#x445;" horiz-adv-x="1015" d="M-143 -141q0 17 12.5 39.5t37.5 56t30 41.5q46 70 86 151q99 198 141 324q5 13 16 50t19 61t23.5 57t31 53t39.5 34.5t51 14.5q30 0 52.5 -16t36.5 -46t22.5 -58.5t19 -69.5t17.5 -62q65 41 165.5 184.5t100.5 209.5q0 7 -2 11.5t-9.5 7.5t-10.5 4t-15 3q-2 0 -13.5 0.5 t-16 1.5t-14 3.5t-14 6.5t-8.5 11.5t-4 17.5q0 32 35.5 48t87.5 16q41 0 68.5 -23t27.5 -65q0 -61 -61 -164q-60 -111 -193 -270q-10 -13 -35 -36t-40 -41.5t-15 -35.5q0 -46 38.5 -153t78.5 -107q38 0 116.5 55.5t132 104t95.5 90.5q26 26 47.5 16.5t21.5 -34t-14 -40.5 q-20 -17 -93.5 -83t-123.5 -108t-118 -81t-115 -39q-86 0 -152 266q-20 -10 -44 -31t-60 -57l-43 -43q-162 -158 -266 -233q-7 -5 -28 -22.5t-34.5 -28t-33 -20t-33.5 -9.5q-15 0 -28 10.5t-13 26.5zM76 61q0 -8 4 -8q10 0 28.5 13t42.5 36.5t42 42.5t42.5 45.5t28.5 30.5 q9 9 31.5 32.5t38 40.5t33 38t27 37t9.5 26q0 11 -8 39q-3 11 -10 42t-12 50t-12 42t-14.5 34.5t-14.5 11.5q-17 0 -47 -43q-9 -14 -18.5 -32t-16 -33t-17 -40t-15 -36.5t-15 -41t-13.5 -36.5q-14 -39 -44.5 -108.5t-50 -118.5t-19.5 -64z" />
<glyph unicode="&#x446;" horiz-adv-x="1224" d="M-31 321q-20 25 2 56q43 39 178.5 166t161.5 151q1 1 11.5 10.5t16 15t18 16t21 17t21 15t22.5 13.5t21.5 8.5t20.5 3.5q22 0 34.5 -19t12.5 -45q0 -28 -14 -67.5t-29.5 -69t-40 -73.5t-31.5 -58q-108 -206 -108 -289q0 -41 24 -41q29 0 81.5 30t94.5 62q147 111 318 318 q7 7 35.5 51t56 73t51.5 29q18 0 28.5 -14.5t10.5 -34.5q0 -58 -67 -168q-14 -24 -59.5 -85t-71 -112t-25.5 -102q0 -48 27 -76.5t73 -25.5q10 1 28.5 12.5t43 32.5t42 37.5t42.5 40.5t29 28q14 13 73.5 74t73.5 74q37 23 60 -7t-9 -59q-157 -146 -207 -196q-8 -9 -32 -31.5 t-37.5 -37.5t-12.5 -21q2 -11 14.5 -52t12.5 -73q0 -54 -21 -121.5t-57 -129t-92 -103.5t-117 -42q-52 0 -91.5 28t-39.5 79q1 55 19 103t47 85t59 67t61 63.5t46 60.5q-15 13 -51.5 33t-51.5 38q-32 43 -32 99q0 43 14 100q-30 -12 -65.5 -36.5t-82 -60.5t-73.5 -55 q-105 -73 -193 -73q-96 0 -96 110q0 71 45 199q18 47 100 215q12 21 4 21q-11 0 -62.5 -48.5t-123 -118t-108.5 -100.5q-34 -15 -54 10zM657 -379q0 -18 12 -28.5t33 -10.5q46 0 92 53t74 117q7 17 18 61.5t11 77.5q0 41 -18 50q-52 -43 -146 -168q-76 -101 -76 -152z" />
<glyph unicode="&#x447;" horiz-adv-x="886" d="M-29 369q41 36 110.5 134t98.5 167q9 21 20.5 53.5t19 53t18.5 41.5t25.5 31.5t33.5 10.5q35 0 66 -25.5t53.5 -61.5t44 -72t46.5 -61.5t52 -25.5q5 0 51.5 27t73.5 27q18 0 32.5 -13t14.5 -34q0 -57 -145 -125q-17 -8 -67 -68.5t-98 -144.5t-48 -136q0 -31 20.5 -50 t52.5 -19q35 0 82 22.5t85.5 49t91.5 73.5t77 70.5t66 65.5l3.5 3.5l3.5 3.5l3 3l3 3l3 3q37 23 57 -7t-12 -59q-18 -16 -74.5 -69.5t-98.5 -88.5t-101.5 -77.5t-120.5 -65t-119 -22.5q-68 0 -102.5 36.5t-34.5 100.5q0 87 58.5 201t160.5 217q1 9 -18 23.5t-50.5 43 t-52.5 66.5q-22 39 -41 39q-6 0 -11 -3t-10 -9.5t-9 -11.5t-8.5 -16t-7 -16.5t-7.5 -18t-6 -15.5q-28 -71 -97 -161.5t-126 -142.5q-32 -29 -60 -6.5t-2 56.5z" />
<glyph unicode="&#x448;" horiz-adv-x="1474" d="M-36 332.5q-2 20.5 20 44.5q19 18 83.5 84.5t73.5 75.5q8 8 43.5 44t50 50t43 40t51 41t44.5 25q43 19 69 19q24 0 39 -17.5t15 -44.5q0 -48 -47 -127q-19 -32 -55.5 -91.5t-62.5 -105t-50 -94.5q-4 -9 -13.5 -26t-15 -27t-13.5 -28t-10 -28.5t-4 -28t4 -27.5 q24 7 47.5 25.5t35.5 32t37.5 47.5l31.5 42q159 202 278 311q2 2 20.5 20t27 25.5t28 23.5t32.5 23.5t30 14t32 6.5q39 0 64 -43q-2 -63 -25.5 -129.5t-51.5 -115t-55.5 -111.5t-35.5 -117q12 2 25.5 8t28.5 17.5t25.5 20t28.5 26.5t24 24.5t24.5 27t19.5 21.5 q45 47 140.5 144.5t142.5 146.5q25 27 63 50.5t66 23.5q18 0 30.5 -12.5t12.5 -32.5q0 -26 -18.5 -65.5t-51 -93t-41.5 -71.5q-4 -8 -31.5 -59t-38 -74t-24 -68t-14.5 -85q11 -3 51.5 8t70 9t31.5 -32q2 -24 -19.5 -35.5t-56 -17.5t-47.5 -14q-11 -7 -17.5 -24t-15 -31.5 t-24.5 -18.5q-17 -5 -26.5 0.5t-12.5 15.5t-11.5 21t-21.5 14q-12 2 -22 1.5t-29 -2t-29 -1.5q-84 -4 -326 12.5t-333 6.5q-18 -2 -52.5 -30.5t-49.5 -29.5q-30 -4 -59 8t-38 33q-8 1 -27.5 -2t-34.5 -5.5t-28 3t-14 21.5q-2 21 16.5 30t45 15t34.5 14q4 4 11.5 23.5 t18.5 49.5t17 44q25 61 99 197.5t94 189.5q-20 -1 -60.5 -34t-80 -74t-87 -90.5t-73.5 -70.5q-21 -19 -43 -13t-24 26.5zM354 100q185 -4 234 6q18 35 42.5 107t35.5 98q8 18 29.5 55.5t34.5 68.5t13 59q0 20 -12 20l-12 -4q-71 -52 -204.5 -202.5t-160.5 -207.5zM793 94 q37 -15 123.5 -15t109.5 15q11 7 17 19.5t8 26t7 43.5t13 59q10 37 46 106.5t36 91.5q0 13 -6 13q-1 0 -8 -7q-63 -49 -180 -177.5t-166 -174.5z" />
<glyph unicode="&#x449;" horiz-adv-x="1613" d="M-66 -188q0 14 9 25.5t25 20t33.5 15.5t40 12.5t38.5 8.5t35 6t24 4q207 39 463 39q177 0 291 -25q68 -16 68 -59q0 -27 -39 -27q-10 0 -50 8q-139 19 -266 19q-213 0 -459 -47q-22 -4 -82 -23.5t-85 -19.5q-46 0 -46 43zM-31 319q-20 25 2 56q10 9 123 119t160 151 q4 3 17.5 15t19.5 18t19.5 15.5t22.5 14.5t21 9t23 4q23 0 35 -15.5t12 -41.5q0 -44 -23 -101q-9 -22 -56.5 -129.5t-70.5 -173.5q0 -2 -9 -25t-16 -47.5t-7 -42.5q0 -16 8.5 -29.5t25.5 -13.5q38 0 101.5 52t91.5 88q195 230 365 469q16 22 23.5 31.5t24 28t31.5 26.5t29 8 q62 0 62 -57q0 -45 -46 -140q-16 -36 -68 -137.5t-79 -169.5q-37 -93 -37 -135q0 -31 21 -31t43 10.5t49 35.5t37.5 36t38.5 41q43 47 78.5 96.5t79 115t75.5 110.5q3 4 25 40.5t41.5 55t42.5 18.5q16 0 28.5 -10.5t12.5 -26.5q0 -23 -35 -90q-164 -310 -164 -407 q0 -49 20.5 -73t69.5 -40q9 -3 19 0.5t21 13.5t20 19t22 23.5t20 21.5q97 90 246 246q32 20 55.5 -2t6.5 -54q-27 -29 -73 -74t-106 -102.5t-79 -75.5q-5 -5 -30.5 -27.5t-38.5 -38.5t-17 -32q-3 -17 1.5 -47t4.5 -49q0 -31 -11 -76q-20 -84 -96 -189t-151 -167 q-30 -25 -74.5 -45.5t-83.5 -20.5t-63.5 29.5t-24.5 75.5q0 73 72 174q32 45 62.5 80t77 82t68.5 71q4 4 30.5 29t40.5 40.5t15 22.5q1 9 -20.5 27t-47.5 41.5t-34 44.5q-9 26 -10 50t3 40.5t10 40.5t7 43q-16 -12 -73 -72.5t-101 -93.5q-33 -25 -80 -47t-86 -22 q-36 0 -56.5 27.5t-20.5 70.5q0 55 30 135.5t72.5 170t54.5 126.5q-21 -7 -52 -45.5t-64.5 -90t-43.5 -63.5q-9 -12 -45.5 -57.5t-55.5 -68.5t-56 -64t-64 -65.5t-61.5 -49.5t-65.5 -37q-38 -14 -71 -14q-46 0 -73.5 29.5t-27.5 81.5q0 58 16.5 119.5t37.5 105.5t45 98.5 t34 93.5q-6 4 -30 -13t-56.5 -48t-63 -61t-61 -60.5l-38.5 -38.5q-34 -15 -54 10zM893 -512q0 -16 4.5 -23.5t20.5 -7.5q28 0 61 29q78 69 158 187t80 182q0 17 -5 24q-23 -3 -76.5 -55t-89 -93.5t-63.5 -76.5q-31 -39 -43 -55t-29.5 -50.5t-17.5 -60.5z" />
<glyph unicode="&#x44a;" horiz-adv-x="931" d="M-43 329.5q-7 20.5 6 39.5q126 142 192 320t68 304q0 17 15.5 30t33.5 13q24 0 33 -24q12 -39 23.5 -68t34 -63.5t49.5 -57t69 -38t94 -15.5q50 0 117.5 27.5t98.5 27.5q36 0 36 -20q0 -33 -22 -56.5t-67.5 -47t-53.5 -29.5q-135 -97 -225 -252.5t-90 -300.5 q0 -25 12 -25q20 0 68.5 43t82.5 82q37 40 75 104.5t38 102.5q0 8 -10 8q-5 0 -32 -7t-38 -7q-28 0 -28 31q0 32 42.5 56.5t90.5 24.5q35 0 60.5 -16t25.5 -49q0 -69 -74.5 -184.5t-175.5 -205t-166 -89.5q-36 0 -60 36t-24 85q0 92 24 177t68 157t88.5 125t102.5 110 q-51 -1 -91 7t-67 24.5t-42 29t-34 35t-24 27.5q-23 -112 -96.5 -253t-151.5 -229q-20 -22 -44.5 -16t-31.5 26.5z" />
<glyph unicode="&#x44b;" horiz-adv-x="1161" d="M-29 369q23 21 57 55t52 51q196 186 285 289q2 2 22 29.5t34.5 45.5t37 36t39.5 18q34 0 34 -29t-47 -102q-7 -10 -50 -74t-54 -81t-45 -70.5t-51.5 -82.5t-43 -73.5t-46.5 -85.5q-1 -2 -9.5 -18.5t-10.5 -20.5t-10 -20.5t-10.5 -23t-9 -21.5t-9 -23.5t-7 -22.5t-6 -24.5 t-3 -23t-1.5 -23.5t0.5 -16t5.5 -12t16 -7q32 0 89 40t77 77q-43 57 -43 131q0 56 32.5 100.5t90.5 44.5q48 0 74 -32t26 -83q0 -53 -30 -108q35 4 82 28t82 50q141 94 309 282q6 7 33 46.5t53.5 66.5t50.5 27q15 0 27 -10.5t12 -26.5q0 -11 -4.5 -24.5t-12.5 -27t-15 -23.5 t-14.5 -20.5t-8.5 -11.5q-14 -22 -50 -75.5t-54.5 -82.5t-47 -75t-51 -90t-43.5 -90q-6 -12 -6 -21q0 -10 10 -10q22 0 84 45.5t106 85.5q85 68 138 121q32 20 53 -0.5t4 -53.5q-1 -1 -25 -23.5t-30 -27.5t-30 -27t-34 -31t-34 -29.5t-37.5 -31t-35.5 -28.5t-38.5 -29.5 t-36 -24.5t-37.5 -24q-29 -16 -78.5 -34.5t-85.5 -18.5q-21 0 -35 10.5t-14 30.5q0 33 49 125.5t60 134.5q-17 -11 -57.5 -44.5t-87.5 -65t-105 -56.5q-12 -5 -55.5 -11.5t-55.5 -11.5q-17 -7 -67 -46t-104.5 -70t-98.5 -31q-101 0 -101 104q0 72 43 176t103 203 q-64 -48 -133 -125q-32 -29 -60 -3.5t-2 59.5zM354 274q0 -34 11 -45q12 2 26.5 28.5t14.5 49.5q0 11 -6 20t-17 9q-14 0 -21.5 -19t-7.5 -43z" />
<glyph unicode="&#x44c;" horiz-adv-x="737" d="M-26 318q-23 31 3 57q28 28 53.5 50t41 37t32.5 36q10 13 24.5 43t32.5 72.5t25 56.5q90 201 232 371.5t338 340.5q29 27 86 63t92 36q16 0 27.5 -11.5t11.5 -29.5q0 -26 -26 -51t-67 -49.5t-46 -28.5q-145 -109 -236.5 -203.5t-183.5 -233.5q-5 -8 -39.5 -60.5 t-51.5 -80t-38 -72t-27 -77.5q20 2 73 15t70 13q83 0 121.5 -44t38.5 -117q0 -77 -36.5 -164t-90.5 -144q-43 -48 -109 -88.5t-116 -40.5q-31 0 -55 11t-39.5 33t-25.5 46.5t-15 62t-7.5 68t-3.5 74.5q0 15 -10 15t-24 -17q-32 -20 -55 11zM178 240q0 -127 62 -127 q34 0 75.5 33t65.5 69q70 101 70 203q0 54 -25 81t-68 27q-36 0 -73.5 -16.5t-61.5 -44.5q-16 -25 -30.5 -93.5t-14.5 -131.5z" />
<glyph unicode="&#x44d;" horiz-adv-x="778" d="M-6 88q0 16 13 29.5t30 13.5q19 0 50 -30.5t56 -30.5q34 0 72.5 21.5t60 40.5t55.5 54l9 9q98 98 74 100q-22 1 -142 22q-34 6 -54.5 22.5t-20.5 39.5q0 19 11 34t30 15t63.5 -21.5t63.5 -23.5q48 -5 57.5 -5t48.5 7q33 40 56.5 110t23.5 130q0 33 -10 63q-16 47 -74 47 t-129 -41q-34 -20 -66 -54t-52.5 -56.5t-35.5 -22.5q-17 0 -29 15t-12 34q0 34 34.5 73t60.5 56q113 76 225 76q99 0 153 -49t54 -145q0 -145 -133 -345q-201 -296 -392 -296q-52 0 -84 18q-16 8 -41.5 36.5t-25.5 53.5z" />
<glyph unicode="&#x44e;" horiz-adv-x="1318" d="M-37.5 330.5q-9.5 25.5 8.5 44.5q63 57 135.5 134.5t117 128.5t88.5 88.5t71 37.5q31 0 46 -18t15 -48q-1 -44 -38 -121t-92.5 -175t-77.5 -150q-6 -15 -22 -43t-25 -50.5t-9 -45.5q0 -7 8 -7q28 0 91 39q21 14 45 35t40 37t41.5 42.5t36.5 37.5q25 25 92 81.5t101 98.5 q8 10 38.5 50t52 65.5t53.5 57.5t63.5 48.5t60.5 16.5q49 0 49 -45q0 -43 -121 -144q-79 -65 -100 -99t-47 -130q-25 -90 -25 -145q0 -91 78 -91q75 0 148 62t122 149.5t79 177t30 148.5q0 42 -18 61t-39.5 19t-39.5 9t-18 34q0 33 23 48t53 15q39 0 67.5 -16.5t43.5 -44.5 t22 -59t7 -66q0 -73 -28 -159.5t-78.5 -168t-113.5 -148.5t-139 -108t-149 -41q-87 0 -128.5 61t-41.5 146q0 53 16 103q-27 -18 -84.5 -71.5t-107.5 -100.5t-112 -85t-106 -38q-34 0 -56.5 21.5t-22.5 62.5q0 51 33.5 134.5t87.5 189.5t69 141q-21 -6 -55 -41t-82 -89.5 t-86 -87.5q-14 -14 -33 -14q-28 0 -37.5 25.5z" />
<glyph unicode="&#x44f;" horiz-adv-x="1079" d="M-115 160q0 28 16.5 76.5t47.5 91.5t63 43q16 0 28.5 -12.5t12.5 -30.5q0 -11 -2 -15q-6 -21 -37.5 -78.5t-31.5 -97.5q0 -38 19.5 -61t49.5 -23q89 0 189 86.5t129 179.5q3 9 -11 12q-8 1 -41 1q-31 0 -51.5 3t-47.5 13.5t-41.5 37t-14.5 67.5q0 80 69.5 170t168 149 t178.5 59q63 0 98 -39.5t35 -91.5t-27.5 -96.5t-79.5 -44.5q-12 0 -21.5 9.5t-9.5 25.5q0 19 19.5 54t19.5 57q0 49 -59 49q-23 0 -68 -22.5t-92 -58t-82 -88.5t-35 -106q0 -44 32 -60t104 -16q86 0 86 -55q0 -39 -37.5 -99.5t-98.5 -119.5q-166 -162 -315 -162 q-79 0 -120.5 54.5t-41.5 138.5zM526 94q0 62 50.5 182.5t130.5 237.5q79 117 137 117q39 0 39 -49q0 -16 -21 -52.5t-51 -68.5q-53 -57 -113.5 -169t-60.5 -171q0 -29 29 -29q40 0 109 45.5t128.5 100.5t112 101.5t63.5 47.5q23 3 38 -23t-3 -45q-153 -150 -288 -241.5 t-199 -91.5q-53 0 -77 30.5t-24 77.5z" />
<glyph unicode="&#x451;" horiz-adv-x="792" d="M-55 246q0 73 42.5 167.5t108 177.5t152.5 140t168 57q52 0 88.5 -31.5t36.5 -86.5q0 -39 -17 -75t-40 -61t-65 -54t-72.5 -45.5t-84 -44.5t-78.5 -42q-17 -9 -49.5 -22t-53 -22.5t-22.5 -18.5q-4 -32 -4 -45q0 -82 47.5 -120t110.5 -38q147 0 434 287q19 19 40.5 11.5 t25.5 -28t-13 -43.5q-62 -63 -100.5 -100.5t-96.5 -84.5t-104.5 -72.5t-105.5 -43.5t-119 -18q-110 0 -169.5 76t-59.5 180zM117 430q0 -14 18 -14q33 0 102 40t127 98t58 99q0 15 -7.5 29t-21.5 14q-64 0 -156 -94t-116 -158q-4 -12 -4 -14zM207 1036q0 31 23 51.5t55 20.5 q31 0 47 -20t16 -54q0 -32 -29.5 -60t-62.5 -28q-49 0 -49 90zM446 1051q0 30 25.5 52.5t56.5 22.5q30 0 47 -18t17 -49q0 -30 -30 -62t-60 -32q-27 0 -41.5 26t-14.5 60z" />
<glyph unicode="&#x452;" horiz-adv-x="1019" d="M-139 -395q0 54 42.5 126t80.5 72q32 0 32 -26q0 -15 -31.5 -70.5t-31.5 -93.5q0 -51 55 -51q196 0 492 381q60 78 122.5 182t112.5 227.5t51 206.5q0 55 -36 55q-39 0 -92.5 -30.5t-100 -69t-112.5 -106.5t-103 -110t-98 -112q-6 -6 -30.5 -35.5t-44.5 -51t-48 -47.5 t-55 -40t-50 -14q-25 0 -37 14.5t-12 36.5q0 17 6 38.5t16 44t18.5 39.5t19 36t12.5 22q38 67 71 135t73 159t63 141q3 5 16.5 32t25 50.5t24.5 52t20.5 50.5t7.5 32q0 14 -16 14q-11 0 -40.5 -10.5t-43.5 -10.5t-25.5 9.5t-11.5 29.5q0 31 45 58t102.5 51.5t73.5 42.5 q16 16 27 46t20.5 66.5t15.5 51.5q2 5 12.5 28t18.5 42.5t15.5 43.5t7.5 39q0 25 -15 25q-30 0 -114 -84q-26 -24 -99.5 -103.5t-124 -122t-84.5 -42.5q-11 0 -20.5 8.5t-9.5 21.5q0 6 2 12t4.5 11.5t8 12.5t9.5 12t12 12t12 11t13.5 11.5t13 10t12.5 10t11 8.5 q43 33 88.5 82t79 91t69.5 80.5t74.5 60.5t79.5 22q42 0 60 -23.5t18 -68.5q0 -59 -41 -191q-1 -2 -20 -50t-19 -66q0 -25 35 -25q22 0 55 6t61.5 13t32.5 8q7 0 27 1t31 1q168 0 168 -66q0 -43 -45 -43q-29 0 -74.5 12.5t-58.5 12.5q-70 0 -159 -20.5t-120 -45.5 q-17 -14 -33 -45.5t-36 -81.5t-25 -61q-104 -221 -221 -455q-12 -20 -25 -57t0 -37q10 0 48.5 37.5t98 103t72.5 78.5q249 258 385 260q109 0 109 -168q0 -89 -43.5 -207t-114.5 -237t-165.5 -236t-192.5 -206.5t-200 -145t-183 -55.5q-60 0 -93.5 34.5t-33.5 96.5z" />
<glyph unicode="&#x453;" horiz-adv-x="897" d="M-39 348q0 16 10 23q75 64 163.5 165t186 220t156.5 182q82 90 152.5 135t144.5 45q23 0 44.5 -8t41 -37.5t19.5 -77.5q0 -29 -11 -64t-38.5 -82t-47.5 -80t-65.5 -94t-64.5 -85.5t-70 -89.5t-112.5 -167.5t-61.5 -150.5q0 -63 57 -63q48 0 105.5 25t117 70.5t98 79 t86.5 79.5q19 17 40 8.5t25 -29t-13 -41.5q-119 -119 -269.5 -208t-234.5 -89q-59 0 -89 32.5t-30 86.5q0 149 186 397q4 6 48.5 64.5t73 98t67 96.5t58.5 100t20 67q0 35 -11 48.5t-34 13.5q-29 0 -85 -44.5t-104 -99.5q-64 -73 -153 -185.5t-169 -204.5t-171 -175 q-8 -8 -21 -8q-17 0 -31 15t-14 32zM899 1323q0 12 5.5 22.5t17 23t14.5 17.5q98 112 166 232q18 35 55 35q22 0 36.5 -14t14.5 -37q0 -26 -18 -50q-94 -123 -223 -241q-24 -21 -41 -21q-12 0 -19.5 9.5t-7.5 23.5z" />
<glyph unicode="&#x454;" horiz-adv-x="663" d="M-55 250q0 64 28 135.5t78 135.5t112.5 116.5t136.5 83.5t144 31q62 0 99 -26t37 -81t-30 -85t-61 -30q-40 0 -40 33q0 12 9 37t9 33q0 16 -10 23.5t-19 7.5q-86 0 -170 -62t-145 -158q-8 -11 -8 -20q0 -12 20 -12q23 0 71 10t75 10q96 0 96 -49q0 -15 -11.5 -26 t-31.5 -11q-209 0 -262 -65q-13 -16 -13 -43q0 -60 33 -96t101 -36q171 0 444 267q14 13 34.5 7t27 -24.5t-10.5 -42.5q-30 -37 -91.5 -90t-127.5 -96q-189 -127 -313 -127q-99 0 -155 70.5t-56 179.5z" />
<glyph unicode="&#x455;" horiz-adv-x="716" d="M-39 336q0 21 21 39q21 19 82 73.5t107.5 97.5t76.5 77q66 70 80 108q7 18 15 57.5t15 55.5q21 44 61.5 70t90.5 26q63 0 63 -47q0 -31 -18.5 -60t-42 -49.5t-48.5 -49.5t-34 -56q-8 -24 -8 -66q0 -8 12 -143q1 -6 3.5 -62.5t8.5 -84.5q3 -12 5.5 -19t11.5 -13.5t22 -6.5 q41 0 103.5 27t93.5 57q21 18 37 18q17 0 28 -13.5t11 -31.5q0 -14 -13 -27q-34 -32 -102.5 -63t-105.5 -39q-72 -18 -82 -33q-14 -22 -17 -67.5t-4 -51.5q-20 -95 -90 -155q-75 -62 -174 -62q-67 0 -115.5 33.5t-48.5 97.5q0 42 21 82t55.5 70t69 51t69.5 35q2 1 17.5 6 t24 8t23.5 9t24.5 11.5t18 12.5t11.5 14q8 21 8 66q0 32 -4 86q-10 96 -10 98q0 1 -1.5 8t-3.5 13t-5.5 11t-8.5 5q-12 0 -29 -13t-40 -36.5t-25 -24.5q-104 -96 -192 -170q-15 -12 -33 -12q-14 0 -24.5 10t-10.5 23zM100 -16q0 -27 22.5 -42.5t57.5 -15.5q48 0 99 31 q36 25 53.5 73.5t17.5 94.5q0 39 -12 39q-22 0 -80.5 -25t-75.5 -39q-82 -65 -82 -116z" />
<glyph unicode="&#x456;" horiz-adv-x="569" d="M-31.5 323q-20.5 29 8.5 52q57 48 129.5 118.5t75.5 73.5q13 11 50 48t62 58.5t63.5 41.5t72.5 20q45 0 45 -47q0 -54 -53 -145q-79 -140 -143 -271q-3 -8 -17 -35.5t-23.5 -50.5t-9.5 -39q0 -8 5 -15t14 -7q27 0 84 49q57 45 209 197q19 19 41 11t26 -29t-16 -44 q-21 -19 -80 -75.5t-103.5 -97t-80.5 -68.5q-3 -2 -21 -16.5t-27.5 -21t-27 -17t-34 -15t-32.5 -4.5q-33 0 -52 20t-19 56q0 30 6 57q8 37 32.5 90.5t65.5 133t57 112.5q35 73 35 86q0 12 -8 12q-11 0 -31 -20q-39 -31 -130.5 -120t-118.5 -112q-34 -15 -54.5 14zM414 961 q0 6 4 36t4 52q0 9 -3 28t-3 29q0 28 21 49t46 21q24 0 36.5 -16t12.5 -42q0 -41 -30.5 -109.5t-65.5 -68.5q-22 0 -22 21z" />
<glyph unicode="&#x457;" horiz-adv-x="569" d="M-31.5 323q-20.5 29 8.5 52q57 48 129.5 118.5t75.5 73.5q13 11 50 48t62 58.5t63.5 41.5t72.5 20q45 0 45 -47q0 -54 -53 -145q-79 -140 -143 -271q-3 -8 -17 -35.5t-23.5 -50.5t-9.5 -39q0 -8 5 -15t14 -7q27 0 84 49q57 45 209 197q19 19 41 11t26 -29t-16 -44 q-21 -19 -80 -75.5t-103.5 -97t-80.5 -68.5q-3 -2 -21 -16.5t-27.5 -21t-27 -17t-34 -15t-32.5 -4.5q-33 0 -52 20t-19 56q0 30 6 57q8 37 32.5 90.5t65.5 133t57 112.5q35 73 35 86q0 12 -8 12q-11 0 -31 -20q-27 -24 -120.5 -113t-128.5 -119q-34 -15 -54.5 14zM236 1036 q0 31 22.5 51.5t54.5 20.5q31 0 47.5 -20t16.5 -54q0 -32 -29.5 -60t-62.5 -28q-49 0 -49 90zM475 1051q0 30 25.5 52.5t56.5 22.5q30 0 47 -18t17 -49q0 -30 -30.5 -62t-60.5 -32q-27 0 -41 25.5t-14 60.5z" />
<glyph unicode="&#x458;" horiz-adv-x="505" d="M-795 -678q0 10 9.5 19t19 13.5t25 10t18.5 6.5q101 38 207.5 120t195 178t178.5 217.5t154 223t125 209.5q13 24 45 78t47 82t15 35l-4 2q-5 0 -29 -27q-17 -18 -80.5 -77t-103.5 -101q-13 -14 -35.5 -6t-28.5 27.5t14 42.5q18 17 126 113.5t169 157.5t88 102 q39 57 76 57q16 0 26.5 -12.5t10.5 -34.5q0 -39 -27 -86q-8 -15 -53.5 -97t-59.5 -106.5l-56 -98t-62 -107.5t-58 -97.5t-65 -104.5t-61 -92t-66 -94q-143 -195 -309.5 -347t-325.5 -202q-7 -2 -28.5 -9.5t-38 -12t-29.5 -4.5q-29 0 -29 22zM416 1053q0 53 23 107t55 54 q51 0 51 -57q0 -50 -36 -105t-69 -55q-24 0 -24 56z" />
<glyph unicode="&#x459;" horiz-adv-x="1093" d="M-127 147q0 86 37.5 160t89.5 74q39 0 39 -35q0 -21 -11.5 -47t-25.5 -49t-16 -29q-21 -53 -21 -96q0 -51 35 -51q30 0 81 47t89 96q33 42 94 126.5t106 143t101 121.5t108 96t99 33q30 0 42.5 -11.5t12.5 -35.5q0 -40 -39 -129q-16 -35 -48 -100t-53.5 -114.5 t-37.5 -100.5q-16 -40 -16 -92q0 -78 49 -78q35 0 78 39.5t43 64.5q0 13 -16.5 28.5t-33 38.5t-16.5 52q0 76 61.5 136.5t131.5 60.5q39 0 70.5 -23.5t31.5 -71.5q0 -8 -1 -25t-1 -24q0 -35 22 -35q56 0 109 56q21 21 48 5q26 -16 17 -43q-4 -14 -18 -26q-44 -37 -139 -79 t-117 -54q-27 -16 -65.5 -53t-69 -68t-75 -55.5t-89.5 -24.5q-113 0 -113 150q0 54 15 115.5t31.5 102.5t50.5 117t49 113q0 5 -4 5q-3 0 -17 -8.5t-36.5 -27t-40.5 -38.5q-52 -59 -128.5 -164.5t-127 -174.5t-117 -124t-125.5 -55q-62 0 -92.5 45.5t-30.5 115.5zM741 291 q0 -33 39 -33q24 1 46 38t22 69q0 34 -27 34q-22 0 -51 -35.5t-29 -72.5z" />
<glyph unicode="&#x45a;" horiz-adv-x="1400" d="M-29 8q0 16 16 39.5t37 47t25 30.5q54 78 122.5 202t107.5 214q12 28 -16 6q-26 -20 -163 -161q-48 -50 -67 -67q-32 -29 -58 -4.5t0 58.5q4 4 32 31.5t54 53.5t61.5 62.5t72 76t67.5 75.5q6 7 32.5 39.5t42 49t38.5 33.5t41 17q20 0 32.5 -15.5t12.5 -37.5 q0 -34 -23.5 -88t-63.5 -128t-55 -108q77 43 125 43q33 -1 60 -24.5t43 -51t43.5 -50.5t60.5 -23q25 0 58 19t49.5 34t48.5 45q33 98 78.5 189t89.5 161t116 159.5t126.5 151.5t152.5 168q26 30 71 64.5t81 34.5q13 0 26 -8.5t13 -22.5q0 -12 -8 -26.5t-24 -31.5 t-27.5 -28.5t-30 -28t-21.5 -18.5q-74 -71 -123.5 -122t-127 -139t-142.5 -187t-115 -205q79 36 154 36q80 -1 117.5 -44.5t37.5 -114.5q0 -76 -39 -164.5t-94 -145.5q-45 -47 -108 -84.5t-113 -37.5q-43 0 -71.5 20.5t-41 58.5t-16.5 73.5t-4 84.5v64q-92 -43 -143 -43 q-30 0 -54 12q-21 11 -48 43.5t-54 57t-57 24.5q-11 0 -21 -2.5t-20 -9t-17.5 -11.5t-17.5 -15.5t-14.5 -15t-14.5 -16.5t-12 -14q-66 -77 -101.5 -125t-74.5 -123q-18 -31 -47.5 -53.5t-55.5 -22.5q-15 0 -28 11.5t-13 27.5zM860 219q0 -141 64 -141q33 0 75 31.5t68 66.5 q72 105 72 205q0 88 -88 88q-45 0 -87 -17.5t-61 -54.5q-23 -57 -33 -94t-10 -84z" />
<glyph unicode="&#x45b;" horiz-adv-x="1157" d="M-14 49q0 17 5.5 38.5t15.5 44t18.5 39t19.5 36t12 22.5q104 178 324 658q15 33 -4 33q-11 0 -61 -23t-64 -23q-31 0 -31 39q0 31 45 58t102.5 51.5t73.5 42.5q16 16 27 46t21 67t16 51q2 4 12.5 27.5t18.5 43t15 43.5t7 39q0 25 -14 25q-19 0 -61.5 -29.5t-55.5 -42.5 q-35 -33 -58.5 -57.5t-35 -38.5t-36 -45t-46.5 -57q-12 -15 -33 -15q-13 0 -23 8.5t-10 22.5q0 19 25 55q82 111 205 218.5t182 107.5q61 0 61 -94q0 -69 -36 -163t-43 -144q-1 -13 7 -19t27 -6q66 0 147 16.5t140 16.5q24 0 65.5 6t55.5 6q47 0 47 -45q0 -30 -33 -37 q-23 -7 -50 -10t-58.5 -3.5t-36.5 -0.5q-104 -5 -216.5 -25t-142.5 -45q-17 -14 -33 -45.5t-36 -81.5t-25 -61q-28 -59 -64 -138t-65.5 -141t-66.5 -137q-18 -32 -32 -76q-3 -15 1 -12q22 20 76.5 69.5t73.5 66.5t62 54t66.5 54.5t60.5 44.5t71.5 47t74.5 41q76 39 138 39 q37 0 61.5 -22t24.5 -60q0 -27 -10 -58t-30.5 -74t-21.5 -46q-12 -29 -47.5 -92.5t-58.5 -114.5t-23 -84q0 -17 11 -32t30 -15q52 0 155 76.5t181 154.5q25 25 33 32t20.5 8t26.5 -11q16 -16 12.5 -34.5t-20.5 -33.5q-3 -3 -30 -27.5t-37.5 -33.5t-38.5 -33.5t-43.5 -37.5 t-42.5 -34.5t-46 -34t-42.5 -27.5t-44 -24.5t-38.5 -15.5q-29 -10 -65 -10q-53 0 -86 27.5t-33 78.5q0 61 25.5 135.5t56.5 130t56.5 107.5t25.5 74q0 26 -27 26q-10 0 -24.5 -5.5t-23 -10.5t-27 -16t-21.5 -13q-166 -107 -322.5 -248t-238.5 -256q-4 -4 -18 -21t-28 -27.5 t-30 -10.5q-25 0 -37 14.5t-12 36.5z" />
<glyph unicode="&#x45c;" horiz-adv-x="1255" d="M-34 353q5 18 22 34q22 22 120.5 132.5t145.5 148.5q88 69 135 69q24 0 36.5 -18t12.5 -45q0 -45 -26 -99q-22 -40 -113 -190.5t-129 -243.5q-15 -36 -5 -31q16 8 139 180q36 49 52 70q210 279 402 488q1 1 14 15.5t19.5 22t23 24.5t27 27t28.5 26.5t31 26.5t30.5 22 t32 19t30 11.5t28.5 4.5q32 0 52 -24t20 -58q0 -63 -64 -158q-9 -17 -58 -64t-83 -47q-14 0 -24.5 11t-10.5 26q0 16 16.5 37t36.5 38t35 40.5t12 44.5q-12 -3 -24.5 -10t-22 -13t-21.5 -17.5t-18.5 -18t-19.5 -20.5t-17 -19q-10 -11 -77.5 -81.5t-94 -100.5t-71.5 -87.5 t-72 -107.5q13 4 45 15t52.5 17.5t48 12.5t47.5 6q31 0 54 -19t23 -57q0 -24 -20.5 -111t-20.5 -128q0 -74 58 -74q30 0 71.5 18t75.5 39t84.5 61t74 61t70 63.5t48.5 44.5q39 35 63 8q19 -20 9 -46q-4 -10 -11 -16q-11 -9 -127.5 -111.5t-167.5 -138.5q-124 -90 -225 -90 q-139 0 -139 189q0 28 21.5 97t21.5 87q0 19 -17 19t-53 -24t-53 -24q-23 0 -42 17.5t-26 46.5q-44 -57 -139.5 -182t-134.5 -176q-6 -7 -28 -37.5t-33 -42.5t-32 -25.5t-42 -13.5q-22 0 -42 27.5t-20 66.5q0 43 18.5 96t33 81.5t49.5 90.5q5 8 100 159q76 120 57 120 q-4 0 -12 -4q-16 -9 -50 -41.5t-62 -62t-64.5 -69t-40.5 -44.5q-32 -33 -59 -17q-23 14 -14 46zM498 938q0 12 5.5 22.5t17 23t14.5 17.5q95 109 165 232q18 35 56 35q22 0 36.5 -14t14.5 -37q0 -25 -19 -50q-94 -123 -223 -241q-24 -21 -41 -21q-12 0 -19 9.5t-7 23.5z" />
<glyph unicode="&#x45e;" horiz-adv-x="899" d="M-1348 -748q0 13 11 20t22 -3q90 -83 193 -115.5t229 -32.5q525 0 1272 1051q5 5 21 30.5t16 35.5q0 8 -6 8q-4 0 -27 -13.5t-53.5 -32t-38.5 -22.5q-135 -76 -209 -76q-67 0 -98 41t-31 142q0 57 55 171t127 207t115 93q24 0 37.5 -12.5t13.5 -30.5q0 -25 -64 -115 t-128 -191t-64 -153q0 -32 14.5 -45.5t44.5 -13.5q81 0 263.5 134.5t259.5 239.5q6 8 39 70t68 104.5t69 42.5q19 0 33 -14t14 -31q0 -31 -80 -143l-102 -152q-260 -385 -403 -572q-390 -506 -741 -703q-247 -138 -489 -138q-84 0 -170 25.5t-148.5 77.5t-64.5 116z M227 1047q0 38 84 114q94 87 227 182t199 95q24 0 33 -30t12.5 -82.5t8.5 -72.5t22 -52t31 -55t14 -26q0 -35 -37 -35q-21 0 -54.5 37.5t-45.5 67.5q-6 15 -15 45t-16.5 47.5t-15.5 17.5q-16 0 -38 -10t-50 -27t-33 -20q-119 -69 -209 -151q-72 -72 -90 -72q-10 0 -18.5 8 t-8.5 19z" />
<glyph unicode="&#x45f;" horiz-adv-x="1169" d="M-57 -637q0 60 54 120t118 60q41 0 41 -24q0 -14 -18.5 -28t-41 -25.5t-41 -36.5t-18.5 -60q0 -45 47 -45q51 0 88.5 38t53.5 90t16 108q0 22 -10.5 66.5t-10.5 68.5q0 56 54.5 129t117.5 117q18 12 33 12q25 0 25 -19q0 -15 -17.5 -38t-43.5 -50t-34 -39 q-37 -55 -37 -100q0 -19 8.5 -67.5t8.5 -69.5q0 -132 -80.5 -230t-189.5 -98q-52 0 -87.5 29.5t-35.5 91.5zM-37 344q0 8 3.5 16t7.5 14.5t11 13.5t11.5 10.5t11.5 9t8 6.5q50 46 142 143.5t147 161.5q2 2 21.5 27t32 38.5t33 28t36.5 14.5q22 0 33.5 -17t11.5 -42 q0 -48 -37 -133q-20 -42 -77.5 -151.5t-86.5 -180.5q-3 -7 -12.5 -30t-13.5 -34t-10 -32t-8.5 -40.5t-2.5 -41.5q0 -23 21 -23q30 0 87.5 42t102.5 85q133 121 340 361q4 4 22 26t30.5 35.5t32 31.5t38.5 27t37 9q23 0 37 -15.5t14 -41.5q0 -38 -26 -97q-68 -137 -115 -246 q-2 -4 -11.5 -25.5t-13 -30.5t-12 -29.5t-12.5 -33t-9.5 -29.5t-7.5 -30.5t-2 -25.5q0 -21 21 -21t52.5 16.5t51.5 32.5q39 30 130.5 121.5t101.5 100.5q20 20 36 20q14 0 25.5 -12t11.5 -27q0 -23 -18 -41q-21 -19 -85 -81.5t-113 -106.5t-89 -72q-87 -65 -135 -65 q-102 0 -102 98q0 59 49 184q9 22 29.5 66t34.5 79t18 64q-23 -10 -47 -32.5t-56 -60t-41 -46.5q-99 -107 -245 -234q-3 -3 -21.5 -19.5t-24.5 -21.5t-23 -18.5t-27.5 -18.5t-26.5 -12.5t-31.5 -10.5t-32.5 -3q-50 0 -77 37t-27 102q0 45 16.5 101.5t33 93t46.5 98.5l10 20 q33 68 33 76q0 4 -4 4q-13 0 -77 -64t-114 -120q-6 -10 -26 -25.5t-37 -15.5q-13 0 -24 14t-11 29z" />
<glyph unicode="&#x490;" horiz-adv-x="1046" d="M-184 131q0 88 67 167t160 79q58 0 162 -53q11 -6 36.5 -28t51 -38t47.5 -16q42 0 123 108t164.5 260.5t154.5 296t109 236.5q6 20 -14 20q-141 6 -144 6q-45 0 -80.5 -1.5t-88.5 -7t-92 -18t-76 -32t-57 -52t-20 -75.5q0 -58 42 -88.5t110 -30.5q25 0 72 12.5t71 12.5 q16 0 27.5 -9.5t11.5 -25.5q0 -22 -41 -37.5t-80.5 -20.5t-66.5 -5q-93 0 -158 55.5t-65 154.5q0 115 88 182t213 77q70 4 108 4q82 0 256 -17q23 -2 35 27q29 89 29 123q0 8 -8 8q-11 0 -36 -14.5t-38 -14.5q-10 0 -16.5 9t-6.5 20q0 35 50.5 60.5t82.5 25.5q34 0 56 -22.5 t22 -67.5q0 -42 -30 -127q-5 -15 -5 -19q0 -22 23 -22q110 -8 160 -8q93 0 153 16q131 33 252 315q1 4 10.5 41t23 58.5t36.5 21.5q29 0 29 -43q0 -35 -17 -92q-47 -156 -149 -276q-108 -127 -308 -127q-73 0 -227 14q-27 2 -41 -31q-8 -18 -31.5 -68.5t-31.5 -68.5 q-47 -103 -70.5 -153t-70.5 -142.5t-84 -153t-90 -137.5t-109 -143q-1 -1 -14 -15t-21 -24t-16.5 -23.5t-8.5 -21.5q0 -7 25 -23t71 -30.5t91 -14.5q38 0 77.5 15t86.5 50t75.5 59t84.5 77t75 70q13 10 25 10q15 0 25.5 -13.5t10.5 -31.5q0 -17 -10 -27 q-151 -149 -268.5 -228t-224.5 -79q-81 0 -160 39q-19 8 -46.5 28t-35.5 21q-22 0 -73.5 -26.5t-61.5 -30.5q-114 -43 -217 -43q-79 0 -126.5 37.5t-47.5 99.5zM-90 170q0 -86 110 -86q44 0 130 26t86 50q0 28 -95.5 69t-122.5 41q-51 0 -79.5 -28.5t-28.5 -71.5z" />
<glyph unicode="&#x491;" horiz-adv-x="634" d="M-205 -76q0 84 38 186.5t81 170.5q1 2 9 16.5t16 27t19 27t23.5 23t24.5 8.5q14 0 24.5 -10t10.5 -25q0 -20 -15 -49t-35.5 -58t-23.5 -34q-62 -112 -76 -187q-6 -27 -6 -69q0 -86 41 -86q11 0 24.5 8t28.5 24t25.5 28.5t25 31.5t17.5 23q145 182 272 470.5t209 577.5 q2 6 9 39.5t13 53.5t23 39.5t41 19.5q12 0 81 -20.5t139 -20.5q153 0 245 106q9 10 24.5 40t33.5 47.5t43 17.5q39 0 39 -39q0 -25 -15 -56.5t-35 -54.5q-53 -61 -149 -102t-207 -41q-14 0 -69 10t-76 2q-9 -4 -20.5 -36.5t-25.5 -83t-20 -68.5q-135 -375 -248 -592.5 t-288 -419.5q-37 -42 -81.5 -72t-82.5 -30q-51 0 -79 50.5t-28 106.5z" />
<glyph unicode="&#x2000;" horiz-adv-x="969" />
<glyph unicode="&#x2001;" horiz-adv-x="1939" />
<glyph unicode="&#x2002;" horiz-adv-x="969" />
<glyph unicode="&#x2003;" horiz-adv-x="1939" />
<glyph unicode="&#x2004;" horiz-adv-x="646" />
<glyph unicode="&#x2005;" horiz-adv-x="484" />
<glyph unicode="&#x2006;" horiz-adv-x="323" />
<glyph unicode="&#x2007;" horiz-adv-x="323" />
<glyph unicode="&#x2008;" horiz-adv-x="242" />
<glyph unicode="&#x2009;" horiz-adv-x="387" />
<glyph unicode="&#x200a;" horiz-adv-x="107" />
<glyph unicode="&#x2010;" d="M145 369q0 16 11 31t28 18q474 39 521 39q33 0 50 -11.5t17 -27.5q0 -19 -22.5 -34.5t-59.5 -18.5q-55 -1 -225.5 -10t-284.5 -13q-35 -3 -35 27z" />
<glyph unicode="&#x2011;" d="M145 369q0 16 11 31t28 18q474 39 521 39q33 0 50 -11.5t17 -27.5q0 -19 -22.5 -34.5t-59.5 -18.5q-55 -1 -225.5 -10t-284.5 -13q-35 -3 -35 27z" />
<glyph unicode="&#x2012;" d="M145 369q0 16 11 31t28 18q474 39 521 39q33 0 50 -11.5t17 -27.5q0 -19 -22.5 -34.5t-59.5 -18.5q-55 -1 -225.5 -10t-284.5 -13q-35 -3 -35 27z" />
<glyph unicode="&#x2013;" horiz-adv-x="1277" d="M145 418q0 16 15 28t41 11q92 -6 207 -6q238 0 538 20q99 6 109 6q26 0 41.5 -11t15.5 -26t-16.5 -29t-46.5 -18q-143 -20 -353 -20q-230 0 -522 16q-13 0 -21 9t-8 20z" />
<glyph unicode="&#x2014;" horiz-adv-x="1759" d="M125 401q0 19 13 31.5t36 9.5q153 -14 332 -14q71 0 203 4q161 5 495.5 33.5t403.5 28.5q20 0 32.5 -14t12.5 -31q0 -29 -31 -35q-126 -27 -432.5 -48.5t-466.5 -21.5q-41 0 -128.5 -2t-133.5 -2q-186 0 -301 22q-35 6 -35 39z" />
<glyph unicode="&#x2018;" horiz-adv-x="573" d="M150 840q0 57 63 160.5t161.5 205.5t188.5 148q9 6 29 6q24 0 24 -23q0 -25 -28 -45q-134 -100 -200 -179.5t-101 -194.5q-3 -12 -10 -40.5t-11.5 -41t-14 -29.5t-23.5 -24t-35 -7q-43 0 -43 64z" />
<glyph unicode="&#x2019;" horiz-adv-x="385" d="M-80 766q0 25 29 45q241 180 321 406q-10 17 -10 43q0 40 35 69t72 29q43 0 43 -64q0 -54 -78 -167.5t-181 -220.5t-178 -156q-13 -9 -26 -9q-27 0 -27 25z" />
<glyph unicode="&#x201a;" horiz-adv-x="372" d="M-360 -496q0 16 24 37q267 216 385 473q-20 12 -20 39q1 40 27.5 65t58.5 25q24 0 38.5 -14t14.5 -43q0 -28 -14 -63q-62 -152 -195.5 -296.5t-267.5 -232.5q-13 -8 -29 -8q-22 0 -22 18z" />
<glyph unicode="&#x201c;" horiz-adv-x="753" d="M150 840q0 57 63 160.5t161.5 205.5t188.5 148q9 6 29 6q24 0 24 -23q0 -25 -28 -45q-134 -100 -200 -179.5t-101 -194.5q-3 -12 -10 -40.5t-11.5 -41t-14 -29.5t-23.5 -24t-35 -7q-43 0 -43 64zM453 850q0 71 80 185.5t175 204.5t152 118q9 6 27 6q22 0 22 -21 q0 -23 -26 -43q-130 -104 -199 -183t-98 -177q-3 -12 -7.5 -36t-8.5 -39t-12 -32t-22.5 -25.5t-35.5 -8.5q-20 0 -33.5 13t-13.5 38z" />
<glyph unicode="&#x201d;" horiz-adv-x="854" d="M72 791q0 23 26 43q121 97 180.5 167.5t94.5 169.5q-4 14 -4 41q0 43 29.5 72t62.5 29q20 0 33.5 -13t13.5 -38q0 -54 -45 -132.5t-107.5 -149t-127.5 -127.5t-107 -77q-9 -6 -27 -6q-22 0 -22 21zM367 766q0 25 28 45q243 181 322 406q-10 18 -10 43q0 40 34.5 69 t71.5 29q43 0 43 -64q0 -82 -158.5 -274t-277.5 -270q-14 -9 -27 -9q-26 0 -26 25z" />
<glyph unicode="&#x201e;" horiz-adv-x="792" d="M-215 -334q0 22 27 43q120 96 179 167.5t95 170.5q-4 14 -4 41q0 43 29.5 71.5t62.5 28.5q20 0 33.5 -13t13.5 -38q0 -71 -75 -179.5t-164.5 -193t-147.5 -112.5q-9 -6 -27 -6q-22 0 -22 20zM80 -358q0 25 29 45q242 181 321 405q-10 17 -10 43q0 40 34.5 69t71.5 29 q43 0 43 -63q0 -82 -158.5 -274.5t-277.5 -270.5q-12 -8 -27 -8q-26 0 -26 25z" />
<glyph unicode="&#x2026;" horiz-adv-x="1443" d="M109 55q0 27 21.5 44.5t51.5 17.5q28 0 54 -12.5t26 -38.5q0 -36 -22.5 -70.5t-71.5 -34.5q-27 0 -43 30t-16 64zM625 49q0 28 26 47t56 19q45 0 45 -64q0 -27 -21.5 -51.5t-48.5 -24.5q-29 0 -43 21.5t-14 52.5zM1112 37q0 26 31.5 54t60.5 28q23 0 43.5 -20t20.5 -48 q0 -27 -30 -56.5t-60 -29.5q-32 0 -49 20.5t-17 51.5z" />
<glyph unicode="&#x202f;" horiz-adv-x="387" />
<glyph unicode="&#x2039;" horiz-adv-x="757" d="M141 422q0 20 15 37t32 26t44 21.5t36 17.5q126 68 262 197q2 1 34.5 37t57 52.5t50.5 16.5q15 0 27 -10.5t12 -30.5q0 -16 -11 -33.5t-22.5 -27.5t-31.5 -25.5t-25 -19.5q-7 -6 -37 -33t-36.5 -32t-30 -24.5t-37 -29t-36.5 -25.5t-49 -32q-23 -14 -70.5 -48t-62.5 -44 q55 -48 135 -154q4 -5 24.5 -31t30 -39.5t19.5 -35t10 -37.5t-13 -31.5t-32 -15.5q-14 0 -26.5 9t-19.5 18.5t-17.5 27.5t-14.5 24q-13 19 -25.5 36t-31 37.5t-26.5 30t-34.5 37.5t-33.5 36q-4 5 -18 19t-23 24t-17 25.5t-8 29.5z" />
<glyph unicode="&#x203a;" horiz-adv-x="757" d="M57 104q0 20 12.5 38t44.5 44t33 27q31 29 62 55t47 37.5t60 43t61 44.5q7 5 33 20.5t51 33t47 38.5q-71 83 -135 150l-9 11q-9 10 -17.5 20t-20.5 26.5t-20.5 31.5t-14.5 32t-6 30q0 21 17.5 36.5t41.5 15.5q12 0 22.5 -8t15.5 -16t14.5 -25.5t13.5 -24.5q4 -6 25.5 -42 t41.5 -64t39 -48q12 -12 46 -43t51.5 -51.5t17.5 -36.5q0 -38 -35.5 -68t-97.5 -57.5t-72 -34.5q-124 -82 -221 -172q-6 -6 -27.5 -33.5t-40 -40t-43.5 -12.5q-14 2 -25.5 14t-11.5 29z" />
<glyph unicode="&#x205f;" horiz-adv-x="484" />
<glyph unicode="&#x20ac;" horiz-adv-x="1075" d="M37 473q0 28 19 42.5t48 18.5t59.5 7t56.5 14t36 33l23 71q6 19 -10 27t-44 8q-18 0 -56.5 -4t-55.5 -4q-58 0 -58 39q0 16 10 27t28.5 15.5t37.5 6.5t45 2q7 0 30 -0.5t37.5 -0.5t35 2t36.5 7q17 6 29.5 29t31 63.5t40.5 71.5q95 135 137 180q100 107 190 170.5 t177 63.5q108 0 163.5 -62.5t55.5 -152.5q0 -92 -53 -162t-140 -70q-52 0 -79 36.5t-27 88.5q0 57 29 99.5t79 42.5q15 0 25 -8.5t10 -24.5q0 -28 -28.5 -53.5t-28.5 -55.5q0 -11 8.5 -19.5t26.5 -8.5q36 0 68 46.5t32 100.5q0 53 -36 80t-95 27q-86 0 -161.5 -59 t-158.5 -165q-64 -82 -82 -114q-2 -4 -18.5 -30.5t-28.5 -51t-12 -39.5q0 -29 68 -29q70 0 147.5 16.5t101.5 16.5q52 0 52 -45q0 -36 -44 -48.5t-124 -12.5q-24 0 -71 1t-69 1q-62 0 -95.5 -9t-39.5 -34l-18 -72q-5 -20 22.5 -24t63 0.5t66 -1.5t30.5 -28q0 -29 -49.5 -38 t-108 -14t-71.5 -24q-14 -22 -17.5 -43.5t-3.5 -77.5q0 -258 135 -258q88 0 207 102q21 18 56 56.5t61 62t45 23.5q13 0 23 -10.5t10 -22.5q0 -9 -4 -20t-11.5 -22.5t-15 -21.5t-18 -21t-17 -17.5l-14.5 -14.5l-8 -8q-71 -78 -157.5 -133t-170.5 -55q-60 0 -105 25t-71 69 t-38.5 99t-12.5 120q0 31 5 72t5 73q0 29 -25 29q-15 0 -57 -16.5t-59 -16.5q-14 0 -24.5 9t-10.5 28z" />
<glyph unicode="&#x2122;" horiz-adv-x="1183" d="M78 846q0 54 27 96.5t71 42.5q34 0 67.5 -26.5t63.5 -26.5q9 0 17 3.5t14.5 11t11 13.5t10.5 17t9 16q3 4 18.5 23t26 35.5t10.5 27.5q0 2 -2 3t-6 2t-9 1.5t-12.5 1t-14 0.5h-16h-17h-18.5h-18q-67 0 -100 13t-51.5 41t-18.5 61q0 69 66 107q59 32 157 48t245 25.5 t204 16.5q13 2 51.5 5.5t58.5 6t45 9.5t38 16q12 9 20 29t19 33t34 13q28 0 43 -19t15 -40q0 -27 -15.5 -47t-45.5 -32.5t-55.5 -18.5t-64.5 -13q-101 -19 -264.5 -29.5t-251.5 -23.5q-25 -4 -51 -9t-64 -15t-61.5 -26.5t-23.5 -35.5q0 -45 67 -45q13 0 49 2.5t52 1.5 q4 -1 24.5 -8.5t28.5 -7.5q19 1 35.5 19t28 39.5t32.5 39t47 17.5q20 0 31.5 -17t11.5 -41q0 -32 -18 -53q-8 -10 -36.5 -22t-41.5 -23q-17 -15 -48.5 -54t-43.5 -61q-4 -7 -23.5 -38t-28.5 -52t-6 -37q3 -18 30.5 -35.5t51.5 -17.5q61 0 148 98q44 46 104.5 134.5 t112.5 140.5q96 96 135 96q29 0 29 -37q0 -17 -5.5 -37.5t-14 -44t-9.5 -26.5l-11 -27q-12 -28 -21 -56t-9 -44q0 -21 12 -21q10 0 25 14t30 33l15 19q1 1 53 67.5t95 111t65 44.5q13 0 21 -12.5t8 -28.5q0 -33 -25 -96q-9 -24 -19.5 -47t-17.5 -37.5t-21 -40t-18.5 -33.5 t-23.5 -40t-23 -40q-8 -14 -25.5 -40.5t-27 -44.5t-12.5 -30q-3 -14 -3.5 -39.5t-5.5 -36t-24 -10.5q-45 0 -45 50q0 41 16 73q53 102 53 125q0 10 -6 10q-11 0 -30 -16q-35 -27 -80 -95t-56 -81l-10 -14q-10 -14 -14.5 -19.5t-15 -12.5t-19.5 -7q-12 0 -20.5 9.5t-8.5 22.5 q0 19 10 47.5t22.5 56t14.5 32.5q31 97 31 145q0 35 -16 35q-11 0 -35 -21q-22 -19 -54 -68t-40 -59q-3 -4 -26 -34.5t-33.5 -43t-35 -38t-43.5 -37.5t-46 -22.5t-54 -10.5q-30 0 -78.5 29.5t-76.5 29.5q-20 0 -71 -26.5t-81 -26.5q-47 0 -70.5 33.5t-23.5 81.5zM147 852 q0 -16 10 -27.5t27 -11.5q22 0 40 14t18 35q0 15 -13.5 25t-31.5 10q-20 0 -35 -12t-15 -33z" />
<glyph unicode="&#x25fc;" horiz-adv-x="1013" d="M0 0v1014h1014v-1014h-1014z" />
</font>
</defs>
</svg>
